<svg width="51" height="34" viewBox="0 0 51 34" fill="none" xmlns="http://www.w3.org/2000/svg">
<rect x="0.5" y="3.5" width="50" height="30" rx="4.5" fill="#453939" fill-opacity="0.41" stroke="white"/>
<path d="M32.68 19.56C32.68 20.8107 32.3813 21.9493 31.784 22.976C31.1867 24.0027 30.3747 24.8147 29.348 25.412C28.3213 25.9907 27.192 26.28 25.96 26.28H25.148C23.916 26.28 22.7867 25.9907 21.76 25.412C20.7333 24.8147 19.9213 24.0027 19.324 22.976C18.7453 21.9493 18.456 20.8107 18.456 19.56V13.26C18.456 12.0093 18.7453 10.8707 19.324 9.844C19.9213 8.81733 20.7333 8.00533 21.76 7.408C22.7867 6.81067 23.916 6.512 25.148 6.512H25.96C27.192 6.512 28.3213 6.81067 29.348 7.408C30.3747 8.00533 31.1867 8.81733 31.784 9.844C32.3813 10.8707 32.68 12.0093 32.68 13.26V19.56ZM28.536 12.784C28.536 11.944 28.2467 11.2347 27.668 10.656C27.108 10.0773 26.408 9.788 25.568 9.788C24.728 9.788 24.0187 10.0773 23.44 10.656C22.88 11.2347 22.6 11.944 22.6 12.784V20.008C22.6 20.848 22.88 21.5573 23.44 22.136C24.0187 22.7147 24.728 23.004 25.568 23.004C26.408 23.004 27.108 22.7147 27.668 22.136C28.2467 21.5573 28.536 20.848 28.536 20.008V12.784Z" fill="white"/>
</svg>
