<svg width="51" height="34" viewBox="0 0 51 34" fill="none" xmlns="http://www.w3.org/2000/svg">
<rect x="0.5" y="3.5" width="50" height="30" rx="4.5" fill="#453939" fill-opacity="0.41" stroke="white"/>
<path d="M18.624 25.16C18.624 23.928 18.8293 22.9573 19.24 22.248C19.6693 21.52 20.2667 20.8573 21.032 20.26L26.492 15.976C27.2013 15.4347 27.6867 14.884 27.948 14.324C28.228 13.7453 28.368 13.148 28.368 12.532C28.368 11.8413 28.144 11.244 27.696 10.74C27.248 10.2173 26.576 9.956 25.68 9.956C24.952 9.956 24.3453 10.124 23.86 10.46C23.3933 10.7773 23.048 11.16 22.824 11.608C22.6 12.056 22.488 12.448 22.488 12.784C22.488 13.12 22.4973 13.372 22.516 13.54H18.68C18.6613 13.3907 18.652 13.2133 18.652 13.008C18.652 12 18.876 11.0107 19.324 10.04C19.772 9.05067 20.5373 8.22 21.62 7.548C22.7027 6.85733 24.1213 6.512 25.876 6.512H26.296C27.64 6.512 28.788 6.792 29.74 7.352C30.7107 7.912 31.4387 8.64933 31.924 9.564C32.4093 10.46 32.652 11.4213 32.652 12.448C32.652 13.5493 32.4373 14.5293 32.008 15.388C31.5973 16.228 30.8787 17.0773 29.852 17.936C28.676 18.9253 27.2573 20.0453 25.596 21.296C25.4093 21.4453 25.176 21.6507 24.896 21.912C24.616 22.1733 24.476 22.3413 24.476 22.416H32.708V26H18.624V25.16Z" fill="white"/>
</svg>
