<svg width="51" height="34" viewBox="0 0 51 34" fill="none" xmlns="http://www.w3.org/2000/svg">
<rect x="0.5" y="3.5" width="50" height="30" rx="4.5" fill="#453939" fill-opacity="0.41" stroke="white"/>
<path d="M21.872 20.26C21.872 22.052 22.9733 22.948 25.176 22.948C26.2773 22.948 27.1173 22.724 27.696 22.276C28.2933 21.828 28.592 21.156 28.592 20.26C28.592 19.2333 28.2653 18.552 27.612 18.216C26.9587 17.88 26.0813 17.712 24.98 17.712H22.964V14.716H25.26C26.1 14.716 26.7907 14.5013 27.332 14.072C27.8733 13.6427 28.144 13.0267 28.144 12.224C28.144 11.44 27.8547 10.852 27.276 10.46C26.716 10.0493 26.016 9.844 25.176 9.844C24.3733 9.844 23.692 10.068 23.132 10.516C22.572 10.9453 22.292 11.552 22.292 12.336H18.568V11.748C18.568 10.7587 18.848 9.86267 19.408 9.06C19.9867 8.25733 20.78 7.632 21.788 7.184C22.796 6.736 23.944 6.512 25.232 6.512H25.764C27.0147 6.512 28.1253 6.736 29.096 7.184C30.0853 7.632 30.86 8.25733 31.42 9.06C31.98 9.844 32.26 10.7307 32.26 11.72C32.26 12.728 31.9987 13.5867 31.476 14.296C30.972 15.0053 30.2813 15.556 29.404 15.948V16.088C30.4493 16.4427 31.2707 17.0213 31.868 17.824C32.4653 18.608 32.764 19.5973 32.764 20.792C32.764 21.8373 32.4747 22.78 31.896 23.62C31.3173 24.46 30.496 25.1133 29.432 25.58C28.3867 26.0467 27.164 26.28 25.764 26.28H25.008C23.552 26.28 22.292 26.0373 21.228 25.552C20.1827 25.0667 19.3893 24.404 18.848 23.564C18.3067 22.7053 18.036 21.7347 18.036 20.652V20.26H21.872Z" fill="white"/>
</svg>
