<svg width="51" height="34" viewBox="0 0 51 34" fill="none" xmlns="http://www.w3.org/2000/svg">
<rect x="0.5" y="3.5" width="50" height="30" rx="4.5" fill="#453939" fill-opacity="0.41" stroke="white"/>
<path d="M26.38 14.016C26.828 13.344 27.248 12.5227 27.64 11.552C28.0507 10.5813 28.368 9.68533 28.592 8.864H30.384V18.216H32.96V21.52H30.384V26H26.38V21.52H17.924V18.188C18.876 16.676 19.8467 14.8 20.836 12.56C21.844 10.3013 22.6 8.28533 23.104 6.512H27.052C26.772 7.78133 26.268 9.2 25.54 10.768C24.812 12.3173 24.028 13.7733 23.188 15.136C22.3667 16.4987 21.6573 17.5253 21.06 18.216H26.38V14.016Z" fill="white"/>
</svg>
