<svg width="51" height="34" viewBox="0 0 51 34" fill="none" xmlns="http://www.w3.org/2000/svg">
<rect x="0.5" y="3.5" width="50" height="30" rx="4.5" fill="#453939" fill-opacity="0.41" stroke="white"/>
<path d="M26.548 13.316C27.836 13.316 28.9467 13.596 29.88 14.156C30.8133 14.6973 31.5133 15.4627 31.98 16.452C32.4653 17.4227 32.708 18.524 32.708 19.756C32.708 21.0067 32.4093 22.1267 31.812 23.116C31.2333 24.1053 30.412 24.88 29.348 25.44C28.3027 26 27.0987 26.28 25.736 26.28H25.316C23.9347 26.28 22.7213 26 21.676 25.44C20.6307 24.8613 19.8187 24.0867 19.24 23.116C18.68 22.1453 18.3907 21.0627 18.372 19.868H22.208C22.2267 20.7453 22.544 21.4733 23.16 22.052C23.7947 22.612 24.532 22.892 25.372 22.892C26.324 22.892 27.0893 22.5933 27.668 21.996C28.2653 21.3987 28.564 20.6147 28.564 19.644C28.564 18.7667 28.2933 18.0293 27.752 17.432C27.2293 16.816 26.5013 16.508 25.568 16.508C24.2613 16.508 23.2627 16.9933 22.572 17.964L19.128 17.46L19.912 6.792H31.476V10.432H23.16L22.824 14.66C23.9627 13.764 25.204 13.316 26.548 13.316Z" fill="white"/>
</svg>
