<svg width="51" height="34" viewBox="0 0 51 34" fill="none" xmlns="http://www.w3.org/2000/svg">
<rect x="0.5" y="3.5" width="50" height="30" rx="4.5" fill="#453939" fill-opacity="0.41" stroke="white"/>
<path d="M25.596 9.872C24.7747 9.872 24.0653 10.152 23.468 10.712C22.8707 11.272 22.572 11.9627 22.572 12.784V15.5C23.076 14.9587 23.6733 14.548 24.364 14.268C25.0547 13.988 25.764 13.848 26.492 13.848C27.6493 13.848 28.6947 14.0907 29.628 14.576C30.58 15.0427 31.3267 15.724 31.868 16.62C32.428 17.4973 32.708 18.524 32.708 19.7C32.708 21.0253 32.4 22.1827 31.784 23.172C31.1867 24.1613 30.356 24.9267 29.292 25.468C28.2467 26.0093 27.08 26.28 25.792 26.28H25.4C24.1307 26.28 22.964 26 21.9 25.44C20.836 24.8613 19.996 24.0587 19.38 23.032C18.764 22.0053 18.456 20.8387 18.456 19.532V13.26C18.456 12.0093 18.764 10.8707 19.38 9.844C19.996 8.81733 20.8267 8.00533 21.872 7.408C22.9173 6.81067 24.0653 6.512 25.316 6.512H25.708C26.94 6.512 28.06 6.764 29.068 7.268C30.076 7.772 30.8693 8.50933 31.448 9.48C32.0267 10.432 32.316 11.5613 32.316 12.868H28.452C28.452 12.0467 28.1813 11.3467 27.64 10.768C27.1173 10.1707 26.436 9.872 25.596 9.872ZM28.648 19.616C28.648 18.776 28.3493 18.0853 27.752 17.544C27.1733 16.984 26.4453 16.704 25.568 16.704C24.728 16.704 24.0187 16.984 23.44 17.544C22.8613 18.0853 22.572 18.776 22.572 19.616V20.176C22.572 21.016 22.8613 21.716 23.44 22.276C24.0373 22.8173 24.7747 23.088 25.652 23.088C26.492 23.088 27.2013 22.8173 27.78 22.276C28.3587 21.716 28.648 21.016 28.648 20.176V19.616Z" fill="white"/>
</svg>
