<svg width="51" height="34" viewBox="0 0 51 34" fill="none" xmlns="http://www.w3.org/2000/svg">
<rect x="0.5" y="3.5" width="50" height="30" rx="4.5" fill="#453939" fill-opacity="0.41" stroke="white"/>
<path d="M29.656 16.256C30.664 16.7787 31.42 17.3853 31.924 18.076C32.4467 18.748 32.708 19.644 32.708 20.764C32.708 22.5187 32.0733 23.8813 30.804 24.852C29.5347 25.804 27.7893 26.28 25.568 26.28C23.4213 26.28 21.6947 25.7947 20.388 24.824C19.0813 23.8533 18.428 22.5 18.428 20.764C18.428 19.644 18.68 18.7387 19.184 18.048C19.7067 17.3573 20.472 16.76 21.48 16.256V16.144C20.6773 15.6027 20.0707 15.0333 19.66 14.436C19.268 13.8387 19.072 13.0267 19.072 12C19.072 10.8613 19.352 9.88133 19.912 9.06C20.472 8.22 21.2373 7.58533 22.208 7.156C23.1973 6.72667 24.3173 6.512 25.568 6.512C26.8187 6.512 27.9293 6.72667 28.9 7.156C29.8893 7.58533 30.664 8.22 31.224 9.06C31.784 9.88133 32.064 10.8613 32.064 12C32.064 13.0267 31.8587 13.8387 31.448 14.436C31.056 15.0333 30.4587 15.6027 29.656 16.144V16.256ZM22.908 12.364C22.908 13.0547 23.16 13.6427 23.664 14.128C24.168 14.5947 24.8027 14.828 25.568 14.828C26.3333 14.828 26.968 14.5947 27.472 14.128C27.976 13.6427 28.228 13.0547 28.228 12.364V12.056C28.228 11.3653 27.976 10.7867 27.472 10.32C26.968 9.83467 26.3333 9.592 25.568 9.592C24.8027 9.592 24.168 9.83467 23.664 10.32C23.16 10.7867 22.908 11.3653 22.908 12.056V12.364ZM22.6 20.624C22.6 21.408 22.88 22.0333 23.44 22.5C24 22.9667 24.7093 23.2 25.568 23.2C26.4267 23.2 27.136 22.9667 27.696 22.5C28.256 22.0333 28.536 21.408 28.536 20.624V20.176C28.536 19.392 28.256 18.7667 27.696 18.3C27.136 17.8333 26.4267 17.6 25.568 17.6C24.7093 17.6 24 17.8333 23.44 18.3C22.88 18.7667 22.6 19.392 22.6 20.176V20.624Z" fill="white"/>
</svg>
