<svg width="51" height="34" viewBox="0 0 51 34" fill="none" xmlns="http://www.w3.org/2000/svg">
<rect x="0.5" y="3.5" width="50" height="30" rx="4.5" fill="#453939" fill-opacity="0.41" stroke="white"/>
<path d="M25.54 22.948C26.0253 22.948 26.5013 22.8173 26.968 22.556C27.4347 22.2947 27.8173 21.94 28.116 21.492C28.4147 21.044 28.564 20.5587 28.564 20.036V17.32C28.06 17.8613 27.4627 18.272 26.772 18.552C26.0813 18.832 25.372 18.972 24.644 18.972C23.4867 18.972 22.432 18.7387 21.48 18.272C20.5467 17.7867 19.8 17.1053 19.24 16.228C18.6987 15.332 18.428 14.296 18.428 13.12C18.428 11.7947 18.7267 10.6373 19.324 9.648C19.94 8.64 20.7707 7.86533 21.816 7.324C22.88 6.78267 24.056 6.512 25.344 6.512H25.736C27.0053 6.512 28.172 6.80133 29.236 7.38C30.3 7.94 31.14 8.74267 31.756 9.788C32.372 10.8147 32.68 11.9813 32.68 13.288V19.56C32.68 20.8107 32.372 21.9493 31.756 22.976C31.14 24.0027 30.3093 24.8147 29.264 25.412C28.2187 25.9907 27.0707 26.28 25.82 26.28H25.428C24.196 26.28 23.076 26.0373 22.068 25.552C21.06 25.048 20.2667 24.32 19.688 23.368C19.1093 22.3973 18.82 21.2587 18.82 19.952H22.684C22.684 20.792 22.9453 21.5013 23.468 22.08C24.0093 22.6587 24.7 22.948 25.54 22.948ZM22.488 13.204C22.488 14.044 22.768 14.7347 23.328 15.276C23.9067 15.8173 24.6347 16.088 25.512 16.088C26.352 16.088 27.0707 15.8173 27.668 15.276C28.2653 14.716 28.564 14.0253 28.564 13.204V12.616C28.564 11.776 28.2747 11.0853 27.696 10.544C27.1173 10.0027 26.3893 9.732 25.512 9.732C24.672 9.732 23.9533 10.012 23.356 10.572C22.7773 11.1133 22.488 11.7947 22.488 12.616V13.204Z" fill="white"/>
</svg>
