<svg width="51" height="31" viewBox="0 0 51 31" fill="none" xmlns="http://www.w3.org/2000/svg">
<rect x="0.5" y="0.5" width="50" height="30" rx="4.5" fill="#453939" fill-opacity="0.41" stroke="white"/>
<path d="M14.64 8.28C15.7733 8.28 16.8 8.52 17.72 9C18.6533 9.48 19.3933 10.18 19.94 11.1C20.4867 12.02 20.76 13.1067 20.76 14.36V15.92C20.76 17.1733 20.4867 18.26 19.94 19.18C19.3933 20.1 18.6533 20.8 17.72 21.28C16.8 21.76 15.7733 22 14.64 22H9.44V8.28H14.64ZM12.54 19.54H14.64C15.4933 19.54 16.1867 19.2667 16.72 18.72C17.2533 18.16 17.52 17.3733 17.52 16.36V13.92C17.52 12.9067 17.2533 12.1267 16.72 11.58C16.1867 11.02 15.4933 10.74 14.64 10.74H12.54V19.54ZM23.1509 22V8.28H32.8109L32.4709 10.74H26.1909V13.74H32.0509V16.2H26.1909V19.54H32.5309L32.8709 22H23.1509ZM35.1041 22V8.28H38.2041V19.44H43.8441L44.1841 22H35.1041Z" fill="white"/>
</svg>
