<svg width="104" height="48" viewBox="0 0 104 48" fill="none" xmlns="http://www.w3.org/2000/svg">
<mask id="path-1-inside-1_47_922" fill="white">
<path fill-rule="evenodd" clip-rule="evenodd" d="M103.219 26.8513C74.2244 54.3469 28.4259 53.8817 3.04829e-05 25.4558L25.4559 -2.65725e-06C39.8214 14.3655 62.8273 14.8248 77.7452 1.37763L103.219 26.8513Z"/>
</mask>
<path fill-rule="evenodd" clip-rule="evenodd" d="M103.219 26.8513C74.2244 54.3469 28.4259 53.8817 3.04829e-05 25.4558L25.4559 -2.65725e-06C39.8214 14.3655 62.8273 14.8248 77.7452 1.37763L103.219 26.8513Z" fill="black"/>
<path d="M3.04829e-05 25.4558L-0.707076 24.7487L-1.41418 25.4558L-0.707076 26.1629L3.04829e-05 25.4558ZM103.219 26.8513L103.907 27.5769L104.652 26.8703L103.926 26.1442L103.219 26.8513ZM25.4559 -2.65725e-06L26.163 -0.707109L25.4559 -1.41422L24.7488 -0.707109L25.4559 -2.65725e-06ZM77.7452 1.37763L78.4523 0.670527L77.7809 -0.000863642L77.0757 0.63486L77.7452 1.37763ZM-0.707076 26.1629C28.1031 54.9731 74.5203 55.4444 103.907 27.5769L102.531 26.1257C73.9285 53.2494 28.7488 52.7904 0.707137 24.7487L-0.707076 26.1629ZM24.7488 -0.707109L-0.707076 24.7487L0.707137 26.1629L26.163 0.707104L24.7488 -0.707109ZM77.0757 0.63486C62.5509 13.7275 40.1503 13.2802 26.163 -0.707109L24.7488 0.707104C39.4926 15.4509 63.1036 15.922 78.4147 2.12041L77.0757 0.63486ZM103.926 26.1442L78.4523 0.670527L77.0381 2.08474L102.512 27.5584L103.926 26.1442Z" fill="white" mask="url(#path-1-inside-1_47_922)"/>
<path d="M52 35L44.2058 24.5H59.7942L52 35Z" fill="#D9D9D9"/>
</svg>
