<svg width="67" height="62" viewBox="0 0 67 62" fill="none" xmlns="http://www.w3.org/2000/svg">
<path d="M41.1383 4.62134C29.7506 15.719 20.6354 22.077 5.60919 29.4301C3.08302 30.6663 2.22834 33.8574 3.83275 36.1487L16.8725 54.7714C18.0818 56.4984 20.3281 57.1551 22.2579 56.3273C39.7682 48.8153 49.2221 42.326 60.8689 29.3797C62.24 27.8556 62.3543 25.5801 61.1712 23.8904L48.1007 5.22384C46.4867 2.91877 43.1669 2.64442 41.1383 4.62134Z" fill="#D9D9D9" fill-opacity="0.55" stroke="white"/>
<path d="M25.2822 42.7046L19.7736 34.8375L25.3127 30.9589L26.1054 32.506L22.5044 35.0275L23.7089 36.7477L27.0691 34.3949L28.0568 35.8055L24.6966 38.1583L26.0377 40.0735L29.6731 37.5279L30.8557 38.802L25.2822 42.7046ZM30.2775 33.0541L25.2514 31.0019L27.3271 29.5484L30.5043 30.9128L30.5502 30.8807C30.5056 29.1572 30.4519 27.9985 30.3891 27.4044L32.3043 26.0634C32.3173 26.4074 32.3434 27.0956 32.3826 28.1278C32.424 29.147 32.4586 30.2622 32.4863 31.4734C33.5866 31.9221 34.6896 32.3746 35.7953 32.8309C36.8957 33.2796 37.6485 33.5899 38.0538 33.7619L35.978 35.2153L32.2675 33.6262L32.2216 33.6583C32.3007 35.8703 32.3678 37.2191 32.4229 37.7046L30.5077 39.0456L30.2775 33.0541ZM32.5704 25.877L36.1943 23.3395L37.182 24.7501L36.2646 25.3925L39.7978 30.4385L40.7152 29.7961L41.7029 31.2067L38.079 33.7442L37.0913 32.3336L38.0202 31.6832L34.487 26.6372L33.5581 27.2876L32.5704 25.877ZM41.2949 21.8873L45.8078 28.3324L44.0532 29.561L39.5403 23.1159L37.304 24.6818L36.3083 23.2597L42.524 18.9074L43.5197 20.3295L41.2949 21.8873Z" fill="white"/>
</svg>
