<svg width="67" height="62" viewBox="0 0 67 62" fill="none" xmlns="http://www.w3.org/2000/svg">
<path d="M24.8694 4.62134C36.257 15.719 45.3723 22.077 60.3984 29.4301C62.9246 30.6663 63.7793 33.8574 62.1749 36.1487L49.1352 54.7714C47.9259 56.4984 45.6795 57.1551 43.7497 56.3273C26.2394 48.8153 16.7855 42.326 5.13876 29.3797C3.76763 27.8556 3.65329 25.5801 4.83645 23.8904L17.9069 5.22384C19.5209 2.91877 22.8408 2.64442 24.8694 4.62134Z" fill="#D9D9D9" fill-opacity="0.55" stroke="white"/>
<path d="M18.8096 25.9543L21.1062 22.6744L18.3883 20.7713L16.0917 24.0511L14.3141 22.8065L19.8227 14.9394L21.5888 16.176L19.4047 19.2953L22.1341 21.2065L24.3182 18.0871L26.0843 19.3238L20.5757 27.1909L18.8096 25.9543ZM30.5446 29.1465C30.0414 29.8651 29.4483 30.3785 28.7655 30.6865C28.0826 30.9946 27.3773 31.0989 26.6494 30.9994C25.9291 30.9052 25.2441 30.6306 24.5942 30.1756C23.9443 29.7205 23.4482 29.168 23.1057 28.5181C22.7709 27.8735 22.6315 27.1776 22.6874 26.4306C22.7433 25.6836 23.0229 24.9507 23.5261 24.2321L24.313 23.1082C24.8162 22.3895 25.4093 21.8762 26.0921 21.5681C26.775 21.2601 27.4765 21.1531 28.1968 21.2473C28.9247 21.3468 29.6136 21.624 30.2634 22.0791C30.9133 22.5341 31.4056 23.084 31.7404 23.7286C32.0829 24.3785 32.2262 25.077 32.1702 25.8241C32.1143 26.5711 31.8347 27.3039 31.3315 28.0226L30.5446 29.1465ZM29.6504 26.4694C30.0572 25.8884 30.2175 25.3341 30.1311 24.8065C30.0502 24.2712 29.765 23.8323 29.2757 23.4897C28.7864 23.147 28.2764 23.0292 27.7458 23.1362C27.2205 23.2355 26.7544 23.5757 26.3475 24.1568L25.2073 25.7852C24.8004 26.3663 24.6375 26.9244 24.7184 27.4597C24.8048 27.9873 25.0926 28.4224 25.5819 28.765C26.0712 29.1076 26.5785 29.2293 27.1038 29.1299C27.6345 29.023 28.1032 28.679 28.5101 28.0979L29.6504 26.4694ZM36.4179 38.2838L40.4731 32.4924L40.4158 32.4522L34.3193 36.8143L32.4614 35.5134L34.4753 28.2926L34.418 28.2525L30.3628 34.0439L28.7572 32.9197L34.2659 25.0525L37.1214 27.052L35.3187 33.5319L35.3646 33.564L40.8371 29.6538L43.6927 31.6533L38.184 39.5204L36.4179 38.2838ZM39.0418 40.121L44.5504 32.2539L50.0896 36.1324L48.9069 37.4065L45.3059 34.885L44.1014 36.6052L47.4616 38.9581L46.4739 40.3686L43.1137 38.0158L41.7727 39.931L45.4081 42.4765L44.6153 44.0236L39.0418 40.121Z" fill="white"/>
</svg>
