<svg width="67" height="62" viewBox="0 0 67 62" fill="none" xmlns="http://www.w3.org/2000/svg">
<path d="M41.1383 56.8511C29.7506 45.7535 20.6354 39.3954 5.60919 32.0423C3.08302 30.8061 2.22834 27.615 3.83275 25.3237L16.8725 6.70106C18.0818 4.97398 20.3281 4.31728 22.2579 5.14516C39.7682 12.6572 49.2221 19.1464 60.8689 32.0927C62.24 33.6168 62.3543 35.8923 61.1712 37.5821L48.1007 56.2486C46.4867 58.5536 43.1669 58.828 41.1383 56.8511Z" fill="#D9D9D9" fill-opacity="0.55" stroke="white"/>
<path d="M25.6286 18.36L29.2526 20.8975L28.2649 22.3081L27.3474 21.6657L23.8142 26.7117L24.7316 27.3541L23.7439 28.7646L20.12 26.2271L21.1077 24.8166L22.0366 25.467L25.5699 20.421L24.6409 19.7706L25.6286 18.36ZM29.4345 27.3485C29.436 27.1673 29.4471 26.9073 29.4678 26.5686C29.4939 26.2222 29.5107 25.9947 29.5184 25.8862L29.4484 25.8884L26.2203 30.4986L24.6033 29.3664L30.112 21.4993L31.6143 22.5512L31.5378 27.9326L31.5045 28.7125C31.4769 29.0122 31.4627 29.2358 31.4619 29.3834L31.5204 29.3731L34.7565 24.7514L36.3736 25.8837L30.8649 33.7508L29.3626 32.6989L29.4345 27.3485ZM41.3883 31.4972L37.9938 29.1203L36.6768 31.0011L39.7274 33.1371L38.7397 34.5477L35.6891 32.4117L33.4728 35.5769L31.7297 34.3563L37.2383 26.4892L42.5595 30.2151L41.3883 31.4972ZM46.493 39.669C45.9898 40.3877 45.3968 40.9011 44.714 41.2091C44.0311 41.5172 43.3257 41.6214 42.5978 41.5219C41.8776 41.4278 41.1925 41.1532 40.5427 40.6981C39.8928 40.2431 39.3966 39.6906 39.0542 39.0406C38.7194 38.396 38.5799 37.7002 38.6358 36.9532C38.6918 36.2061 38.9713 35.4733 39.4746 34.7546L40.2615 33.6308C40.7647 32.9121 41.3577 32.3987 42.0406 32.0907C42.7234 31.7826 43.425 31.6757 44.1452 31.7698C44.8731 31.8693 45.562 32.1466 46.2119 32.6016C46.8617 33.0567 47.3541 33.6065 47.6889 34.2511C48.0314 34.9011 48.1746 35.5996 48.1187 36.3466C48.0628 37.0936 47.7832 37.8265 47.28 38.5452L46.493 39.669ZM45.5988 36.992C46.0057 36.4109 46.1659 35.8566 46.0796 35.329C45.9986 34.7938 45.7135 34.3548 45.2242 34.0122C44.7349 33.6696 44.2249 33.5518 43.6942 33.6588C43.1689 33.7581 42.7029 34.0983 42.296 34.6793L41.1557 36.3078C40.7489 36.8889 40.5859 37.447 40.6669 37.9822C40.7532 38.5098 41.041 38.9449 41.5304 39.2876C42.0197 39.6302 42.527 39.7518 43.0523 39.6525C43.5829 39.5455 44.0517 39.2015 44.4585 38.6205L45.5988 36.992Z" fill="white"/>
</svg>
