<svg width="67" height="62" viewBox="0 0 67 62" fill="none" xmlns="http://www.w3.org/2000/svg">
<path d="M24.8694 56.8511C36.257 45.7535 45.3723 39.3954 60.3984 32.0423C62.9246 30.8061 63.7793 27.615 62.1749 25.3237L49.1352 6.70106C47.9259 4.97398 45.6795 4.31728 43.7497 5.14516C26.2394 12.6572 16.7855 19.1464 5.13876 32.0927C3.76763 33.6168 3.65329 35.8923 4.83645 37.5821L17.9069 56.2486C19.5209 58.5536 22.8408 58.828 24.8694 56.8511Z" fill="#D9D9D9" fill-opacity="0.55" stroke="white"/>
<path d="M28.9429 40.0761L24.8877 34.2847L24.8304 34.3249L26.8442 41.5456L24.9864 42.8465L18.8899 38.4844L18.8326 38.5246L22.8877 44.316L21.2822 45.4402L15.7736 37.5731L18.6291 35.5736L24.1017 39.4838L24.1475 39.4517L22.3448 32.9718L25.2004 30.9723L30.709 38.8395L28.9429 40.0761ZM31.5668 38.2389L26.0582 30.3717L31.5973 26.4932L32.39 28.0403L28.789 30.5617L29.9935 32.2819L33.3537 29.9291L34.3414 31.3397L30.9812 33.6925L32.3222 35.6077L35.9576 33.0622L37.1403 34.3362L31.5668 38.2389ZM37.3741 28.7718C37.2044 28.7084 36.9639 28.609 36.6527 28.4737C36.3361 28.3308 36.1281 28.2371 36.0287 28.1928L36.0069 28.2593L39.235 32.8695L37.618 34.0017L32.1094 26.1346L33.6117 25.0827L38.6424 26.995L39.3638 27.2931C39.6361 27.4215 39.8414 27.5114 39.9798 27.5626L39.9901 27.5041L36.754 22.8824L38.371 21.7502L43.8796 29.6173L42.3773 30.6693L37.3741 28.7718ZM49.1522 22.1996C49.5162 22.7195 49.7151 23.2639 49.7488 23.8327C49.7826 24.4016 49.6488 24.951 49.3476 25.4809C49.0465 26.0108 48.6015 26.4819 48.0128 26.8941L47.6917 27.119C47.103 27.5312 46.5082 27.7882 45.9072 27.8899C45.3139 27.9864 44.7557 27.9215 44.2327 27.6952C43.7096 27.469 43.2661 27.0959 42.9021 26.576L39.144 21.2089L40.9101 19.9723L44.6441 25.305C44.8957 25.6643 45.2306 25.8741 45.6489 25.9345C46.0748 25.9895 46.4865 25.8778 46.8841 25.5994C47.2893 25.3157 47.5339 24.9735 47.618 24.5728C47.7043 24.1591 47.619 23.7688 47.362 23.4018L43.628 18.0691L45.3941 16.8325L49.1522 22.1996Z" fill="white"/>
</svg>
