<svg width="43" height="29" viewBox="0 0 43 29" fill="none" xmlns="http://www.w3.org/2000/svg">
<rect x="0.5" y="0.5" width="42" height="28" rx="4.5" fill="black" stroke="white"/>
<path d="M15.36 19V11.93H15.29L12.798 19H10.53L8.038 11.93H7.968V19H6.008V9.396H9.494L11.734 15.738H11.79L14.03 9.396H17.516V19H15.36ZM25.2692 17.32C25.2692 17.46 25.3112 17.5673 25.3952 17.642C25.4792 17.7073 25.5725 17.74 25.6752 17.74C25.7685 17.74 25.8712 17.7213 25.9832 17.684C26.0952 17.6467 26.1838 17.614 26.2492 17.586V18.846C25.9038 19.042 25.4932 19.14 25.0172 19.14C24.0838 19.14 23.5425 18.7993 23.3932 18.118C22.8052 18.7993 22.0865 19.14 21.2372 19.14C20.5092 19.14 19.9072 18.944 19.4312 18.552C18.9645 18.16 18.7312 17.5907 18.7312 16.844V11.846H20.7752V16.396C20.7752 16.76 20.8778 17.0633 21.0832 17.306C21.2978 17.5393 21.5685 17.656 21.8952 17.656C22.2592 17.656 22.5718 17.5207 22.8332 17.25C23.0945 16.97 23.2252 16.634 23.2252 16.242V11.846H25.2692V17.32ZM30.5094 18.874C30.3228 18.9487 30.0754 19.0093 29.7674 19.056C29.4688 19.112 29.2028 19.14 28.9694 19.14C28.2508 19.14 27.7094 18.986 27.3454 18.678C26.9814 18.37 26.7994 17.8567 26.7994 17.138V13.246H26.0154V11.846H26.8694L27.5834 9.564H28.8434V11.846H30.5094V13.246H28.8434V16.788C28.8434 17.1613 28.9134 17.4133 29.0534 17.544C29.2028 17.6747 29.3988 17.74 29.6414 17.74C29.7534 17.74 29.8981 17.7213 30.0754 17.684C30.2528 17.6467 30.3974 17.6047 30.5094 17.558V18.874ZM37.7627 16.326C37.7627 16.9513 37.6134 17.4787 37.3147 17.908C37.0161 18.328 36.6194 18.6407 36.1247 18.846C35.6394 19.042 35.1074 19.14 34.5287 19.14H34.3047C33.6421 19.14 33.0447 19 32.5127 18.72C31.9807 18.44 31.5607 18.0387 31.2527 17.516C30.9541 16.984 30.8047 16.354 30.8047 15.626V15.22C30.8047 14.5013 30.9587 13.876 31.2667 13.344C31.5747 12.812 31.9901 12.406 32.5127 12.126C33.0447 11.846 33.6421 11.706 34.3047 11.706H34.5287C35.1074 11.706 35.6441 11.8273 36.1387 12.07C36.6334 12.3033 37.0301 12.6487 37.3287 13.106C37.6274 13.554 37.7767 14.086 37.7767 14.702V15.766H32.8767V16.102C32.8767 16.5687 33.0121 16.9607 33.2827 17.278C33.5627 17.586 33.9407 17.74 34.4167 17.74C34.8461 17.74 35.1821 17.6233 35.4247 17.39C35.6767 17.1473 35.8027 16.7927 35.8027 16.326H37.7627ZM34.3187 13.106C33.9081 13.106 33.5721 13.2507 33.3107 13.54C33.0587 13.8293 32.9141 14.198 32.8767 14.646H35.7047C35.7047 14.17 35.5927 13.7967 35.3687 13.526C35.1541 13.246 34.8041 13.106 34.3187 13.106Z" fill="white"/>
</svg>
