<svg width="68" height="68" viewBox="0 0 68 68" fill="none" xmlns="http://www.w3.org/2000/svg">
<circle cx="34" cy="34" r="33.5" fill="black" stroke="white"/>
<path d="M32.48 34.768C32.48 36.5227 32.0973 38.044 31.332 39.332C30.5667 40.62 29.5307 41.6 28.224 42.272C26.936 42.944 25.4987 43.28 23.912 43.28C22.3253 43.28 20.8787 42.944 19.572 42.272C18.284 41.6 17.2573 40.62 16.492 39.332C15.7267 38.044 15.344 36.5227 15.344 34.768V32.024C15.344 30.2693 15.7267 28.748 16.492 27.46C17.2573 26.172 18.284 25.192 19.572 24.52C20.8787 23.848 22.3253 23.512 23.912 23.512C25.4987 23.512 26.936 23.848 28.224 24.52C29.5307 25.192 30.5667 26.172 31.332 27.46C32.0973 28.748 32.48 30.2693 32.48 32.024V34.768ZM27.944 31.408C27.944 29.9893 27.5707 28.8973 26.824 28.132C26.0773 27.348 25.1067 26.956 23.912 26.956C22.7173 26.956 21.7467 27.348 21 28.132C20.2533 28.8973 19.88 29.9893 19.88 31.408V35.384C19.88 36.8027 20.2533 37.904 21 38.688C21.7467 39.4533 22.7173 39.836 23.912 39.836C25.1067 39.836 26.0773 39.4533 26.824 38.688C27.5707 37.904 27.944 36.8027 27.944 35.384V31.408ZM40.0682 23.792V32.584L46.9842 23.792H51.8282L45.3602 31.884C46.9469 34.5347 47.8616 36.0653 48.1042 36.476L52.0242 43H47.1242L42.5602 35.216L40.0682 37.988V43H35.8402V23.792H40.0682Z" fill="white"/>
</svg>
