<svg width="102" height="46" viewBox="0 0 102 46" fill="none" xmlns="http://www.w3.org/2000/svg">
<mask id="path-1-inside-1_47_923" fill="white">
<path fill-rule="evenodd" clip-rule="evenodd" d="M2.14577e-06 20.2786C28.2698 -6.52971 72.514 -6.75758 101.055 19.595L75.5592 45.0911C61.1307 32.7531 39.6502 32.9735 25.4737 45.7523L2.14577e-06 20.2786Z"/>
</mask>
<path fill-rule="evenodd" clip-rule="evenodd" d="M2.14577e-06 20.2786C28.2698 -6.52971 72.514 -6.75758 101.055 19.595L75.5592 45.0911C61.1307 32.7531 39.6502 32.9735 25.4737 45.7523L2.14577e-06 20.2786Z" fill="black"/>
<path d="M101.055 19.595L101.762 20.3021L102.498 19.5662L101.734 18.8603L101.055 19.595ZM2.14577e-06 20.2786L-0.6881 19.553L-1.43322 20.2596L-0.707105 20.9857L2.14577e-06 20.2786ZM75.5592 45.0911L74.9093 45.8511L75.6122 46.4523L76.2663 45.7982L75.5592 45.0911ZM25.4737 45.7523L24.7666 46.4594L25.438 47.1308L26.1432 46.4951L25.4737 45.7523ZM101.734 18.8603C72.806 -7.84901 27.9642 -7.61812 -0.6881 19.553L0.688105 21.0042C28.5753 -5.44129 72.222 -5.66616 100.377 20.3297L101.734 18.8603ZM76.2663 45.7982L101.762 20.3021L100.348 18.8879L74.8521 44.384L76.2663 45.7982ZM26.1432 46.4951C39.9457 34.0534 60.8615 33.8387 74.9093 45.8511L76.2091 44.3311C61.3999 31.6675 39.3547 31.8935 24.8041 45.0095L26.1432 46.4951ZM-0.707105 20.9857L24.7666 46.4594L26.1808 45.0452L0.707109 19.5715L-0.707105 20.9857Z" fill="white" mask="url(#path-1-inside-1_47_923)"/>
<path d="M51 12L58.7942 22.5H43.2058L51 12Z" fill="#D9D9D9"/>
</svg>
