<svg width="42" height="54" viewBox="0 0 42 54" fill="none" xmlns="http://www.w3.org/2000/svg">
<mask id="path-1-inside-1_47_973" fill="white">
<path fill-rule="evenodd" clip-rule="evenodd" d="M42 54H0V21C0 9.40202 9.40202 0 21 0C32.598 0 42 9.40202 42 21V54Z"/>
</mask>
<path fill-rule="evenodd" clip-rule="evenodd" d="M42 54H0V21C0 9.40202 9.40202 0 21 0C32.598 0 42 9.40202 42 21V54Z" fill="black"/>
<path d="M42 54V55H43V54H42ZM0 54H-1V55H0V54ZM42 53H0V55H42V53ZM1 54V21H-1V54H1ZM1 21C1 9.95431 9.95431 1 21 1V-1C8.84974 -1 -1 8.84974 -1 21H1ZM21 1C32.0457 1 41 9.95431 41 21H43C43 8.84974 33.1503 -1 21 -1V1ZM41 21V54H43V21H41Z" fill="white" mask="url(#path-1-inside-1_47_973)"/>
<path d="M12.62 30.256L14.818 23.396H16.89L13.726 33H11.248L8.098 23.396H10.366L12.55 30.256H12.62ZM23.4522 29.626C23.4522 30.3447 23.2982 30.97 22.9902 31.502C22.6915 32.034 22.2762 32.44 21.7442 32.72C21.2122 33 20.6148 33.14 19.9522 33.14H19.7282C19.0655 33.14 18.4682 33 17.9362 32.72C17.4042 32.44 16.9842 32.034 16.6762 31.502C16.3775 30.97 16.2282 30.3447 16.2282 29.626V29.22C16.2282 28.5013 16.3775 27.876 16.6762 27.344C16.9842 26.812 17.4042 26.406 17.9362 26.126C18.4682 25.846 19.0655 25.706 19.7282 25.706H19.9522C20.6148 25.706 21.2122 25.846 21.7442 26.126C22.2762 26.406 22.6915 26.812 22.9902 27.344C23.2982 27.876 23.4522 28.5013 23.4522 29.22V29.626ZM21.3802 28.856C21.3802 28.2867 21.2355 27.8527 20.9462 27.554C20.6662 27.2553 20.2975 27.106 19.8402 27.106C19.3828 27.106 19.0095 27.2553 18.7202 27.554C18.4402 27.8527 18.3002 28.2867 18.3002 28.856V29.99C18.3002 30.5593 18.4402 30.9933 18.7202 31.292C19.0095 31.5907 19.3828 31.74 19.8402 31.74C20.2975 31.74 20.6662 31.5907 20.9462 31.292C21.2355 30.9933 21.3802 30.5593 21.3802 29.99V28.856ZM24.272 33V22.92H26.316V33H24.272ZM31.4862 28.688H34.3422V30.172H31.4862V33H30.0162V30.172H27.1742V28.688H30.0162V25.846H31.4862V28.688Z" fill="white"/>
</svg>
