<svg width="59" height="37" viewBox="0 0 59 37" fill="none" xmlns="http://www.w3.org/2000/svg">
<rect x="1.5" y="1.5" width="56" height="34" rx="17" fill="white" fill-opacity="0.6" stroke="black" stroke-width="3"/>
<path d="M24.112 27C24.064 26.712 24.04 26.416 24.04 26.112C24.04 25.072 24.216 24.144 24.568 23.328C24.936 22.496 25.408 21.744 25.984 21.072C26.56 20.384 27.168 19.752 27.808 19.176C28.464 18.584 29.072 18.024 29.632 17.496C30.208 16.952 30.68 16.408 31.048 15.864C31.416 15.32 31.6 14.752 31.6 14.16C31.6 13.488 31.352 12.936 30.856 12.504C30.36 12.056 29.72 11.832 28.936 11.832C28.264 11.832 27.648 11.968 27.088 12.24C26.544 12.496 26.032 12.848 25.552 13.296L24.352 11.832C24.992 11.256 25.696 10.792 26.464 10.44C27.248 10.088 28.152 9.912 29.176 9.912C30.12 9.912 30.944 10.096 31.648 10.464C32.352 10.816 32.896 11.304 33.28 11.928C33.68 12.552 33.88 13.248 33.88 14.016C33.88 14.784 33.712 15.496 33.376 16.152C33.04 16.808 32.608 17.424 32.08 18C31.552 18.576 30.984 19.136 30.376 19.68C29.768 20.208 29.184 20.752 28.624 21.312C28.064 21.872 27.584 22.456 27.184 23.064C26.8 23.672 26.56 24.328 26.464 25.032H33.856V27H24.112Z" fill="black"/>
</svg>
