<svg width="59" height="37" viewBox="0 0 59 37" fill="none" xmlns="http://www.w3.org/2000/svg">
<rect x="1.5" y="1.5" width="56" height="34" rx="17" fill="white" fill-opacity="0.6" stroke="black" stroke-width="3"/>
<path d="M28.216 27.288C27.176 27.288 26.272 27.152 25.504 26.88C24.736 26.592 24.08 26.248 23.536 25.848L24.52 24.048C24.968 24.384 25.488 24.68 26.08 24.936C26.672 25.192 27.392 25.32 28.24 25.32C29.296 25.32 30.128 25.04 30.736 24.48C31.36 23.92 31.672 23.224 31.672 22.392C31.672 21.8 31.512 21.264 31.192 20.784C30.872 20.288 30.376 19.888 29.704 19.584C29.048 19.28 28.192 19.128 27.136 19.128H25.792V17.376H27.04C27.984 17.376 28.76 17.232 29.368 16.944C29.992 16.656 30.456 16.28 30.76 15.816C31.064 15.352 31.216 14.864 31.216 14.352C31.216 13.6 30.928 12.992 30.352 12.528C29.792 12.064 29.096 11.832 28.264 11.832C27.512 11.832 26.84 11.96 26.248 12.216C25.672 12.456 25.2 12.728 24.832 13.032L23.944 11.328C24.424 11.008 25.04 10.696 25.792 10.392C26.544 10.072 27.424 9.912 28.432 9.912C29.488 9.912 30.384 10.104 31.12 10.488C31.856 10.872 32.416 11.384 32.8 12.024C33.2 12.648 33.4 13.328 33.4 14.064C33.4 15.008 33.16 15.8 32.68 16.44C32.216 17.08 31.552 17.608 30.688 18.024C31.696 18.408 32.48 18.976 33.04 19.728C33.616 20.464 33.904 21.328 33.904 22.32C33.904 23.152 33.696 23.952 33.28 24.72C32.88 25.472 32.256 26.088 31.408 26.568C30.576 27.048 29.512 27.288 28.216 27.288Z" fill="black"/>
</svg>
