<svg width="59" height="37" viewBox="0 0 59 37" fill="none" xmlns="http://www.w3.org/2000/svg">
<rect x="1.5" y="1.5" width="56" height="34" rx="17" fill="white" fill-opacity="0.6" stroke="black" stroke-width="3"/>
<path d="M28.48 27.288C27.504 27.288 26.664 27.184 25.96 26.976C25.256 26.752 24.616 26.44 24.04 26.04L25.168 24.192C25.616 24.512 26.112 24.784 26.656 25.008C27.2 25.216 27.816 25.32 28.504 25.32C29.576 25.32 30.44 25.016 31.096 24.408C31.752 23.784 32.08 22.992 32.08 22.032C32.08 21.04 31.736 20.232 31.048 19.608C30.376 18.968 29.408 18.648 28.144 18.648H25.168V10.2H33.472V12.144H27.208V16.704H28.408C29.656 16.704 30.72 16.92 31.6 17.352C32.496 17.784 33.176 18.384 33.64 19.152C34.12 19.92 34.36 20.8 34.36 21.792C34.36 22.864 34.112 23.816 33.616 24.648C33.136 25.464 32.456 26.112 31.576 26.592C30.696 27.056 29.664 27.288 28.48 27.288Z" fill="black"/>
</svg>
