<svg width="59" height="37" viewBox="0 0 59 37" fill="none" xmlns="http://www.w3.org/2000/svg">
<rect x="1.5" y="1.5" width="56" height="34" rx="17" fill="white" fill-opacity="0.6" stroke="black" stroke-width="3"/>
<path d="M29.32 27.288C28.104 27.288 27.048 27.08 26.152 26.664C25.256 26.248 24.56 25.688 24.064 24.984C23.584 24.264 23.344 23.472 23.344 22.608C23.344 21.568 23.624 20.664 24.184 19.896C24.76 19.128 25.656 18.48 26.872 17.952C26.024 17.488 25.368 16.952 24.904 16.344C24.456 15.72 24.232 14.952 24.232 14.04C24.232 13.224 24.448 12.512 24.88 11.904C25.312 11.28 25.896 10.792 26.632 10.44C27.384 10.088 28.216 9.912 29.128 9.912C30.12 9.912 30.992 10.096 31.744 10.464C32.496 10.816 33.08 11.304 33.496 11.928C33.928 12.552 34.144 13.248 34.144 14.016C34.144 14.992 33.896 15.784 33.4 16.392C32.904 17 32.24 17.512 31.408 17.928C32.592 18.424 33.496 19.048 34.12 19.8C34.744 20.536 35.056 21.424 35.056 22.464C35.056 23.424 34.808 24.272 34.312 25.008C33.816 25.728 33.136 26.288 32.272 26.688C31.408 27.088 30.424 27.288 29.32 27.288ZM29.44 17.136C30.144 16.896 30.752 16.528 31.264 16.032C31.792 15.536 32.056 14.936 32.056 14.232C32.056 13.496 31.776 12.888 31.216 12.408C30.656 11.928 29.96 11.688 29.128 11.688C28.312 11.688 27.64 11.904 27.112 12.336C26.584 12.752 26.32 13.304 26.32 13.992C26.32 14.68 26.6 15.304 27.16 15.864C27.736 16.424 28.496 16.848 29.44 17.136ZM29.344 25.368C30.368 25.368 31.208 25.104 31.864 24.576C32.52 24.032 32.848 23.344 32.848 22.512C32.848 21.744 32.504 21.056 31.816 20.448C31.144 19.84 30.208 19.32 29.008 18.888C28.4 19.032 27.832 19.256 27.304 19.56C26.776 19.864 26.352 20.24 26.032 20.688C25.712 21.136 25.552 21.648 25.552 22.224C25.552 22.816 25.712 23.352 26.032 23.832C26.368 24.312 26.824 24.688 27.4 24.96C27.976 25.232 28.624 25.368 29.344 25.368Z" fill="black"/>
</svg>
