<svg width="59" height="37" viewBox="0 0 59 37" fill="none" xmlns="http://www.w3.org/2000/svg">
<rect x="1.5" y="1.5" width="56" height="34" rx="17" fill="white" fill-opacity="0.6" stroke="black" stroke-width="3"/>
<path d="M28.336 27.288C27.408 27.288 26.576 27.128 25.84 26.808C25.104 26.472 24.432 26.008 23.824 25.416L25.24 23.808C26.2 24.816 27.272 25.32 28.456 25.32C29.112 25.32 29.72 25.104 30.28 24.672C30.84 24.224 31.288 23.528 31.624 22.584C31.976 21.64 32.152 20.424 32.152 18.936C31.656 19.384 31.104 19.76 30.496 20.064C29.888 20.368 29.232 20.52 28.528 20.52C27.68 20.52 26.872 20.328 26.104 19.944C25.352 19.544 24.736 18.968 24.256 18.216C23.792 17.448 23.56 16.504 23.56 15.384C23.56 14.376 23.784 13.456 24.232 12.624C24.696 11.792 25.336 11.136 26.152 10.656C26.968 10.16 27.912 9.912 28.984 9.912C29.816 9.912 30.528 10.04 31.12 10.296C31.712 10.552 32.208 10.888 32.608 11.304C32.992 11.704 33.312 12.176 33.568 12.72C33.84 13.248 34.04 13.952 34.168 14.832C34.296 15.696 34.36 16.824 34.36 18.216C34.36 20.344 34.096 22.08 33.568 23.424C33.04 24.752 32.32 25.728 31.408 26.352C30.512 26.976 29.488 27.288 28.336 27.288ZM28.888 18.744C29.496 18.744 30.08 18.592 30.64 18.288C31.216 17.984 31.72 17.616 32.152 17.184V16.464C32.152 14.944 31.856 13.792 31.264 13.008C30.688 12.224 29.904 11.832 28.912 11.832C28 11.832 27.224 12.152 26.584 12.792C25.96 13.416 25.648 14.248 25.648 15.288C25.648 16.008 25.8 16.632 26.104 17.16C26.408 17.672 26.8 18.064 27.28 18.336C27.776 18.608 28.312 18.744 28.888 18.744Z" fill="black"/>
</svg>
