<svg width="67" height="67" viewBox="0 0 67 67" fill="none" xmlns="http://www.w3.org/2000/svg">
<path d="M26.0042 20.7311C26.6831 21.4099 27.0649 22.1029 27.1498 22.81C27.2417 23.51 27.0296 24.1181 26.5134 24.6343C25.6861 25.4616 24.7703 25.6985 23.7663 25.345C24.3673 26.5824 24.24 27.6289 23.3844 28.4845C22.741 29.128 21.9278 29.3896 20.9449 29.2694C19.9691 29.1421 19.064 28.6613 18.2296 27.8269C17.7912 27.3885 17.176 26.6955 16.3841 25.748L19.0887 23.2979L23.7026 18.4295L26.0042 20.7311ZM21.698 24.7616L20.8388 23.9025L20.4358 24.2843L18.7812 26.0874C19.1559 26.5329 19.4529 26.8652 19.6721 27.0844C20.0469 27.4592 20.4287 27.6572 20.8176 27.6784C21.2207 27.6996 21.6025 27.5299 21.9631 27.1693C22.3238 26.8087 22.4864 26.4339 22.451 26.045C22.4157 25.6561 22.1647 25.2283 21.698 24.7616ZM24.5511 21.4205L24.0314 20.9008L21.8995 22.9054L22.5889 23.5949C22.9495 23.9555 23.3208 24.1358 23.7026 24.1358C24.0915 24.1287 24.4663 23.9449 24.8269 23.5843C25.4562 22.9549 25.3643 22.2337 24.5511 21.4205ZM26.7688 36.2388L28.3173 33.6508L25.7823 31.1158L23.2049 32.5689L21.9534 31.1052L25.4641 29.4611L31.4463 26.3216L33.4827 28.0823L30.3114 33.9902L28.5294 37.5328L26.7688 36.2388ZM31.1493 28.5066L31.0114 28.3687L27.2354 30.3203L29.1234 32.2083L31.1493 28.5066ZM31.4948 41.0921C30.7099 40.3072 30.3776 39.3173 30.4978 38.1223C30.618 36.9273 31.1554 35.8525 32.11 34.8979C33.2767 33.7311 34.5813 33.07 36.0238 32.9144C37.4734 32.7659 38.6684 33.1619 39.6089 34.1024C39.9766 34.4701 40.2771 34.8484 40.5104 35.2373C40.7579 35.6262 40.9099 35.9267 40.9665 36.1388L41.0408 36.4464L38.8452 37.1995C38.824 36.8954 38.725 36.5348 38.5482 36.1176C38.3785 35.6934 38.1734 35.361 37.933 35.1206C37.4451 34.6327 36.8512 34.4418 36.1511 34.5478C35.4582 34.661 34.7369 35.0923 33.9874 35.8418C33.2449 36.5843 32.7853 37.348 32.6085 38.1329C32.4388 38.9107 32.6156 39.5612 33.1388 40.0845C33.4783 40.4239 33.8919 40.6254 34.3798 40.6891C34.8677 40.7527 35.345 40.6643 35.8117 40.4239L36.1829 41.8134C35.3273 42.2023 34.4823 42.3331 33.648 42.2058C32.8206 42.0715 32.1029 41.7002 31.4948 41.0921ZM44.0719 38.6927L40.4975 42.0338L46.6387 41.3019L46.9994 43.105L41.7279 43.4975L41.2506 49.1508L39.0444 48.6417L40.1157 42.3944L39.3096 43.1581L36.6791 46.0431L35.1942 44.5582L37.8989 42.108L42.3006 37.4517L44.0719 38.6927Z" fill="black"/>
<rect x="40.7819" y="64.8235" width="54.6743" height="34" rx="17" transform="rotate(-135 40.7819 64.8235)" fill="white" fill-opacity="0.6" stroke="black" stroke-width="3"/>
</svg>
