<svg width="60" height="65" viewBox="0 0 60 65" fill="none" xmlns="http://www.w3.org/2000/svg">
<mask id="path-1-inside-1_27_39" fill="white">
<path fill-rule="evenodd" clip-rule="evenodd" d="M2.13568 0L0 42.5C0 54.6503 9.84974 64.5 22 64.5H26.4476C39.4412 64.5 50.5102 55.0613 52.5631 42.2309L59.32 0H2.13568ZM13.26 13V3.228C13.6427 3.18133 14.0627 3.14867 14.52 3.13C14.9867 3.102 15.4673 3.088 15.962 3.088C16.774 3.088 17.4647 3.21867 18.034 3.48C18.6033 3.732 19.0373 4.082 19.336 4.53C19.6347 4.978 19.784 5.49133 19.784 6.07C19.784 6.77 19.6113 7.36267 19.266 7.848C18.9207 8.33333 18.44 8.70667 17.824 8.968C17.208 9.22 16.494 9.346 15.682 9.346C15.29 9.346 14.926 9.332 14.59 9.304V13H13.26ZM15.85 8.24C16.6807 8.24 17.3247 8.05333 17.782 7.68C18.2393 7.30667 18.468 6.80733 18.468 6.182C18.468 5.57533 18.2487 5.09467 17.81 4.74C17.3713 4.38533 16.746 4.208 15.934 4.208C15.682 4.208 15.444 4.21267 15.22 4.222C14.996 4.23133 14.786 4.24533 14.59 4.264V8.17C14.7393 8.18867 14.9213 8.20733 15.136 8.226C15.3507 8.23533 15.5887 8.24 15.85 8.24ZM27.2948 13.14L26.2028 10.34H21.6668L20.5748 13.112L19.4408 12.65L23.2768 3.2H24.7328L28.5128 12.65L27.2948 13.14ZM22.0868 9.22H25.7688L23.9348 4.516L22.0868 9.22ZM32.9849 13.168C32.2289 13.168 31.5569 12.972 30.9689 12.58C30.3809 12.188 29.9189 11.6327 29.5829 10.914C29.2469 10.186 29.0789 9.332 29.0789 8.352C29.0789 7.30667 29.2562 6.38733 29.6109 5.594C29.9656 4.79133 30.4742 4.166 31.1369 3.718C31.8089 3.26067 32.6162 3.032 33.5589 3.032C34.1656 3.032 34.7069 3.10667 35.1829 3.256C35.6589 3.40533 36.1069 3.59667 36.5269 3.83L36.0369 4.936C35.6449 4.72133 35.2436 4.544 34.8329 4.404C34.4316 4.264 33.9836 4.194 33.4889 4.194C32.9009 4.194 32.3782 4.35267 31.9209 4.67C31.4636 4.978 31.0996 5.43533 30.8289 6.042C30.5676 6.64867 30.4369 7.39067 30.4369 8.268C30.4369 9.052 30.5582 9.724 30.8009 10.284C31.0436 10.8347 31.3796 11.2593 31.8089 11.558C32.2382 11.8567 32.7329 12.006 33.2929 12.006C33.8156 12.006 34.2776 11.8987 34.6789 11.684C35.0896 11.46 35.4116 11.2313 35.6449 10.998V8.856H33.6149V7.806H36.9049V13H35.7289V12.02C35.4022 12.3093 35.0056 12.5753 34.5389 12.818C34.0722 13.0513 33.5542 13.168 32.9849 13.168ZM39.0725 13V3.2H44.9525V4.348H40.4025V7.33H44.3225V8.45H40.4025V11.852H44.9525V13H39.0725ZM25.5 53L36.3253 34.25H14.6747L25.5 53Z"/>
</mask>
<path fill-rule="evenodd" clip-rule="evenodd" d="M2.13568 0L0 42.5C0 54.6503 9.84974 64.5 22 64.5H26.4476C39.4412 64.5 50.5102 55.0613 52.5631 42.2309L59.32 0H2.13568ZM13.26 13V3.228C13.6427 3.18133 14.0627 3.14867 14.52 3.13C14.9867 3.102 15.4673 3.088 15.962 3.088C16.774 3.088 17.4647 3.21867 18.034 3.48C18.6033 3.732 19.0373 4.082 19.336 4.53C19.6347 4.978 19.784 5.49133 19.784 6.07C19.784 6.77 19.6113 7.36267 19.266 7.848C18.9207 8.33333 18.44 8.70667 17.824 8.968C17.208 9.22 16.494 9.346 15.682 9.346C15.29 9.346 14.926 9.332 14.59 9.304V13H13.26ZM15.85 8.24C16.6807 8.24 17.3247 8.05333 17.782 7.68C18.2393 7.30667 18.468 6.80733 18.468 6.182C18.468 5.57533 18.2487 5.09467 17.81 4.74C17.3713 4.38533 16.746 4.208 15.934 4.208C15.682 4.208 15.444 4.21267 15.22 4.222C14.996 4.23133 14.786 4.24533 14.59 4.264V8.17C14.7393 8.18867 14.9213 8.20733 15.136 8.226C15.3507 8.23533 15.5887 8.24 15.85 8.24ZM27.2948 13.14L26.2028 10.34H21.6668L20.5748 13.112L19.4408 12.65L23.2768 3.2H24.7328L28.5128 12.65L27.2948 13.14ZM22.0868 9.22H25.7688L23.9348 4.516L22.0868 9.22ZM32.9849 13.168C32.2289 13.168 31.5569 12.972 30.9689 12.58C30.3809 12.188 29.9189 11.6327 29.5829 10.914C29.2469 10.186 29.0789 9.332 29.0789 8.352C29.0789 7.30667 29.2562 6.38733 29.6109 5.594C29.9656 4.79133 30.4742 4.166 31.1369 3.718C31.8089 3.26067 32.6162 3.032 33.5589 3.032C34.1656 3.032 34.7069 3.10667 35.1829 3.256C35.6589 3.40533 36.1069 3.59667 36.5269 3.83L36.0369 4.936C35.6449 4.72133 35.2436 4.544 34.8329 4.404C34.4316 4.264 33.9836 4.194 33.4889 4.194C32.9009 4.194 32.3782 4.35267 31.9209 4.67C31.4636 4.978 31.0996 5.43533 30.8289 6.042C30.5676 6.64867 30.4369 7.39067 30.4369 8.268C30.4369 9.052 30.5582 9.724 30.8009 10.284C31.0436 10.8347 31.3796 11.2593 31.8089 11.558C32.2382 11.8567 32.7329 12.006 33.2929 12.006C33.8156 12.006 34.2776 11.8987 34.6789 11.684C35.0896 11.46 35.4116 11.2313 35.6449 10.998V8.856H33.6149V7.806H36.9049V13H35.7289V12.02C35.4022 12.3093 35.0056 12.5753 34.5389 12.818C34.0722 13.0513 33.5542 13.168 32.9849 13.168ZM39.0725 13V3.2H44.9525V4.348H40.4025V7.33H44.3225V8.45H40.4025V11.852H44.9525V13H39.0725ZM25.5 53L36.3253 34.25H14.6747L25.5 53Z" fill="black"/>
<path d="M0 42.5L-2.99622 42.3494L-3 42.4247V42.5H0ZM2.13568 0V-3H-0.717353L-0.860541 -0.150564L2.13568 0ZM52.5631 42.2309L55.5254 42.7048L52.5631 42.2309ZM59.32 0L62.2823 0.473971L62.8382 -3H59.32V0ZM13.26 3.228L12.8968 0.250062L10.26 0.571627V3.228H13.26ZM13.26 13H10.26V16H13.26V13ZM14.52 3.13L14.6423 6.1275L14.671 6.12633L14.6997 6.12461L14.52 3.13ZM18.034 3.48L16.7825 6.20649L16.8011 6.21502L16.8198 6.22329L18.034 3.48ZM19.336 4.53L16.8398 6.1941V6.1941L19.336 4.53ZM17.824 8.968L18.9599 11.7446L18.9778 11.7373L18.9956 11.7297L17.824 8.968ZM14.59 9.304L14.8391 6.31436L11.59 6.0436V9.304H14.59ZM14.59 13V16H17.59V13H14.59ZM17.782 7.68L15.8849 5.35601L15.8849 5.35602L17.782 7.68ZM17.81 4.74L15.9238 7.07289L15.9238 7.07289L17.81 4.74ZM14.59 4.264L14.3056 1.27751L11.59 1.53615V4.264H14.59ZM14.59 8.17H11.59V10.8184L14.2179 11.1468L14.59 8.17ZM15.136 8.226L14.8761 11.2147L14.9408 11.2203L15.0057 11.2232L15.136 8.226ZM26.2028 10.34L28.9977 9.24996L28.2529 7.34H26.2028V10.34ZM27.2948 13.14L24.4998 14.23L25.6015 17.0549L28.4145 15.9232L27.2948 13.14ZM21.6668 10.34V7.34H19.6242L18.8756 9.24043L21.6668 10.34ZM20.5748 13.112L19.4429 15.8903L22.2536 17.0354L23.366 14.2116L20.5748 13.112ZM19.4408 12.65L16.6611 11.5216L15.5341 14.2978L18.3089 15.4283L19.4408 12.65ZM23.2768 3.2V0.199999H21.2568L20.4971 2.07164L23.2768 3.2ZM24.7328 3.2L27.5182 2.08583L26.7639 0.199999H24.7328V3.2ZM28.5128 12.65L29.6325 15.4332L32.4102 14.3157L31.2982 11.5358L28.5128 12.65ZM25.7688 9.22V12.22H30.1584L28.5639 8.13025L25.7688 9.22ZM22.0868 9.22L19.2945 8.12304L17.685 12.22H22.0868V9.22ZM23.9348 4.516L26.7299 3.42625L23.9454 -3.71555L21.1425 3.41904L23.9348 4.516ZM29.5829 10.914L26.859 12.1712L26.8621 12.1779L26.8653 12.1846L29.5829 10.914ZM29.6109 5.594L32.3497 6.81841L32.355 6.80649L29.6109 5.594ZM31.1369 3.718L32.8171 6.20334L32.8248 6.19814L31.1369 3.718ZM35.1829 3.256L36.0809 0.393561L36.0809 0.393559L35.1829 3.256ZM36.5269 3.83L39.2698 5.04519L40.3802 2.53883L37.9838 1.20753L36.5269 3.83ZM36.0369 4.936L34.596 7.56729L37.458 9.13459L38.7798 6.15119L36.0369 4.936ZM34.8329 4.404L33.8448 7.2366L33.8548 7.2401L33.8649 7.24353L34.8329 4.404ZM31.9209 4.67L33.5967 7.15831L33.614 7.14666L33.6312 7.13476L31.9209 4.67ZM30.8289 6.042L28.0892 4.81968L28.0813 4.83735L28.0737 4.85513L30.8289 6.042ZM30.8009 10.284L28.0482 11.4768L28.0519 11.4853L28.0556 11.4938L30.8009 10.284ZM31.8089 11.558L33.5221 9.09529L33.5221 9.09528L31.8089 11.558ZM34.6789 11.684L36.0939 14.3294L36.1047 14.3236L36.1155 14.3177L34.6789 11.684ZM35.6449 10.998L37.7662 13.1193L38.6449 12.2406V10.998H35.6449ZM35.6449 8.856H38.6449V5.856H35.6449V8.856ZM33.6149 8.856H30.6149V11.856H33.6149V8.856ZM33.6149 7.806V4.806H30.6149V7.806H33.6149ZM36.9049 7.806H39.9049V4.806H36.9049V7.806ZM36.9049 13V16H39.9049V13H36.9049ZM35.7289 13H32.7289V16H35.7289V13ZM35.7289 12.02H38.7289V5.35533L33.7398 9.77423L35.7289 12.02ZM34.5389 12.818L35.8805 15.5013L35.9018 15.4906L35.923 15.4797L34.5389 12.818ZM39.0725 3.2V0.199999H36.0725V3.2H39.0725ZM39.0725 13H36.0725V16H39.0725V13ZM44.9525 3.2H47.9525V0.199999H44.9525V3.2ZM44.9525 4.348V7.348H47.9525V4.348H44.9525ZM40.4025 4.348V1.348H37.4025V4.348H40.4025ZM40.4025 7.33H37.4025V10.33H40.4025V7.33ZM44.3225 7.33H47.3225V4.33H44.3225V7.33ZM44.3225 8.45V11.45H47.3225V8.45H44.3225ZM40.4025 8.45V5.45H37.4025V8.45H40.4025ZM40.4025 11.852H37.4025V14.852H40.4025V11.852ZM44.9525 11.852H47.9525V8.852H44.9525V11.852ZM44.9525 13V16H47.9525V13H44.9525ZM36.3253 34.25L38.9234 35.75L41.5215 31.25H36.3253V34.25ZM25.5 53L22.9019 54.5L25.5 59L28.0981 54.5L25.5 53ZM14.6747 34.25V31.25H9.47853L12.0766 35.75L14.6747 34.25ZM2.99622 42.6506L5.1319 0.150564L-0.860541 -0.150564L-2.99622 42.3494L2.99622 42.6506ZM22 61.5C11.5066 61.5 3 52.9934 3 42.5H-3C-3 56.3071 8.19288 67.5 22 67.5V61.5ZM26.4476 61.5H22V67.5H26.4476V61.5ZM49.6007 41.7569C47.7807 53.1319 37.9673 61.5 26.4476 61.5V67.5C40.9151 67.5 53.2397 56.9906 55.5254 42.7048L49.6007 41.7569ZM56.3577 -0.473971L49.6007 41.7569L55.5254 42.7048L62.2823 0.473971L56.3577 -0.473971ZM59.32 -3H2.13568V3H59.32V-3ZM10.26 3.228V13H16.26V3.228H10.26ZM14.3977 0.132495C13.8742 0.15386 13.3726 0.192041 12.8968 0.250062L13.6232 6.20594C13.9127 6.17062 14.2511 6.14347 14.6423 6.1275L14.3977 0.132495ZM15.962 0.0879998C15.4108 0.0879998 14.8701 0.103596 14.3403 0.135385L14.6997 6.12461C15.1032 6.1004 15.5238 6.088 15.962 6.088V0.0879998ZM19.2855 0.753511C18.2255 0.266934 17.0832 0.0879998 15.962 0.0879998V6.088C16.4648 6.088 16.7039 6.1704 16.7825 6.20649L19.2855 0.753511ZM21.8322 2.8659C21.1704 1.87328 20.2555 1.18254 19.2482 0.736712L16.8198 6.22329C16.8921 6.25529 16.9126 6.27431 16.9032 6.26674C16.8988 6.26315 16.8892 6.25482 16.8768 6.2413C16.8643 6.2277 16.8516 6.21169 16.8398 6.1941L21.8322 2.8659ZM22.784 6.07C22.784 4.94545 22.4842 3.84394 21.8322 2.8659L16.8398 6.1941C16.821 6.16575 16.8027 6.12778 16.7914 6.08899C16.7806 6.05193 16.784 6.041 16.784 6.07H22.784ZM21.7104 9.58726C22.4772 8.50953 22.784 7.28105 22.784 6.07H16.784C16.784 6.17336 16.7713 6.21033 16.7742 6.20037C16.7756 6.19565 16.7798 6.1828 16.7886 6.16454C16.7974 6.14614 16.8087 6.12695 16.8216 6.10874L21.7104 9.58726ZM18.9956 11.7297C20.0576 11.2792 21.005 10.5785 21.7104 9.58726L16.8216 6.10874C16.8209 6.10975 16.8205 6.11026 16.8196 6.1112C16.8186 6.11219 16.8148 6.11608 16.8063 6.1227C16.7901 6.13528 16.7449 6.16698 16.6524 6.20625L18.9956 11.7297ZM15.682 12.346C16.8002 12.346 17.9135 12.1727 18.9599 11.7446L16.6881 6.19136C16.5025 6.26728 16.1878 6.346 15.682 6.346V12.346ZM14.3409 12.2936C14.7717 12.3295 15.2198 12.346 15.682 12.346V6.346C15.3602 6.346 15.0803 6.33446 14.8391 6.31436L14.3409 12.2936ZM17.59 13V9.304H11.59V13H17.59ZM13.26 16H14.59V10H13.26V16ZM15.8849 5.35602C15.9441 5.30762 15.9996 5.27353 16.0443 5.25084C16.0881 5.22855 16.1161 5.21998 16.1208 5.2186C16.125 5.21738 16.107 5.22296 16.0613 5.22875C16.0154 5.23455 15.9461 5.24 15.85 5.24V11.24C17.0951 11.24 18.5051 10.9624 19.6791 10.004L15.8849 5.35602ZM15.468 6.182C15.468 6.12331 15.4804 5.96961 15.5689 5.77641C15.6597 5.57822 15.7854 5.43724 15.8849 5.35601L19.6791 10.004C20.8805 9.02323 21.468 7.647 21.468 6.182H15.468ZM15.9238 7.07289C15.8067 6.9782 15.6705 6.82286 15.5742 6.6119C15.4809 6.40735 15.468 6.24488 15.468 6.182H21.468C21.468 4.74773 20.898 3.37883 19.6962 2.40711L15.9238 7.07289ZM15.934 7.208C16.0287 7.208 16.0964 7.21322 16.1407 7.21867C16.1848 7.22412 16.2006 7.2292 16.1935 7.22719C16.186 7.22505 16.1537 7.21518 16.1044 7.19053C16.0542 7.16546 15.9914 7.1275 15.9238 7.07289L19.6962 2.40711C18.5327 1.46645 17.1385 1.208 15.934 1.208V7.208ZM15.3449 7.2194C15.5226 7.212 15.7186 7.208 15.934 7.208V1.208C15.6454 1.208 15.3654 1.21334 15.0951 1.2246L15.3449 7.2194ZM14.8744 7.25049C15.0107 7.23751 15.167 7.22681 15.3449 7.2194L15.0951 1.2246C14.825 1.23586 14.5613 1.25316 14.3056 1.27751L14.8744 7.25049ZM17.59 8.17V4.264H11.59V8.17H17.59ZM15.3959 5.23728C15.2042 5.22061 15.062 5.20566 14.9621 5.19317L14.2179 11.1468C14.4166 11.1717 14.6385 11.1941 14.8761 11.2147L15.3959 5.23728ZM15.85 5.24C15.6232 5.24 15.4295 5.23593 15.2663 5.22883L15.0057 11.2232C15.2718 11.2347 15.5541 11.24 15.85 11.24V5.24ZM23.4078 11.43L24.4998 14.23L30.0897 12.05L28.9977 9.24996L23.4078 11.43ZM21.6668 13.34H26.2028V7.34H21.6668V13.34ZM23.366 14.2116L24.458 11.4396L18.8756 9.24043L17.7836 12.0124L23.366 14.2116ZM18.3089 15.4283L19.4429 15.8903L21.7067 10.3337L20.5727 9.87172L18.3089 15.4283ZM20.4971 2.07164L16.6611 11.5216L22.2205 13.7784L26.0565 4.32836L20.4971 2.07164ZM24.7328 0.199999H23.2768V6.2H24.7328V0.199999ZM31.2982 11.5358L27.5182 2.08583L21.9473 4.31417L25.7274 13.7642L31.2982 11.5358ZM28.4145 15.9232L29.6325 15.4332L27.3931 9.86678L26.1751 10.3568L28.4145 15.9232ZM25.7688 6.22H22.0868V12.22H25.7688V6.22ZM21.1397 5.60575L22.9737 10.3097L28.5639 8.13025L26.7299 3.42625L21.1397 5.60575ZM24.879 10.317L26.727 5.61296L21.1425 3.41904L19.2945 8.12304L24.879 10.317ZM29.3048 15.0761C30.4205 15.8199 31.68 16.168 32.9849 16.168V10.168C32.7778 10.168 32.6933 10.1241 32.633 10.0838L29.3048 15.0761ZM26.8653 12.1846C27.4045 13.3379 28.2059 14.3436 29.3048 15.0761L32.633 10.0838C32.5559 10.0324 32.4333 9.92741 32.3006 9.64341L26.8653 12.1846ZM26.0789 8.352C26.0789 9.67166 26.3053 10.9715 26.859 12.1712L32.3068 9.65682C32.1885 9.40055 32.0789 8.99234 32.0789 8.352H26.0789ZM26.8721 4.36961C26.314 5.61815 26.0789 6.96877 26.0789 8.352H32.0789C32.0789 7.64456 32.1985 7.15652 32.3497 6.81839L26.8721 4.36961ZM29.4567 1.23267C28.282 2.02685 27.4265 3.11487 26.8668 4.38151L32.355 6.80649C32.5046 6.4678 32.6665 6.30515 32.8171 6.20333L29.4567 1.23267ZM33.5589 0.0319998C32.113 0.0319998 30.6946 0.390171 29.449 1.23786L32.8248 6.19814C32.9232 6.13116 33.1195 6.032 33.5589 6.032V0.0319998ZM36.0809 0.393559C35.2595 0.135844 34.4068 0.0319998 33.5589 0.0319998V6.032C33.9244 6.032 34.1544 6.07749 34.2849 6.11844L36.0809 0.393559ZM37.9838 1.20753C37.3795 0.87177 36.7435 0.601413 36.0809 0.393561L34.2849 6.11844C34.5744 6.20925 34.8343 6.32156 35.07 6.45247L37.9838 1.20753ZM38.7798 6.15119L39.2698 5.04519L33.784 2.61481L33.294 3.72081L38.7798 6.15119ZM33.8649 7.24353C34.1074 7.3262 34.3508 7.43302 34.596 7.56729L37.4778 2.30471C36.939 2.00965 36.3798 1.7618 35.8009 1.56447L33.8649 7.24353ZM33.4889 7.194C33.7011 7.194 33.8084 7.2239 33.8448 7.2366L35.821 1.5714C35.0548 1.3041 34.266 1.194 33.4889 1.194V7.194ZM33.6312 7.13476C33.608 7.15081 33.5708 7.17046 33.5274 7.18364C33.4854 7.19638 33.4677 7.194 33.4889 7.194V1.194C32.326 1.194 31.1993 1.51921 30.2107 2.20524L33.6312 7.13476ZM33.5686 7.26432C33.6146 7.16115 33.6474 7.11822 33.6522 7.11224C33.6545 7.10932 33.6509 7.11418 33.6406 7.12382C33.6301 7.13359 33.6153 7.14576 33.5967 7.15831L30.2451 2.18169C29.2339 2.86269 28.5417 3.80555 28.0892 4.81968L33.5686 7.26432ZM33.4369 8.268C33.4369 7.67179 33.5279 7.35938 33.5841 7.22887L28.0737 4.85513C27.6072 5.93796 27.4369 7.10954 27.4369 8.268H33.4369ZM33.5536 9.09117C33.5134 8.99844 33.4369 8.75371 33.4369 8.268H27.4369C27.4369 9.35029 27.6031 10.4496 28.0482 11.4768L33.5536 9.09117ZM33.5221 9.09528C33.5383 9.10654 33.5528 9.11852 33.5651 9.13007C33.5772 9.14155 33.5846 9.15026 33.5876 9.15405C33.594 9.16214 33.5761 9.14207 33.5462 9.07423L28.0556 11.4938C28.4865 12.4716 29.149 13.3621 30.0957 14.0207L33.5221 9.09528ZM33.2929 9.006C33.2821 9.006 33.3126 9.005 33.3689 9.02202C33.4271 9.03958 33.4812 9.0668 33.5221 9.09529L30.0957 14.0207C31.0641 14.6944 32.1661 15.006 33.2929 15.006V9.006ZM33.264 9.03865C33.2834 9.02824 33.3019 9.0201 33.3182 9.01402C33.3344 9.00797 33.3463 9.00477 33.3525 9.00332C33.3654 9.00033 33.3487 9.006 33.2929 9.006V15.006C34.2354 15.006 35.1965 14.8093 36.0939 14.3294L33.264 9.03865ZM33.5236 8.87668C33.5462 8.85412 33.5412 8.86315 33.4914 8.89852C33.4424 8.93332 33.3622 8.98492 33.2424 9.05031L36.1155 14.3177C36.6818 14.0088 37.2654 13.6202 37.7662 13.1193L33.5236 8.87668ZM32.6449 8.856V10.998H38.6449V8.856H32.6449ZM33.6149 11.856H35.6449V5.856H33.6149V11.856ZM30.6149 7.806V8.856H36.6149V7.806H30.6149ZM36.9049 4.806H33.6149V10.806H36.9049V4.806ZM39.9049 13V7.806H33.9049V13H39.9049ZM35.7289 16H36.9049V10H35.7289V16ZM32.7289 12.02V13H38.7289V12.02H32.7289ZM35.923 15.4797C36.5646 15.146 37.1744 14.7472 37.718 14.2658L33.7398 9.77423C33.6301 9.87144 33.4465 10.0047 33.1549 10.1563L35.923 15.4797ZM32.9849 16.168C33.9767 16.168 34.9603 15.9614 35.8805 15.5013L33.1973 10.1347C33.1842 10.1413 33.1317 10.168 32.9849 10.168V16.168ZM36.0725 3.2V13H42.0725V3.2H36.0725ZM44.9525 0.199999H39.0725V6.2H44.9525V0.199999ZM47.9525 4.348V3.2H41.9525V4.348H47.9525ZM40.4025 7.348H44.9525V1.348H40.4025V7.348ZM43.4025 7.33V4.348H37.4025V7.33H43.4025ZM44.3225 4.33H40.4025V10.33H44.3225V4.33ZM47.3225 8.45V7.33H41.3225V8.45H47.3225ZM40.4025 11.45H44.3225V5.45H40.4025V11.45ZM43.4025 11.852V8.45H37.4025V11.852H43.4025ZM44.9525 8.852H40.4025V14.852H44.9525V8.852ZM47.9525 13V11.852H41.9525V13H47.9525ZM39.0725 16H44.9525V10H39.0725V16ZM33.7272 32.75L22.9019 51.5L28.0981 54.5L38.9234 35.75L33.7272 32.75ZM14.6747 37.25H36.3253V31.25H14.6747V37.25ZM28.0981 51.5L17.2728 32.75L12.0766 35.75L22.9019 54.5L28.0981 51.5Z" fill="black" mask="url(#path-1-inside-1_27_39)"/>
</svg>

