<svg width="63" height="65" viewBox="0 0 63 65" fill="none" xmlns="http://www.w3.org/2000/svg">
<mask id="path-1-inside-1_12_737" fill="white">
<path fill-rule="evenodd" clip-rule="evenodd" d="M61.7467 34.9814C65.1538 13.6871 45.7808 -4.20964 24.8227 0.871119C11.8286 4.02119 2.45424 15.3429 1.7832 28.6964L0 64.1822H57.0746L61.7467 34.9814ZM14.9406 59.3502C14.0912 59.3502 13.3399 59.1495 12.6866 58.7482C12.0332 58.3375 11.5246 57.7588 11.1606 57.0122C10.7966 56.2562 10.6146 55.3602 10.6146 54.3242C10.6146 53.3255 10.7966 52.4435 11.1606 51.6782C11.5339 50.9035 12.0566 50.3015 12.7286 49.8722C13.4099 49.4335 14.2032 49.2142 15.1086 49.2142C15.5752 49.2142 15.9999 49.2608 16.3826 49.3542C16.7652 49.4382 17.1246 49.5595 17.4606 49.7182L17.0546 50.8382C16.7652 50.6982 16.4666 50.5862 16.1586 50.5022C15.8599 50.4182 15.5052 50.3762 15.0946 50.3762C14.4972 50.3762 13.9606 50.5302 13.4846 50.8382C13.0179 51.1462 12.6492 51.5895 12.3786 52.1682C12.1079 52.7468 11.9726 53.4468 11.9726 54.2682C11.9726 55.0522 12.1032 55.7382 12.3646 56.3262C12.6352 56.9142 13.0039 57.3715 13.4706 57.6982C13.9466 58.0248 14.4879 58.1882 15.0946 58.1882C15.5519 58.1882 15.9486 58.1322 16.2846 58.0202C16.6206 57.9082 16.9472 57.7635 17.2646 57.5862L17.6706 58.6922C17.3252 58.8788 16.9286 59.0375 16.4806 59.1682C16.0419 59.2895 15.5286 59.3502 14.9406 59.3502ZM19.4871 59.1822V49.3822H20.8171V53.5682H25.6471V49.3822H26.9771V59.1822H25.6471V54.7162H20.8171V59.1822H19.4871ZM36.2289 59.3222L35.1369 56.5222H30.6009L29.5089 59.2942L28.3749 58.8322L32.2109 49.3822H33.6669L37.4469 58.8322L36.2289 59.3222ZM31.0209 55.4022H34.7029L32.8689 50.6982L31.0209 55.4022ZM38.8464 59.1822V49.3822H40.6104L44.9365 57.5302V49.3822H46.1964V59.1822H44.4604L40.1064 51.0902V59.1822H38.8464ZM44.2399 33.9322L33.4146 15.1822L22.5893 33.9322H44.2399Z"/>
</mask>
<path fill-rule="evenodd" clip-rule="evenodd" d="M61.7467 34.9814C65.1538 13.6871 45.7808 -4.20964 24.8227 0.871119C11.8286 4.02119 2.45424 15.3429 1.7832 28.6964L0 64.1822H57.0746L61.7467 34.9814ZM14.9406 59.3502C14.0912 59.3502 13.3399 59.1495 12.6866 58.7482C12.0332 58.3375 11.5246 57.7588 11.1606 57.0122C10.7966 56.2562 10.6146 55.3602 10.6146 54.3242C10.6146 53.3255 10.7966 52.4435 11.1606 51.6782C11.5339 50.9035 12.0566 50.3015 12.7286 49.8722C13.4099 49.4335 14.2032 49.2142 15.1086 49.2142C15.5752 49.2142 15.9999 49.2608 16.3826 49.3542C16.7652 49.4382 17.1246 49.5595 17.4606 49.7182L17.0546 50.8382C16.7652 50.6982 16.4666 50.5862 16.1586 50.5022C15.8599 50.4182 15.5052 50.3762 15.0946 50.3762C14.4972 50.3762 13.9606 50.5302 13.4846 50.8382C13.0179 51.1462 12.6492 51.5895 12.3786 52.1682C12.1079 52.7468 11.9726 53.4468 11.9726 54.2682C11.9726 55.0522 12.1032 55.7382 12.3646 56.3262C12.6352 56.9142 13.0039 57.3715 13.4706 57.6982C13.9466 58.0248 14.4879 58.1882 15.0946 58.1882C15.5519 58.1882 15.9486 58.1322 16.2846 58.0202C16.6206 57.9082 16.9472 57.7635 17.2646 57.5862L17.6706 58.6922C17.3252 58.8788 16.9286 59.0375 16.4806 59.1682C16.0419 59.2895 15.5286 59.3502 14.9406 59.3502ZM19.4871 59.1822V49.3822H20.8171V53.5682H25.6471V49.3822H26.9771V59.1822H25.6471V54.7162H20.8171V59.1822H19.4871ZM36.2289 59.3222L35.1369 56.5222H30.6009L29.5089 59.2942L28.3749 58.8322L32.2109 49.3822H33.6669L37.4469 58.8322L36.2289 59.3222ZM31.0209 55.4022H34.7029L32.8689 50.6982L31.0209 55.4022ZM38.8464 59.1822V49.3822H40.6104L44.9365 57.5302V49.3822H46.1964V59.1822H44.4604L40.1064 51.0902V59.1822H38.8464ZM44.2399 33.9322L33.4146 15.1822L22.5893 33.9322H44.2399Z" fill="black"/>
<path d="M24.8227 0.871119L24.1159 -2.04443L24.8227 0.871119ZM61.7467 34.9814L58.7844 34.5075L61.7467 34.9814ZM1.7832 28.6964L4.77942 28.847L1.7832 28.6964ZM0 64.1822L-2.99622 64.0316L-3.15454 67.1822H0V64.1822ZM57.0746 64.1822V67.1822H59.6327L60.0369 64.6561L57.0746 64.1822ZM12.6866 58.7482L11.0901 61.2881L11.1031 61.2963L11.1163 61.3044L12.6866 58.7482ZM11.1606 57.0122L8.45757 58.3136L8.46074 58.3202L8.46394 58.3268L11.1606 57.0122ZM11.1606 51.6782L8.45804 50.3757L8.45469 50.3827L8.45138 50.3896L11.1606 51.6782ZM12.7286 49.8722L14.3437 52.4003L14.3526 52.3946L12.7286 49.8722ZM16.3826 49.3542L15.6717 52.2687L15.7054 52.277L15.7394 52.2844L16.3826 49.3542ZM17.4606 49.7182L20.281 50.7406L21.2121 48.172L18.7416 47.0054L17.4606 49.7182ZM17.0546 50.8382L15.7479 53.5387L18.7416 54.9872L19.875 51.8606L17.0546 50.8382ZM16.1586 50.5022L15.3463 53.3901L15.3578 53.3933L15.3692 53.3965L16.1586 50.5022ZM13.4846 50.8382L11.8548 48.3195L11.8434 48.3268L11.8321 48.3343L13.4846 50.8382ZM12.3786 52.1682L9.66114 50.8971L9.66114 50.8971L12.3786 52.1682ZM12.3646 56.3262L9.62314 57.5446L9.63117 57.5627L9.63943 57.5806L12.3646 56.3262ZM13.4706 57.6982L11.7502 60.1559L11.7616 60.1638L11.7731 60.1717L13.4706 57.6982ZM16.2846 58.0202L17.2333 60.8662H17.2333L16.2846 58.0202ZM17.2646 57.5862L20.0808 56.5524L18.8695 53.2526L15.8011 54.9673L17.2646 57.5862ZM17.6706 58.6922L19.0971 61.3313L21.3818 60.0964L20.4868 57.6584L17.6706 58.6922ZM16.4806 59.1682L17.2803 62.0596L17.3005 62.054L17.3206 62.0482L16.4806 59.1682ZM19.4871 49.3822V46.3822H16.4871V49.3822H19.4871ZM19.4871 59.1822H16.4871V62.1822H19.4871V59.1822ZM20.8171 49.3822H23.8171V46.3822H20.8171V49.3822ZM20.8171 53.5682H17.8171V56.5682H20.8171V53.5682ZM25.6471 53.5682V56.5682H28.6471V53.5682H25.6471ZM25.6471 49.3822V46.3822H22.6471V49.3822H25.6471ZM26.9771 49.3822H29.9771V46.3822H26.9771V49.3822ZM26.9771 59.1822V62.1822H29.9771V59.1822H26.9771ZM25.6471 59.1822H22.6471V62.1822H25.6471V59.1822ZM25.6471 54.7162H28.6471V51.7162H25.6471V54.7162ZM20.8171 54.7162V51.7162H17.8171V54.7162H20.8171ZM20.8171 59.1822V62.1822H23.8171V59.1822H20.8171ZM35.1369 56.5222L37.9318 55.4321L37.187 53.5222H35.1369V56.5222ZM36.2289 59.3222L33.4339 60.4122L34.5356 63.237L37.3486 62.1054L36.2289 59.3222ZM30.6009 56.5222V53.5222H28.5583L27.8097 55.4226L30.6009 56.5222ZM29.5089 59.2942L28.377 62.0724L31.1877 63.2176L32.3001 60.3937L29.5089 59.2942ZM28.3749 58.8322L25.5952 57.7038L24.4682 60.48L27.243 61.6104L28.3749 58.8322ZM32.2109 49.3822V46.3822H30.1909L29.4312 48.2538L32.2109 49.3822ZM33.6669 49.3822L36.4523 48.268L35.698 46.3822H33.6669V49.3822ZM37.4469 58.8322L38.5666 61.6154L41.3443 60.4979L40.2323 57.718L37.4469 58.8322ZM34.7029 55.4022V58.4022H39.0925L37.498 54.3124L34.7029 55.4022ZM31.0209 55.4022L28.2286 54.3052L26.6191 58.4022H31.0209V55.4022ZM32.8689 50.6982L35.664 49.6084L32.8795 42.4666L30.0766 49.6012L32.8689 50.6982ZM38.8464 49.3822V46.3822H35.8464V49.3822H38.8464ZM38.8464 59.1822H35.8464V62.1822H38.8464V59.1822ZM40.6104 49.3822L43.2601 47.9754L42.4143 46.3822H40.6104V49.3822ZM44.9365 57.5302L42.2867 58.937L47.9365 57.5302H44.9365ZM44.9365 49.3822V46.3822H41.9365V49.3822H44.9365ZM46.1964 49.3822H49.1964V46.3822H46.1964V49.3822ZM46.1964 59.1822V62.1822H49.1964V59.1822H46.1964ZM44.4604 59.1822L41.8186 60.6037L42.6679 62.1822H44.4604V59.1822ZM40.1064 51.0902L42.7483 49.6687L37.1064 51.0902H40.1064ZM40.1064 59.1822V62.1822H43.1064V59.1822H40.1064ZM33.4146 15.1822L36.0126 13.6822L33.4146 9.18217L30.8165 13.6822L33.4146 15.1822ZM44.2399 33.9322V36.9322H49.436L46.838 32.4322L44.2399 33.9322ZM22.5893 33.9322L19.9912 32.4322L17.3931 36.9322H22.5893V33.9322ZM25.5295 3.78667C44.405 -0.78922 61.8529 15.3291 58.7844 34.5075L64.709 35.4554C68.4547 12.045 47.1566 -7.63007 24.1159 -2.04443L25.5295 3.78667ZM4.77942 28.847C5.38378 16.8204 13.8266 6.62372 25.5295 3.78667L24.1159 -2.04443C9.8306 1.41866 -0.475302 13.8654 -1.21302 28.5459L4.77942 28.847ZM2.99622 64.3327L4.77942 28.847L-1.21302 28.5459L-2.99622 64.0316L2.99622 64.3327ZM0 67.1822H57.0746V61.1822H0V67.1822ZM58.7844 34.5075L54.1123 63.7082L60.0369 64.6561L64.709 35.4554L58.7844 34.5075ZM11.1163 61.3044C12.2918 62.0265 13.5984 62.3502 14.9406 62.3502V56.3502C14.5841 56.3502 14.388 56.2725 14.2568 56.1919L11.1163 61.3044ZM8.46394 58.3268C9.05368 59.5365 9.92659 60.5568 11.0901 61.2881L14.2831 56.2083C14.1399 56.1182 13.9955 55.9812 13.8572 55.6976L8.46394 58.3268ZM7.61457 54.3242C7.61457 55.7073 7.85768 57.0677 8.45757 58.3136L13.8636 55.7107C13.7355 55.4447 13.6146 55.013 13.6146 54.3242H7.61457ZM8.45138 50.3896C7.8647 51.6232 7.61457 52.9586 7.61457 54.3242H13.6146C13.6146 53.6924 13.7284 53.2638 13.8698 52.9667L8.45138 50.3896ZM11.1134 47.3441C9.93544 48.0967 9.05339 49.1404 8.45804 50.3757L13.8631 52.9806C14.0144 52.6666 14.1777 52.5063 14.3437 52.4003L11.1134 47.3441ZM15.1086 46.2142C13.697 46.2142 12.3257 46.5636 11.1046 47.3498L14.3526 52.3946C14.4942 52.3034 14.7094 52.2142 15.1086 52.2142V46.2142ZM17.0934 46.4396C16.44 46.2802 15.7721 46.2142 15.1086 46.2142V52.2142C15.3784 52.2142 15.5598 52.2414 15.6717 52.2687L17.0934 46.4396ZM18.7416 47.0054C18.1911 46.7455 17.6166 46.5536 17.0258 46.4239L15.7394 52.2844C15.9138 52.3227 16.0581 52.3735 16.1796 52.4309L18.7416 47.0054ZM19.875 51.8606L20.281 50.7406L14.6402 48.6958L14.2342 49.8158L19.875 51.8606ZM15.3692 53.3965C15.498 53.4316 15.6235 53.4785 15.7479 53.5387L18.3613 48.1377C17.9069 47.9179 17.4352 47.7408 16.9479 47.6079L15.3692 53.3965ZM15.0946 53.3762C15.1991 53.3762 15.2713 53.3816 15.3158 53.3868C15.3605 53.3921 15.368 53.3962 15.3463 53.3901L16.9708 47.6142C16.3383 47.4363 15.6969 47.3762 15.0946 47.3762V53.3762ZM15.1143 53.3569C15.1127 53.3579 15.1072 53.3613 15.0981 53.3654C15.0891 53.3696 15.0798 53.3729 15.0716 53.3753C15.0634 53.3776 15.0596 53.378 15.0617 53.3778C15.0639 53.3775 15.0744 53.3762 15.0946 53.3762V47.3762C13.9515 47.3762 12.8429 47.6801 11.8548 48.3195L15.1143 53.3569ZM15.096 53.4392C15.1342 53.3576 15.161 53.3243 15.1647 53.3198C15.1668 53.3173 15.1651 53.3197 15.1592 53.3251C15.1532 53.3304 15.1455 53.3364 15.1371 53.342L11.8321 48.3343C10.8406 48.9887 10.1321 49.8902 9.66114 50.8971L15.096 53.4392ZM14.9726 54.2682C14.9726 53.7652 15.0567 53.5234 15.096 53.4392L9.66114 50.8971C9.15916 51.9703 8.97257 53.1285 8.97257 54.2682H14.9726ZM15.106 55.1077C15.0481 54.9775 14.9726 54.722 14.9726 54.2682H8.97257C8.97257 55.3823 9.15834 56.4988 9.62314 57.5446L15.106 55.1077ZM15.191 55.2405C15.1959 55.2439 15.1926 55.2433 15.1797 55.2274C15.1655 55.2097 15.132 55.1636 15.0897 55.0717L9.63943 57.5806C10.1016 58.5846 10.7911 59.4845 11.7502 60.1559L15.191 55.2405ZM15.0946 55.1882C15.0778 55.1882 15.0716 55.1871 15.0744 55.1875C15.0774 55.1879 15.0865 55.1895 15.1002 55.1936C15.1139 55.1977 15.1281 55.2032 15.1416 55.2097C15.1551 55.2162 15.164 55.2218 15.1681 55.2246L11.7731 60.1717C12.775 60.8593 13.9145 61.1882 15.0946 61.1882V55.1882ZM15.3359 55.1741C15.3609 55.1658 15.3571 55.1698 15.3157 55.1756C15.2741 55.1815 15.2022 55.1882 15.0946 55.1882V61.1882C15.7855 61.1882 16.5171 61.1049 17.2333 60.8662L15.3359 55.1741ZM15.8011 54.9673C15.6436 55.0554 15.4889 55.1231 15.3359 55.1741L17.2333 60.8662C17.7522 60.6932 18.2509 60.4716 18.728 60.205L15.8011 54.9673ZM20.4868 57.6584L20.0808 56.5524L14.4483 58.62L14.8543 59.726L20.4868 57.6584ZM17.3206 62.0482C17.9351 61.8689 18.5343 61.6355 19.0971 61.3313L16.244 56.053C16.1162 56.1222 15.922 56.2061 15.6406 56.2882L17.3206 62.0482ZM14.9406 62.3502C15.7246 62.3502 16.5182 62.2704 17.2803 62.0596L15.6808 56.2767C15.5656 56.3086 15.3325 56.3502 14.9406 56.3502V62.3502ZM16.4871 49.3822V59.1822H22.4871V49.3822H16.4871ZM20.8171 46.3822H19.4871V52.3822H20.8171V46.3822ZM23.8171 53.5682V49.3822H17.8171V53.5682H23.8171ZM25.6471 50.5682H20.8171V56.5682H25.6471V50.5682ZM22.6471 49.3822V53.5682H28.6471V49.3822H22.6471ZM26.9771 46.3822H25.6471V52.3822H26.9771V46.3822ZM29.9771 59.1822V49.3822H23.9771V59.1822H29.9771ZM25.6471 62.1822H26.9771V56.1822H25.6471V62.1822ZM22.6471 54.7162V59.1822H28.6471V54.7162H22.6471ZM20.8171 57.7162H25.6471V51.7162H20.8171V57.7162ZM23.8171 59.1822V54.7162H17.8171V59.1822H23.8171ZM19.4871 62.1822H20.8171V56.1822H19.4871V62.1822ZM32.3419 57.6122L33.4339 60.4122L39.0238 58.2321L37.9318 55.4321L32.3419 57.6122ZM30.6009 59.5222H35.1369V53.5222H30.6009V59.5222ZM32.3001 60.3937L33.3921 57.6217L27.8097 55.4226L26.7177 58.1946L32.3001 60.3937ZM27.243 61.6104L28.377 62.0724L30.6408 56.5159L29.5068 56.0539L27.243 61.6104ZM29.4312 48.2538L25.5952 57.7038L31.1546 59.9605L34.9906 50.5105L29.4312 48.2538ZM33.6669 46.3822H32.2109V52.3822H33.6669V46.3822ZM40.2323 57.718L36.4523 48.268L30.8815 50.4963L34.6615 59.9463L40.2323 57.718ZM37.3486 62.1054L38.5666 61.6154L36.3272 56.049L35.1092 56.539L37.3486 62.1054ZM34.7029 52.4022H31.0209V58.4022H34.7029V52.4022ZM30.0738 51.7879L31.9078 56.4919L37.498 54.3124L35.664 49.6084L30.0738 51.7879ZM33.8131 56.4991L35.6611 51.7951L30.0766 49.6012L28.2286 54.3052L33.8131 56.4991ZM35.8464 49.3822V59.1822H41.8464V49.3822H35.8464ZM40.6104 46.3822H38.8464V52.3822H40.6104V46.3822ZM47.5862 56.1234L43.2601 47.9754L37.9607 50.789L42.2867 58.937L47.5862 56.1234ZM41.9365 49.3822V57.5302H47.9365V49.3822H41.9365ZM46.1964 46.3822H44.9365V52.3822H46.1964V46.3822ZM49.1964 59.1822V49.3822H43.1964V59.1822H49.1964ZM44.4604 62.1822H46.1964V56.1822H44.4604V62.1822ZM37.4646 52.5117L41.8186 60.6037L47.1023 57.7607L42.7483 49.6687L37.4646 52.5117ZM43.1064 59.1822V51.0902H37.1064V59.1822H43.1064ZM38.8464 62.1822H40.1064V56.1822H38.8464V62.1822ZM30.8165 16.6822L41.6418 35.4322L46.838 32.4322L36.0126 13.6822L30.8165 16.6822ZM25.1873 35.4322L36.0126 16.6822L30.8165 13.6822L19.9912 32.4322L25.1873 35.4322ZM44.2399 30.9322H22.5893V36.9322H44.2399V30.9322Z" fill="black" mask="url(#path-1-inside-1_12_737)"/>
</svg>