<svg width="107" height="45" viewBox="0 0 107 45" fill="none" xmlns="http://www.w3.org/2000/svg">
<mask id="path-1-inside-1_27_12" fill="white">
<path fill-rule="evenodd" clip-rule="evenodd" d="M53.4775 44.5491C73.9823 44.5491 92.6965 36.8827 106.91 24.2599L82.6502 0C74.5588 6.5948 64.2299 10.5491 52.9775 10.5491C41.959 10.5491 31.826 6.75748 23.8122 0.407806L0 24.2201C14.2191 36.8666 32.9511 44.5491 53.4775 44.5491ZM53.4775 35.5491L43.5182 20.5491H63.4368L53.4775 35.5491Z"/>
</mask>
<path fill-rule="evenodd" clip-rule="evenodd" d="M53.4775 44.5491C73.9823 44.5491 92.6965 36.8827 106.91 24.2599L82.6502 0C74.5588 6.5948 64.2299 10.5491 52.9775 10.5491C41.959 10.5491 31.826 6.75748 23.8122 0.407806L0 24.2201C14.2191 36.8666 32.9511 44.5491 53.4775 44.5491ZM53.4775 35.5491L43.5182 20.5491H63.4368L53.4775 35.5491Z" fill="black" fill-opacity="0.92"/>
<path d="M106.91 24.2599L108.902 26.5031L111.282 24.3894L109.031 22.1386L106.91 24.2599ZM82.6502 0L84.7716 -2.12132L82.8554 -4.03745L80.7549 -2.32546L82.6502 0ZM23.8122 0.407806L25.6753 -1.94356L23.5807 -3.60325L21.6909 -1.71351L23.8122 0.407806ZM0 24.2201L-2.12132 22.0987L-4.37045 24.3479L-1.99373 26.4617L0 24.2201ZM43.5182 20.5491V17.5491H37.9253L41.0189 22.2085L43.5182 20.5491ZM53.4775 35.5491L50.9782 37.2085L53.4775 40.9727L55.9768 37.2085L53.4775 35.5491ZM63.4368 20.5491L65.9361 22.2085L69.0297 17.5491H63.4368V20.5491ZM104.918 22.0168C91.2322 34.1708 73.2201 41.5491 53.4775 41.5491V47.5491C74.7445 47.5491 94.1608 39.5946 108.902 26.5031L104.918 22.0168ZM80.5289 2.12132L104.789 26.3812L109.031 22.1386L84.7716 -2.12132L80.5289 2.12132ZM52.9775 13.5491C64.9454 13.5491 75.9384 9.34056 84.5456 2.32546L80.7549 -2.32546C73.1791 3.84903 63.5145 7.5491 52.9775 7.5491V13.5491ZM21.9492 2.75917C30.4741 9.51381 41.2587 13.5491 52.9775 13.5491V7.5491C42.6593 7.5491 33.178 4.00114 25.6753 -1.94356L21.9492 2.75917ZM2.12132 26.3414L25.9336 2.52913L21.6909 -1.71351L-2.12132 22.0987L2.12132 26.3414ZM53.4775 41.5491C33.7141 41.5491 15.6849 34.1553 1.99373 21.9784L-1.99373 26.4617C12.7534 39.5778 32.1882 47.5491 53.4775 47.5491V41.5491ZM41.0189 22.2085L50.9782 37.2085L55.9768 33.8897L46.0175 18.8897L41.0189 22.2085ZM63.4368 17.5491H43.5182V23.5491H63.4368V17.5491ZM55.9768 37.2085L65.9361 22.2085L60.9375 18.8897L50.9782 33.8897L55.9768 37.2085Z" fill="black" mask="url(#path-1-inside-1_27_12)"/>
</svg>
