<svg width="65" height="69" viewBox="0 0 65 69" fill="none" xmlns="http://www.w3.org/2000/svg">
<path d="M20.7841 26.0131L23.8731 24.0698L29.2623 20.0765L32.4887 24.6843L31.0793 25.4697L29.1435 22.7051L26.917 24.1542L28.6377 26.6116L27.2406 27.3885L25.5801 25.017L25.08 25.3489L23.248 26.7598L25.3301 29.7334L23.933 30.5102L20.7841 26.0131ZM28.2033 36.8442L29.9489 32.5638L25.369 32.8225L25.091 31.0395L30.4721 30.879L31.9903 25.9339L34.0524 26.7606L32.3658 30.8898L36.8203 30.609L36.9619 32.4326L31.8856 32.6361L30.2199 37.6844L28.2033 36.8442ZM39.9221 35.1695L34.4567 38.7401L31.3652 41.1245L30.1607 39.4043L33.2498 37.461L38.3932 33.6398L39.9221 35.1695ZM39.1338 37.182L40.6415 36.3277L44.7282 42.1642L43.2205 43.0184L41.9078 40.7514L37.8186 43.5414L34.7272 45.9258L33.5226 44.2056L36.6117 42.2624L40.8287 39.2364L39.1338 37.182Z" fill="black"/>
<rect x="34.2268" y="66.6165" width="54.6743" height="34" rx="17" transform="rotate(-125 34.2268 66.6165)" fill="white" fill-opacity="0.6" stroke="black" stroke-width="3"/>
</svg>
