<svg width="64" height="69" viewBox="0 0 64 69" fill="none" xmlns="http://www.w3.org/2000/svg">
<path d="M25.3651 50.2232C24.6137 51.2963 23.6481 51.9081 22.4684 52.0587C21.2887 52.2093 20.105 51.8687 18.9172 51.037C17.5656 50.0906 16.7137 48.8838 16.3617 47.4165C16.0096 45.9492 16.2523 44.6176 17.0897 43.4216C17.4224 42.9465 17.7743 42.5398 18.1455 42.2015C18.5142 41.8493 18.8038 41.6187 19.0144 41.5098L19.3216 41.3587L20.5305 43.2672C20.1946 43.3983 19.8108 43.6239 19.379 43.9442C18.939 44.2587 18.6072 44.5757 18.3835 44.8952C17.9189 45.5587 17.7795 46.2546 17.9654 46.9829C18.1513 47.7112 18.6292 48.345 19.3992 48.8841C20.4395 49.6126 21.3824 49.992 22.2278 50.0224C23.079 50.0447 23.7426 49.7159 24.2187 49.036C24.5284 48.5936 24.7595 48.1328 24.912 47.6536L23.0074 46.32L21.8976 47.9051L20.7426 46.9133L22.8075 43.9643L24.7329 45.4773L26.9188 46.8797C26.4279 48.3305 25.91 49.445 25.3651 50.2232ZM30.5767 42.7803C30.0604 43.5175 29.3992 43.9823 28.5931 44.1747C27.7927 44.3589 27.0607 44.2188 26.3972 43.7542L20.2904 39.6612L21.2221 37.6768L26.4663 41.6418C27.0397 42.0433 27.5779 42.2248 28.0809 42.1864C28.5897 42.1398 29.0391 41.8379 29.4291 41.2809C29.8191 40.7239 29.9446 40.2135 29.8054 39.7498C29.6662 39.2861 29.2156 38.7875 28.4538 38.2541L23.534 35.0289L24.4313 33.0936L29.7431 37.0144C30.7097 37.6912 31.2695 38.5654 31.4225 39.637C31.5756 40.7086 31.2936 41.7563 30.5767 42.7803ZM26.9123 29.5504L32.1368 33.465L35.4348 35.5545L34.2303 37.2747L31.3477 35.0366L25.9978 31.5103L26.9123 29.5504ZM38.7254 31.1427C38.3181 31.7243 37.6852 32.5324 36.8265 33.5669L33.9439 31.3288L28.3482 27.6304L30.6454 24.3497C31.4198 23.2438 32.3566 22.6119 33.4561 22.454C34.5555 22.296 35.695 22.63 36.8746 23.456C38.3654 24.4999 39.2795 25.7137 39.6169 27.0974C39.946 28.4754 39.6488 29.8238 38.7254 31.1427ZM31.6627 25.7212C31.2842 26.2619 31.0215 26.6457 30.8749 26.8726L34.733 29.7572L36.7838 31.065C37.3148 30.4113 37.6634 29.9657 37.8297 29.7281C38.2829 29.081 38.3764 28.3896 38.1102 27.6539C37.8498 26.91 37.2199 26.1882 36.2205 25.4884C35.2212 24.7886 34.3508 24.4539 33.6094 24.4841C32.8737 24.5061 32.2248 24.9185 31.6627 25.7212ZM42.5398 25.4074L39.6573 23.1693L34.0616 19.4709L37.288 14.8632L38.5081 15.9189L36.5723 18.6835L38.6955 20.2801L40.4162 17.8227L41.624 18.8698L39.9635 21.2412L40.4464 21.5977L42.3989 22.8366L44.481 19.8631L45.6888 20.9103L42.5398 25.4074Z" fill="black"/>
<rect x="2.08909" y="46.8756" width="54.6743" height="34" rx="17" transform="rotate(-55 2.08909 46.8756)" fill="white" fill-opacity="0.6" stroke="black" stroke-width="3"/>
</svg>
