<svg width="67" height="67" viewBox="0 0 67 67" fill="none" xmlns="http://www.w3.org/2000/svg">
<path d="M21.8826 36.9637L26.348 41.7261L29.2329 44.3565L27.748 45.8415L25.2979 43.1368L20.6416 38.735L21.8826 36.9637ZM29.2198 29.6902L33.6639 34.4101L36.305 36.8178L35.3186 38.3346L27.0454 36.3829L29.3683 38.7058L32.2745 41.315L30.9486 42.6408L28.4985 39.9362L23.6619 35.3541L24.8711 34.0177L33.2079 36.0541L28.0849 31.1433L29.2198 29.6902ZM35.8007 25.4215L33.5415 27.6807L35.4294 29.696L37.4553 27.6701L38.4629 28.9111L36.5219 30.8521L36.8613 31.2127L39.7463 33.8432L38.2614 35.3281L35.8113 32.6234L30.9428 28.0095L34.7824 24.1699L35.8007 25.4215ZM38.4988 20.2414C39.3332 19.407 40.3373 19.0394 41.5111 19.1383C42.692 19.2303 43.7738 19.7677 44.7567 20.7506C46.0012 21.9951 46.6836 23.3209 46.8038 24.728C46.924 26.1352 46.4608 27.362 45.4143 28.4085C44.6011 29.2217 43.5935 29.5788 42.3914 29.4798C41.1823 29.3737 40.0969 28.8399 39.1352 27.8782C37.9331 26.6761 37.272 25.3574 37.1518 23.9219C37.0316 22.4865 37.4806 21.2597 38.4988 20.2414ZM43.9082 22.787C42.1192 20.998 40.6378 20.6904 39.464 21.8642C38.9266 22.4016 38.7039 23.0274 38.7958 23.7416C38.8877 24.4417 39.3332 25.1912 40.1322 25.9902C40.9242 26.7822 41.7409 27.2736 42.5823 27.4645C43.4238 27.6413 44.1132 27.461 44.6506 26.9236C45.1951 26.3791 45.3966 25.7463 45.2552 25.025C45.1138 24.2896 44.6648 23.5436 43.9082 22.787Z" fill="black"/>
<rect x="2.12132" y="40.7819" width="54.6743" height="34" rx="17" transform="rotate(-45 2.12132 40.7819)" fill="white" fill-opacity="0.6" stroke="black" stroke-width="3"/>
</svg>
