<svg width="44" height="106" viewBox="0 0 44 106" fill="none" xmlns="http://www.w3.org/2000/svg">
<mask id="path-1-inside-1_27_13" fill="white">
<path fill-rule="evenodd" clip-rule="evenodd" d="M0 53.4326C0 32.9279 7.66638 14.2137 20.2892 0L43.5491 23.2599C36.9543 31.3514 33 41.6802 33 52.9326C33 63.9078 36.7619 74.0044 43.0665 82.0033L19.3182 105.752C7.2743 91.6808 0 73.4062 0 53.4326ZM23 43.4734L8 53.4326L23 63.3919V43.4734Z"/>
</mask>
<path fill-rule="evenodd" clip-rule="evenodd" d="M0 53.4326C0 32.9279 7.66638 14.2137 20.2892 0L43.5491 23.2599C36.9543 31.3514 33 41.6802 33 52.9326C33 63.9078 36.7619 74.0044 43.0665 82.0033L19.3182 105.752C7.2743 91.6808 0 73.4062 0 53.4326ZM23 43.4734L8 53.4326L23 63.3919V43.4734Z" fill="black" fill-opacity="0.92"/>
<path d="M20.2892 0L22.4105 -2.12132L20.1597 -4.37212L18.046 -1.99207L20.2892 0ZM43.5491 23.2599L45.8746 25.1552L47.5865 23.0547L45.6704 21.1386L43.5491 23.2599ZM43.0665 82.0033L45.1878 84.1246L47.0727 82.2397L45.4226 80.1462L43.0665 82.0033ZM19.3182 105.752L17.039 107.702L19.1471 110.165L21.4395 107.873L19.3182 105.752ZM8 53.4326L6.3406 50.9334L2.57636 53.4326L6.3406 55.9319L8 53.4326ZM23 43.4734H26V37.8805L21.3406 40.9741L23 43.4734ZM23 63.3919L21.3406 65.8912L26 68.9848V63.3919H23ZM18.046 -1.99207C4.95451 12.7494 -3 32.1657 -3 53.4326H3C3 33.69 10.3782 15.6779 22.5323 1.99207L18.046 -1.99207ZM45.6704 21.1386L22.4105 -2.12132L18.1679 2.12132L41.4278 25.3812L45.6704 21.1386ZM36 52.9326C36 42.3957 39.7001 32.731 45.8746 25.1552L41.2236 21.3646C34.2085 29.9718 30 40.9648 30 52.9326H36ZM45.4226 80.1462C39.5201 72.6575 36 63.2104 36 52.9326H30C30 64.6053 34.0036 75.3512 40.7104 83.8603L45.4226 80.1462ZM21.4395 107.873L45.1878 84.1246L40.9452 79.8819L17.1968 103.63L21.4395 107.873ZM-3 53.4326C-3 74.1482 4.54756 93.1086 17.039 107.702L21.5973 103.801C10.001 90.253 3 72.6642 3 53.4326H-3ZM9.6594 55.9319L24.6594 45.9726L21.3406 40.9741L6.3406 50.9334L9.6594 55.9319ZM24.6594 60.8927L9.6594 50.9334L6.3406 55.9319L21.3406 65.8912L24.6594 60.8927ZM20 43.4734V63.3919H26V43.4734H20Z" fill="black" mask="url(#path-1-inside-1_27_13)"/>
</svg>
