<svg width="67" height="55" viewBox="0 0 67 55" fill="none" xmlns="http://www.w3.org/2000/svg">
<path d="M20.8377 27.5661L22.2535 24.2025L24.275 18.1222L26.4048 18.4983L23.9758 24.558L23.2434 26.8774L26.215 27.7035L25.4751 29.254L20.8377 27.5661ZM32.4064 20.6827L29.9774 26.7424L28.8126 30.4687L26.8393 29.7505L28.2551 26.3869L30.2766 20.3066L32.4064 20.6827ZM32.2687 28.5501C32.7767 29.6395 33.4301 30.3296 34.2288 30.6203C34.6423 30.7708 35.0054 30.7966 35.3181 30.6975C35.6436 30.5925 35.8611 30.3897 35.9706 30.089C36.0834 29.7789 36.0271 29.4658 35.8017 29.1496C35.5796 28.824 35.2816 28.5027 34.9074 28.1856C34.5427 27.872 34.1849 27.5395 33.8338 27.1883C33.4862 26.8276 33.2304 26.4046 33.0665 25.9193C32.9027 25.434 32.9182 24.9235 33.1131 24.3879C33.421 23.5422 34.0384 22.9422 34.9655 22.5879C35.896 22.2242 36.8452 22.2185 37.8131 22.5708C38.2547 22.7315 38.6652 22.9341 39.0444 23.1786C39.4237 23.423 39.7735 23.7047 40.0938 24.0234L38.3863 25.7325C38.1984 25.43 37.905 25.1104 37.5061 24.7736C37.1201 24.4309 36.7532 24.1963 36.4055 24.0698C36.0672 23.9466 35.7592 23.9303 35.4815 24.0208C35.2166 24.1053 35.0346 24.2838 34.9354 24.5563C34.8362 24.8288 34.8977 25.1279 35.1197 25.4534C35.3452 25.7696 35.6403 26.0845 36.005 26.3982C36.3791 26.7153 36.7417 27.0494 37.0927 27.4007C37.4566 27.7459 37.7204 28.1612 37.8843 28.6466C38.0482 29.1319 38.0327 29.6424 37.8377 30.178C37.5162 31.0613 36.8817 31.7083 35.9341 32.1189C34.9899 32.5202 34.048 32.5498 33.1083 32.2078C32.4035 31.9513 31.8402 31.5547 31.4183 31.0181C31.0451 30.5523 30.8008 30.1708 30.6856 29.8734L30.6151 29.6722L32.2687 28.5501ZM40.004 25.3635L40.749 23.799L47.4443 26.2359L46.6993 27.8004L44.3236 26.6963L42.5742 31.3273L41.4095 35.0536L39.4362 34.3354L40.852 30.9718L42.5707 26.0743L40.004 25.3635Z" fill="black"/>
<rect x="53.2996" y="52.5718" width="54.6743" height="34" rx="17" transform="rotate(-160 53.2996 52.5718)" fill="white" fill-opacity="0.6" stroke="black" stroke-width="3"/>
</svg>
