<svg width="67" height="52" viewBox="0 0 67 52" fill="none" xmlns="http://www.w3.org/2000/svg">
<g clip-path="url(#clip0_11_671)">
<path d="M37.2553 18.1441C37.242 8.13836 25.9627 1.97585 2.08111 0H2.07901C1.12824 0 0.356476 0.683592 0.356476 1.52852V35.1612C0.356476 36.0052 1.12824 36.6897 2.07901 36.6897H3.64202C17.9027 34.8854 27.9648 31.1985 33.1807 26.5655C35.8879 24.1576 37.2593 21.3269 37.2553 18.1441Z" fill="#0092CF"/>
<path d="M64.4633 0H50.6202C53.612 0.985903 56.1185 2.65331 58.0704 4.30662C60.101 6.02976 61.4296 8.00653 62.0263 10.1863C63.0968 14.1113 61.5442 18.207 57.7531 21.4232C52.7031 25.7186 44.8343 29.2736 34.369 31.9969C28.3937 33.5528 21.533 35.4006 14.1433 36.6897H64.4633C65.4151 36.6897 66.1858 36.0052 66.1858 35.1612V1.52865C66.1858 0.683723 65.4151 0.000130584 64.4633 0.000130584M5.25417 44.1761C4.84056 43.7267 4.28996 43.5219 3.58683 43.5219H1.78224V50.5933H3.58683C4.28996 50.5933 4.84056 50.3883 5.25417 49.939C5.76275 49.3782 5.77816 48.3274 5.77816 46.9896C5.77816 45.6517 5.76275 44.7369 5.25417 44.1761ZM6.27357 51.004C5.65316 51.6175 4.75771 51.9178 3.73831 51.9178H0.294174V42.1971H3.73831C4.75771 42.1971 5.65329 42.4973 6.27357 43.1121C7.33485 44.1638 7.26636 45.5828 7.26636 46.9896C7.26636 48.3954 7.33485 49.9522 6.27357 51.004ZM11.3665 51.9179H12.8545V42.1968H11.3665V51.9179ZM20.9507 43.5219H18.7461V46.5656H20.9507C21.9426 46.5656 22.617 46.0057 22.617 45.0503C22.617 44.0948 21.9426 43.5217 20.9507 43.5217V43.5219ZM22.6723 51.9179L20.6057 47.8222H18.7461V51.9179H17.2579V42.1972H21.0602C22.92 42.1972 24.1052 43.3849 24.1052 45.0371C24.1052 46.4297 23.2516 47.3172 22.1482 47.6174L24.4091 51.9179H22.6723ZM28.1992 51.9179V42.1972H34.4671V43.5219H29.6864V46.3617H33.764V47.6712H29.6864V50.5933H34.4671V51.9179H28.1992ZM41.427 52C40.4066 52 39.5254 51.6319 38.8508 50.9624C37.8857 50.006 37.9 48.9278 37.9 47.0576C37.9 45.1872 37.8857 44.1091 38.8508 43.1526C39.5252 42.4843 40.4066 42.1162 41.427 42.1162C43.2315 42.1162 44.5815 43.1658 44.9264 45.1061H43.4106C43.1762 44.1223 42.5161 43.4396 41.427 43.4396C40.8477 43.4396 40.3247 43.6576 39.9798 44.027C39.4988 44.5463 39.3872 45.1061 39.3872 47.0576C39.3872 49.0099 39.4988 49.5699 39.9798 50.0881C40.3247 50.4574 40.8479 50.6755 41.427 50.6755C42.5161 50.6755 43.1905 49.9939 43.4239 49.0099H44.9264C44.5957 50.9483 43.2048 52 41.427 52ZM53.1309 44.3271V51.9179H50.7195V44.3271H48.3091V42.1972H55.5423V44.3271H53.1309ZM63.454 51.9179H61.663L58.4246 42.1972H60.9189L62.5729 47.6316L64.1984 42.1972H66.7058L63.454 51.9179Z" fill="#00539B"/>
</g>
<defs>
<clipPath id="clip0_11_671">
<rect width="67" height="52" fill="white"/>
</clipPath>
</defs>
</svg>