<svg width="42" height="42" viewBox="0 0 42 42" fill="none" xmlns="http://www.w3.org/2000/svg">
<circle cx="21" cy="21" r="19.5" fill="white" fill-opacity="0.6" stroke="black" stroke-width="3"/>
<path d="M12 18.2483V23.2116C12 25.6932 13.1912 26.934 15.5736 26.934H17.277C17.7177 26.934 18.1584 27.0705 18.5396 27.3063L22.0179 29.577C25.0197 31.5375 27.4854 30.1105 27.4854 26.4253V15.0346C27.4854 11.337 25.0197 9.92246 22.0179 11.8829L18.5396 14.1536C18.1584 14.3894 17.7177 14.5259 17.277 14.5259H15.5736C13.1912 14.5259 12 15.7667 12 18.2483Z" fill="white" fill-opacity="0.6" stroke="#292D32" stroke-width="2.23347"/>
<line y1="-1.5" x2="27.7013" y2="-1.5" transform="matrix(0.721988 -0.691905 0.661979 0.749523 12 31)" stroke="black" stroke-width="3"/>
</svg>
