<svg width="42" height="42" viewBox="0 0 42 42" fill="none" xmlns="http://www.w3.org/2000/svg">
<circle cx="21" cy="21" r="19.5" fill="white" fill-opacity="0.6" stroke="black" stroke-width="3"/>
<path d="M5.26 26V16.228C5.64267 16.1813 6.06267 16.1487 6.52 16.13C6.98667 16.102 7.46733 16.088 7.962 16.088C8.774 16.088 9.46467 16.2187 10.034 16.48C10.6033 16.732 11.0373 17.082 11.336 17.53C11.6347 17.978 11.784 18.4913 11.784 19.07C11.784 19.77 11.6113 20.3627 11.266 20.848C10.9207 21.3333 10.44 21.7067 9.824 21.968C9.208 22.22 8.494 22.346 7.682 22.346C7.29 22.346 6.926 22.332 6.59 22.304V26H5.26ZM7.85 21.24C8.68067 21.24 9.32467 21.0533 9.782 20.68C10.2393 20.3067 10.468 19.8073 10.468 19.182C10.468 18.5753 10.2487 18.0947 9.81 17.74C9.37133 17.3853 8.746 17.208 7.934 17.208C7.682 17.208 7.444 17.2127 7.22 17.222C6.996 17.2313 6.786 17.2453 6.59 17.264V21.17C6.73933 21.1887 6.92133 21.2073 7.136 21.226C7.35067 21.2353 7.58867 21.24 7.85 21.24ZM19.1068 26.168L17.8888 23.508C17.5808 22.8453 17.1934 22.374 16.7268 22.094C16.2601 21.814 15.6628 21.674 14.9348 21.674H14.7248V26H13.3948V16.228C13.8894 16.1813 14.3608 16.1487 14.8088 16.13C15.2661 16.102 15.7514 16.088 16.2648 16.088C17.4594 16.088 18.3554 16.3307 18.9528 16.816C19.5594 17.3013 19.8628 17.9267 19.8628 18.692C19.8628 19.3733 19.6574 19.924 19.2468 20.344C18.8454 20.7547 18.2621 21.0627 17.4968 21.268C17.7488 21.38 17.9728 21.5153 18.1688 21.674C18.3648 21.8233 18.5514 22.0287 18.7288 22.29C18.9154 22.542 19.1021 22.8733 19.2888 23.284L20.3528 25.58L19.1068 26.168ZM14.7248 20.554H16.2648C16.9368 20.554 17.4828 20.4047 17.9028 20.106C18.3228 19.8073 18.5328 19.378 18.5328 18.818C18.5328 18.3513 18.3368 17.9687 17.9448 17.67C17.5528 17.362 16.9928 17.208 16.2648 17.208C15.9474 17.208 15.6628 17.2127 15.4108 17.222C15.1588 17.2313 14.9301 17.2453 14.7248 17.264V20.554ZM22.0354 26V16.2H27.9154V17.348H23.3654V20.33H27.2854V21.45H23.3654V24.852H27.9154V26H22.0354ZM32.279 26L28.681 16.55L29.983 16.046L33.063 24.544L36.157 16.088L37.361 16.55L33.777 26H32.279Z" fill="black"/>
</svg>
