<svg width="45" height="106" viewBox="0 0 45 106" fill="none" xmlns="http://www.w3.org/2000/svg">
<mask id="path-1-inside-1_27_14" fill="white">
<path fill-rule="evenodd" clip-rule="evenodd" d="M44.1413 53.4775C44.1413 73.4727 36.8512 91.7652 24.784 105.842L0.475021 81.5331C6.53831 73.6178 10.1413 63.7184 10.1413 52.9775C10.1413 41.959 6.34967 31.826 0 23.8122L23.8122 0C36.4588 14.2191 44.1413 32.9511 44.1413 53.4775ZM36.1413 53.4775L21.1413 63.4368V43.5182L36.1413 53.4775Z"/>
</mask>
<path fill-rule="evenodd" clip-rule="evenodd" d="M44.1413 53.4775C44.1413 73.4727 36.8512 91.7652 24.784 105.842L0.475021 81.5331C6.53831 73.6178 10.1413 63.7184 10.1413 52.9775C10.1413 41.959 6.34967 31.826 0 23.8122L23.8122 0C36.4588 14.2191 44.1413 32.9511 44.1413 53.4775ZM36.1413 53.4775L21.1413 63.4368V43.5182L36.1413 53.4775Z" fill="black" fill-opacity="0.92"/>
<path d="M24.784 105.842L22.6627 107.963L24.9534 110.254L27.0617 107.795L24.784 105.842ZM0.475021 81.5331L-1.90653 79.7087L-3.50511 81.7956L-1.6463 83.6544L0.475021 81.5331ZM0 23.8122L-2.12132 21.6909L-4.01106 23.5807L-2.35136 25.6753L0 23.8122ZM23.8122 0L26.0539 -1.99373L23.9401 -4.37045L21.6909 -2.12132L23.8122 0ZM21.1413 63.4368H18.1413V69.0297L22.8007 65.9361L21.1413 63.4368ZM36.1413 53.4775L37.8007 55.9768L41.5649 53.4775L37.8007 50.9782L36.1413 53.4775ZM21.1413 43.5182L22.8007 41.0189L18.1413 37.9253V43.5182H21.1413ZM27.0617 107.795C39.5774 93.1945 47.1413 74.2155 47.1413 53.4775H41.1413C41.1413 72.7298 34.1251 90.3358 22.5064 103.89L27.0617 107.795ZM-1.6463 83.6544L22.6627 107.963L26.9054 103.721L2.59634 79.4117L-1.6463 83.6544ZM7.14129 52.9775C7.14129 63.0361 3.76972 72.2988 -1.90653 79.7087L2.85657 83.3574C9.30691 74.9369 13.1413 64.4007 13.1413 52.9775H7.14129ZM-2.35136 25.6753C3.59333 33.178 7.14129 42.6593 7.14129 52.9775H13.1413C13.1413 41.2587 9.10601 30.4741 2.35136 21.9492L-2.35136 25.6753ZM21.6909 -2.12132L-2.12132 21.6909L2.12132 25.9336L25.9336 2.12132L21.6909 -2.12132ZM47.1413 53.4775C47.1413 32.1882 39.17 12.7534 26.0539 -1.99373L21.5706 1.99373C33.7475 15.6849 41.1413 33.7141 41.1413 53.4775H47.1413ZM22.8007 65.9361L37.8007 55.9768L34.4819 50.9782L19.4819 60.9375L22.8007 65.9361ZM18.1413 43.5182V63.4368H24.1413V43.5182H18.1413ZM37.8007 50.9782L22.8007 41.0189L19.4819 46.0175L34.4819 55.9768L37.8007 50.9782Z" fill="black" mask="url(#path-1-inside-1_27_14)"/>
</svg>
