<svg width="63" height="64" viewBox="0 0 63 64" fill="none" xmlns="http://www.w3.org/2000/svg">
<path d="M0 5.8L0.176 3.96H7.776L7.6 5.8L4.816 5.56L4.752 10.84L4.944 15H2.704L2.896 11.112L2.832 5.576L0 5.8ZM12.5173 13H12.7093L13.5093 10.248L15.1893 3.864L17.1253 4.152L15.2213 10.504L13.9733 14.872L11.0133 15.08L9.87725 10.808L8.02125 4.264L10.2933 3.864L11.7493 10.04L12.5173 13ZM23.3801 3.88L23.1561 10.84L23.3481 15H21.1081L21.3001 11.112L21.1081 4.28L23.3801 3.88ZM34.4003 3.928L34.1923 10.84L34.3683 14.648L32.4803 15.048L27.7123 7.336V10.84L27.9363 15H25.9363L26.1283 11.112L25.9363 4.008L27.8563 3.912L32.6083 11.736L32.4483 4.168L34.4003 3.928ZM40.4395 3.96C41.4635 3.96 42.2795 4.25333 42.8875 4.84C43.4955 5.416 43.7995 6.21067 43.7995 7.224C43.7995 8.23733 43.4155 9.10667 42.6475 9.832C41.8795 10.5467 40.9408 10.904 39.8315 10.904H38.9195L39.1115 15H36.9675L37.1595 11.112L36.9675 3.96H40.4395ZM39.8635 5.576H39.0795L38.9675 9.352H40.0555C40.5888 9.352 40.9995 9.176 41.2875 8.824C41.5862 8.472 41.7355 7.97067 41.7355 7.32C41.7355 6.15733 41.1115 5.576 39.8635 5.576ZM48.4841 15.176C47.5241 15.176 46.7135 14.8827 46.0521 14.296C45.4015 13.7093 45.0761 12.984 45.0761 12.12L44.9161 4.28L47.2201 3.88L46.9641 10.888C46.9641 11.6347 47.1348 12.216 47.4761 12.632C47.8281 13.048 48.3668 13.256 49.0921 13.256C49.8175 13.256 50.3401 13.0533 50.6601 12.648C50.9801 12.2427 51.1401 11.544 51.1401 10.552L50.9481 4.28L53.1881 3.88L53.0121 10.92C53.0121 12.1787 52.5908 13.2027 51.7481 13.992C50.9055 14.7813 49.8175 15.176 48.4841 15.176ZM54.25 5.8L54.426 3.96H62.026L61.85 5.8L59.066 5.56L59.002 10.84L59.194 15H56.954L57.146 11.112L57.082 5.576L54.25 5.8Z" fill="black"/>
<circle cx="32" cy="42" r="20.5" fill="white" fill-opacity="0.6" stroke="black" stroke-width="3"/>
</svg>
