<svg width="105" height="44" viewBox="0 0 105 44" fill="none" xmlns="http://www.w3.org/2000/svg">
<mask id="path-1-inside-1_9_635" fill="white">
<path fill-rule="evenodd" clip-rule="evenodd" d="M80.9352 43.0665L104.684 19.3181C90.6127 7.2743 72.3382 0 52.3646 0C32.3694 0 14.0769 7.29004 0 19.3572L23.309 42.6663C31.2242 36.603 41.1237 33 51.8646 33C62.8398 33 72.9363 36.7619 80.9352 43.0665ZM62.3239 24L52.3646 9L42.4053 24H62.3239Z"/>
</mask>
<path fill-rule="evenodd" clip-rule="evenodd" d="M80.9352 43.0665L104.684 19.3181C90.6127 7.2743 72.3382 0 52.3646 0C32.3694 0 14.0769 7.29004 0 19.3572L23.309 42.6663C31.2242 36.603 41.1237 33 51.8646 33C62.8398 33 72.9363 36.7619 80.9352 43.0665ZM62.3239 24L52.3646 9L42.4053 24H62.3239Z" fill="black" fill-opacity="0.92"/>
<path d="M104.684 19.3181L106.805 21.4395L109.097 19.1471L106.634 17.039L104.684 19.3181ZM80.9352 43.0665L79.0781 45.4226L81.1716 47.0727L83.0565 45.1878L80.9352 43.0665ZM0 19.3572L-1.95249 17.0796L-4.41197 19.1879L-2.12132 21.4786L0 19.3572ZM23.309 42.6663L21.1877 44.7876L23.0465 46.6464L25.1334 45.0478L23.309 42.6663ZM52.3646 9L54.8639 7.3406L52.3646 3.57636L49.8653 7.3406L52.3646 9ZM62.3239 24V27H67.9168L64.8232 22.3406L62.3239 24ZM42.4053 24L39.906 22.3406L36.8124 27H42.4053V24ZM102.562 17.1968L78.8139 40.9452L83.0565 45.1878L106.805 21.4395L102.562 17.1968ZM52.3646 3C71.5961 3 89.1849 10.001 102.733 21.5973L106.634 17.039C92.0406 4.54756 73.0802 -3 52.3646 -3V3ZM1.95249 21.6349C15.5062 10.0162 33.1122 3 52.3646 3V-3C31.6266 -3 12.6476 4.5639 -1.95249 17.0796L1.95249 21.6349ZM25.4303 40.5449L2.12132 17.2359L-2.12132 21.4786L21.1877 44.7876L25.4303 40.5449ZM51.8646 30C40.4414 30 29.9052 33.8344 21.4847 40.2847L25.1334 45.0478C32.5433 39.3716 41.806 36 51.8646 36V30ZM82.7923 40.7104C74.2832 34.0036 63.5373 30 51.8646 30V36C62.1423 36 71.5895 39.5201 79.0781 45.4226L82.7923 40.7104ZM49.8653 10.6594L59.8246 25.6594L64.8232 22.3406L54.8639 7.3406L49.8653 10.6594ZM44.9046 25.6594L54.8639 10.6594L49.8653 7.3406L39.906 22.3406L44.9046 25.6594ZM62.3239 21H42.4053V27H62.3239V21Z" fill="black" mask="url(#path-1-inside-1_9_635)"/>
</svg>
