<svg width="60" height="65" viewBox="0 0 60 65" fill="none" xmlns="http://www.w3.org/2000/svg">
<mask id="path-1-inside-1_27_35" fill="white">
<path fill-rule="evenodd" clip-rule="evenodd" d="M0 0L6.75694 42.2309C8.8098 55.0613 19.8788 64.5 32.8724 64.5H37.32C49.4703 64.5 59.32 54.6503 59.32 42.5L57.1843 0H39.2019V5.64H44.3379V7H37.6819V0H35.3132C35.4017 0.442087 35.446 0.90342 35.446 1.384C35.446 2.184 35.3233 2.936 35.078 3.64C34.8433 4.344 34.4967 4.96267 34.038 5.496C33.5793 6.01867 33.0247 6.43467 32.374 6.744C31.7233 7.04267 30.982 7.192 30.15 7.192C29.318 7.192 28.5767 7.04267 27.926 6.744C27.2753 6.43467 26.7207 6.01867 26.262 5.496C25.814 4.96267 25.4673 4.344 25.222 3.64C24.9873 2.936 24.87 2.184 24.87 1.384C24.87 0.899885 24.9104 0.438552 24.9912 0H22.9588L20.304 7H18.592L15.9268 0H0ZM17.554 0L19.488 5.336L21.4404 0H17.554ZM26.5682 0C26.4707 0.432455 26.422 0.893788 26.422 1.384C26.422 1.96 26.502 2.52 26.662 3.064C26.8327 3.59733 27.078 4.07733 27.398 4.504C27.718 4.93067 28.1073 5.26667 28.566 5.512C29.0353 5.75733 29.5633 5.88 30.15 5.88C30.9713 5.88 31.6593 5.68267 32.214 5.288C32.7687 4.89333 33.1847 4.36 33.462 3.688C33.75 3.00533 33.894 2.23733 33.894 1.384C33.894 0.908104 33.8358 0.446771 33.7192 0H26.5682ZM23.32 41H41.32V44H23.32V41Z"/>
</mask>
<path fill-rule="evenodd" clip-rule="evenodd" d="M0 0L6.75694 42.2309C8.8098 55.0613 19.8788 64.5 32.8724 64.5H37.32C49.4703 64.5 59.32 54.6503 59.32 42.5L57.1843 0H39.2019V5.64H44.3379V7H37.6819V0H35.3132C35.4017 0.442087 35.446 0.90342 35.446 1.384C35.446 2.184 35.3233 2.936 35.078 3.64C34.8433 4.344 34.4967 4.96267 34.038 5.496C33.5793 6.01867 33.0247 6.43467 32.374 6.744C31.7233 7.04267 30.982 7.192 30.15 7.192C29.318 7.192 28.5767 7.04267 27.926 6.744C27.2753 6.43467 26.7207 6.01867 26.262 5.496C25.814 4.96267 25.4673 4.344 25.222 3.64C24.9873 2.936 24.87 2.184 24.87 1.384C24.87 0.899885 24.9104 0.438552 24.9912 0H22.9588L20.304 7H18.592L15.9268 0H0ZM17.554 0L19.488 5.336L21.4404 0H17.554ZM26.5682 0C26.4707 0.432455 26.422 0.893788 26.422 1.384C26.422 1.96 26.502 2.52 26.662 3.064C26.8327 3.59733 27.078 4.07733 27.398 4.504C27.718 4.93067 28.1073 5.26667 28.566 5.512C29.0353 5.75733 29.5633 5.88 30.15 5.88C30.9713 5.88 31.6593 5.68267 32.214 5.288C32.7687 4.89333 33.1847 4.36 33.462 3.688C33.75 3.00533 33.894 2.23733 33.894 1.384C33.894 0.908104 33.8358 0.446771 33.7192 0H26.5682ZM23.32 41H41.32V44H23.32V41Z" fill="black"/>
<path d="M0 0V-3H-3.51816L-2.96232 0.473972L0 0ZM6.75694 42.2309L3.79462 42.7048L6.75694 42.2309ZM59.32 42.5H62.32V42.4247L62.3162 42.3494L59.32 42.5ZM57.1843 0L60.1805 -0.150564L60.0374 -3H57.1843V0ZM39.2019 0V-3H36.2019V0H39.2019ZM39.2019 5.64H36.2019V8.64H39.2019V5.64ZM44.3379 5.64H47.3379V2.64H44.3379V5.64ZM44.3379 7V10H47.3379V7H44.3379ZM37.6819 7H34.6819V10H37.6819V7ZM37.6819 0H40.6819V-3H37.6819V0ZM35.3132 0V-3H31.6529L32.3716 0.589079L35.3132 0ZM35.078 3.64L32.2451 2.65277L32.2384 2.672L32.2319 2.69132L35.078 3.64ZM34.038 5.496L36.2929 7.47477L36.3028 7.46349L36.3126 7.45211L34.038 5.496ZM32.374 6.744L33.6255 9.47049L33.6438 9.46207L33.6621 9.4534L32.374 6.744ZM27.926 6.744L26.6379 9.4534L26.6562 9.46207L26.6745 9.47049L27.926 6.744ZM26.262 5.496L23.9649 7.42558L23.9857 7.4504L24.0071 7.47477L26.262 5.496ZM25.222 3.64L22.3759 4.58868L22.3824 4.608L22.3891 4.62722L25.222 3.64ZM24.9912 0L27.9415 0.5434L28.5942 -3H24.9912V0ZM22.9588 0V-3H20.8881L20.1538 -1.06384L22.9588 0ZM20.304 7V10H22.3747L23.109 8.06384L20.304 7ZM18.592 7L15.7883 8.06747L16.5241 10H18.592V7ZM15.9268 0L18.7305 -1.06747L17.9947 -3H15.9268V0ZM17.554 0V-3H13.2758L14.7336 1.02224L17.554 0ZM19.488 5.336L16.6675 6.35824L19.4746 14.1033L22.3053 6.36685L19.488 5.336ZM21.4404 0L24.2577 1.03085L25.7326 -3H21.4404V0ZM26.5682 0V-3H24.1691L23.6416 -0.659588L26.5682 0ZM26.662 3.064L23.7839 3.9105L23.7939 3.94454L23.8047 3.97833L26.662 3.064ZM27.398 4.504L24.998 6.304L24.998 6.30401L27.398 4.504ZM28.566 5.512L27.151 8.15735L27.1636 8.16407L27.1762 8.17068L28.566 5.512ZM32.214 5.288L33.9533 7.73238L33.9533 7.73237L32.214 5.288ZM33.462 3.688L30.6979 2.52189L30.6933 2.5327L30.6889 2.54354L33.462 3.688ZM33.7192 0L36.6222 -0.756974L36.0373 -3H33.7192V0ZM41.32 41H44.32V38H41.32V41ZM23.32 41V38H20.32V41H23.32ZM41.32 44V47H44.32V44H41.32ZM23.32 44H20.32V47H23.32V44ZM-2.96232 0.473972L3.79462 42.7048L9.71926 41.7569L2.96232 -0.473972L-2.96232 0.473972ZM3.79462 42.7048C6.08034 56.9906 18.4049 67.5 32.8724 67.5V61.5C21.3527 61.5 11.5393 53.1319 9.71926 41.7569L3.79462 42.7048ZM32.8724 67.5H37.32V61.5H32.8724V67.5ZM37.32 67.5C51.1271 67.5 62.32 56.3071 62.32 42.5H56.32C56.32 52.9934 47.8134 61.5 37.32 61.5V67.5ZM62.3162 42.3494L60.1805 -0.150564L54.1881 0.150564L56.3238 42.6506L62.3162 42.3494ZM57.1843 -3H39.2019V3H57.1843V-3ZM36.2019 0V5.64H42.2019V0H36.2019ZM39.2019 8.64H44.3379V2.64H39.2019V8.64ZM41.3379 5.64V7H47.3379V5.64H41.3379ZM44.3379 4H37.6819V10H44.3379V4ZM40.6819 7V0H34.6819V7H40.6819ZM37.6819 -3H35.3132V3H37.6819V-3ZM32.3716 0.589079C32.4188 0.82496 32.446 1.08833 32.446 1.384H38.446C38.446 0.718515 38.3846 0.059214 38.2548 -0.589079L32.3716 0.589079ZM32.446 1.384C32.446 1.87252 32.372 2.28862 32.2451 2.65277L37.9109 4.62723C38.2747 3.58338 38.446 2.49548 38.446 1.384H32.446ZM32.2319 2.69132C32.1137 3.04618 31.9542 3.31809 31.7634 3.53989L36.3126 7.45211C37.0391 6.60724 37.573 5.64182 37.9241 4.58868L32.2319 2.69132ZM31.7831 3.51723C31.6034 3.72201 31.3816 3.89405 31.0859 4.0346L33.6621 9.4534C34.6678 8.97529 35.5552 8.31532 36.2929 7.47477L31.7831 3.51723ZM31.1225 4.01751C30.9231 4.10903 30.6196 4.192 30.15 4.192V10.192C31.3444 10.192 32.5235 9.97631 33.6255 9.47049L31.1225 4.01751ZM30.15 4.192C29.6804 4.192 29.3769 4.10903 29.1775 4.01751L26.6745 9.47049C27.7765 9.97631 28.9556 10.192 30.15 10.192V4.192ZM29.2141 4.0346C28.9184 3.89405 28.6966 3.72201 28.5169 3.51723L24.0071 7.47477C24.7448 8.31532 25.6322 8.97529 26.6379 9.4534L29.2141 4.0346ZM28.5591 3.56642C28.3615 3.33117 28.1888 3.03711 28.0549 2.65278L22.3891 4.62722C22.7458 5.65089 23.2665 6.59416 23.9649 7.42558L28.5591 3.56642ZM28.0681 2.69132C27.943 2.3162 27.87 1.88671 27.87 1.384H21.87C21.87 2.48129 22.0317 3.5558 22.3759 4.58868L28.0681 2.69132ZM27.87 1.384C27.87 1.06677 27.8964 0.788186 27.9415 0.5434L22.0408 -0.5434C21.9243 0.0889167 21.87 0.732999 21.87 1.384H27.87ZM24.9912 -3H22.9588V3H24.9912V-3ZM20.1538 -1.06384L17.499 5.93616L23.109 8.06384L25.7639 1.06384L20.1538 -1.06384ZM20.304 4H18.592V10H20.304V4ZM21.3957 5.93253L18.7305 -1.06747L13.1232 1.06747L15.7883 8.06747L21.3957 5.93253ZM15.9268 -3H0V3H15.9268V-3ZM14.7336 1.02224L16.6675 6.35824L22.3085 4.31376L20.3745 -1.02224L14.7336 1.02224ZM22.3053 6.36685L24.2577 1.03085L18.6231 -1.03085L16.6707 4.30515L22.3053 6.36685ZM21.4404 -3H17.554V3H21.4404V-3ZM23.6416 -0.659588C23.4905 0.0107437 23.422 0.694961 23.422 1.384H29.422C29.422 1.09262 29.4509 0.854166 29.4948 0.659588L23.6416 -0.659588ZM23.422 1.384C23.422 2.24196 23.5418 3.08724 23.7839 3.9105L29.5401 2.2175C29.4622 1.95276 29.422 1.67804 29.422 1.384H23.422ZM23.8047 3.97833C24.0722 4.81426 24.4674 5.59651 24.998 6.304L29.798 2.704C29.6886 2.55815 29.5931 2.3804 29.5193 2.14967L23.8047 3.97833ZM24.998 6.30401C25.5739 7.07182 26.2963 7.70018 27.151 8.15735L29.981 2.86665C29.9183 2.83316 29.8621 2.78951 29.798 2.70399L24.998 6.30401ZM27.1762 8.17068C28.1192 8.66358 29.1324 8.88 30.15 8.88V2.88C30.0666 2.88 30.0169 2.8714 29.9929 2.86582C29.9702 2.86055 29.9603 2.8557 29.9558 2.85332L27.1762 8.17068ZM30.15 8.88C31.4634 8.88 32.7932 8.55781 33.9533 7.73238L30.4747 2.84363C30.4884 2.83392 30.4891 2.83846 30.4549 2.84827C30.416 2.85942 30.3212 2.88 30.15 2.88V8.88ZM33.9533 7.73237C34.9996 6.98788 35.7576 5.98943 36.2351 4.83246L30.6889 2.54354C30.6117 2.73057 30.5378 2.79879 30.4747 2.84363L33.9533 7.73237ZM36.2261 4.85411C36.6916 3.75065 36.894 2.57763 36.894 1.384H30.894C30.894 1.89703 30.8084 2.26002 30.6979 2.52189L36.2261 4.85411ZM36.894 1.384C36.894 0.660559 36.8051 -0.0555261 36.6222 -0.756974L30.8163 0.756974C30.8664 0.949067 30.894 1.15565 30.894 1.384H36.894ZM33.7192 -3H26.5682V3H33.7192V-3ZM41.32 38H23.32V44H41.32V38ZM44.32 44V41H38.32V44H44.32ZM23.32 47H41.32V41H23.32V47ZM20.32 41V44H26.32V41H20.32Z" fill="black" mask="url(#path-1-inside-1_27_35)"/>
</svg>
