<svg width="63" height="65" viewBox="0 0 63 65" fill="none" xmlns="http://www.w3.org/2000/svg">
<mask id="path-1-inside-1_27_36" fill="white">
<path fill-rule="evenodd" clip-rule="evenodd" d="M0.391548 34.9814C-3.01555 13.6871 16.3574 -4.20964 37.3156 0.871119C50.3096 4.02119 59.684 15.3429 60.355 28.6964L62.1382 64.1822H44.1055V58.9822H42.5855V64.1822H40.34C40.3068 63.526 40.1873 62.9074 39.9817 62.3262C39.747 61.6328 39.4003 61.0195 38.9417 60.4862C38.483 59.9528 37.923 59.5368 37.2617 59.2382C36.611 58.9395 35.875 58.7902 35.0537 58.7902C33.955 58.7902 33.011 59.0462 32.2217 59.5582C31.4323 60.0595 30.8243 60.7475 30.3977 61.6222C30.0308 62.3842 29.8256 63.2376 29.7824 64.1822H27.4832L29.3037 59.3822L27.9277 58.8542L25.9782 64.1822H22.8201L20.8717 58.8062L19.3837 59.3822L21.2112 64.1822H5.06367L0.391548 34.9814ZM38.7848 64.1822H31.336C31.3735 63.4918 31.5141 62.8625 31.7577 62.2942C32.0563 61.6222 32.483 61.0888 33.0377 60.6942C33.603 60.2995 34.275 60.1022 35.0537 60.1022C35.6403 60.1022 36.163 60.2248 36.6217 60.4702C37.091 60.7155 37.4857 61.0515 37.8057 61.4782C38.1257 61.8942 38.371 62.3688 38.5417 62.9022C38.6741 63.316 38.7551 63.7427 38.7848 64.1822ZM26.4825 22.1822V29.441H19.2237V34.2802H26.4825V41.5389H31.3216V34.2802H38.5804V29.441H31.3216V22.1822H26.4825Z"/>
</mask>
<path fill-rule="evenodd" clip-rule="evenodd" d="M0.391548 34.9814C-3.01555 13.6871 16.3574 -4.20964 37.3156 0.871119C50.3096 4.02119 59.684 15.3429 60.355 28.6964L62.1382 64.1822H44.1055V58.9822H42.5855V64.1822H40.34C40.3068 63.526 40.1873 62.9074 39.9817 62.3262C39.747 61.6328 39.4003 61.0195 38.9417 60.4862C38.483 59.9528 37.923 59.5368 37.2617 59.2382C36.611 58.9395 35.875 58.7902 35.0537 58.7902C33.955 58.7902 33.011 59.0462 32.2217 59.5582C31.4323 60.0595 30.8243 60.7475 30.3977 61.6222C30.0308 62.3842 29.8256 63.2376 29.7824 64.1822H27.4832L29.3037 59.3822L27.9277 58.8542L25.9782 64.1822H22.8201L20.8717 58.8062L19.3837 59.3822L21.2112 64.1822H5.06367L0.391548 34.9814ZM38.7848 64.1822H31.336C31.3735 63.4918 31.5141 62.8625 31.7577 62.2942C32.0563 61.6222 32.483 61.0888 33.0377 60.6942C33.603 60.2995 34.275 60.1022 35.0537 60.1022C35.6403 60.1022 36.163 60.2248 36.6217 60.4702C37.091 60.7155 37.4857 61.0515 37.8057 61.4782C38.1257 61.8942 38.371 62.3688 38.5417 62.9022C38.6741 63.316 38.7551 63.7427 38.7848 64.1822ZM26.4825 22.1822V29.441H19.2237V34.2802H26.4825V41.5389H31.3216V34.2802H38.5804V29.441H31.3216V22.1822H26.4825Z" fill="black"/>
<path d="M37.3156 0.871119L38.0224 -2.04443L37.3156 0.871119ZM0.391548 34.9814L3.35387 34.5075L0.391548 34.9814ZM60.355 28.6964L57.3588 28.847V28.847L60.355 28.6964ZM62.1382 64.1822V67.1822H65.2928L65.1345 64.0316L62.1382 64.1822ZM44.1055 64.1822H41.1055V67.1822H44.1055V64.1822ZM44.1055 58.9822H47.1055V55.9822H44.1055V58.9822ZM42.5855 58.9822V55.9822H39.5855V58.9822H42.5855ZM42.5855 64.1822V67.1822H45.5855V64.1822H42.5855ZM40.34 64.1822L37.3439 64.3341L37.4883 67.1822H40.34V64.1822ZM39.9817 62.3262L37.14 63.288L37.1466 63.3075L37.1535 63.3269L39.9817 62.3262ZM37.2617 59.2382L36.0102 61.9647L36.0185 61.9685L36.0269 61.9723L37.2617 59.2382ZM32.2217 59.5582L33.8301 62.0906L33.8422 62.0829L33.8542 62.0751L32.2217 59.5582ZM30.3977 61.6222L27.7014 60.3069L27.698 60.3138L27.6947 60.3207L30.3977 61.6222ZM29.7824 64.1822V67.1822H32.648L32.7792 64.3195L29.7824 64.1822ZM27.4832 64.1822L24.6782 63.1183L23.1369 67.1822H27.4832V64.1822ZM29.3037 59.3822L32.1087 60.446L33.1684 57.6519L30.3784 56.5813L29.3037 59.3822ZM27.9277 58.8542L29.0024 56.0533L26.1574 54.9616L25.1103 57.8233L27.9277 58.8542ZM25.9782 64.1822V67.1822H28.075L28.7955 65.213L25.9782 64.1822ZM22.8201 64.1822L19.9997 65.2044L20.7165 67.1822H22.8201V64.1822ZM20.8717 58.8062L23.6921 57.7839L22.6475 54.9018L19.7887 56.0085L20.8717 58.8062ZM19.3837 59.3822L18.3007 56.5845L15.5184 57.6615L16.58 60.4496L19.3837 59.3822ZM21.2112 64.1822V67.1822H25.5635L24.0149 63.1147L21.2112 64.1822ZM5.06367 64.1822L2.10135 64.6561L2.50551 67.1822H5.06367V64.1822ZM31.336 64.1822L28.3404 64.0191L28.1682 67.1822H31.336V64.1822ZM38.7848 64.1822V67.1822H41.9942L41.778 63.9801L38.7848 64.1822ZM31.7577 62.2942L29.0162 61.0758L29.0081 61.094L29.0002 61.1124L31.7577 62.2942ZM33.0377 60.6942L31.3204 58.2343L31.3094 58.242L31.2984 58.2498L33.0377 60.6942ZM36.6217 60.4702L35.2067 63.1155L35.2193 63.1222L35.2319 63.1289L36.6217 60.4702ZM37.8057 61.4782L35.4057 63.2782L35.4166 63.2928L35.4278 63.3073L37.8057 61.4782ZM38.5417 62.9022L35.6844 63.8165L35.6844 63.8165L38.5417 62.9022ZM26.4825 29.441V32.441H29.4825V29.441H26.4825ZM26.4825 22.1822V19.1822H23.4825V22.1822H26.4825ZM19.2237 29.441V26.441H16.2237V29.441H19.2237ZM19.2237 34.2802H16.2237V37.2802H19.2237V34.2802ZM26.4825 34.2802H29.4825V31.2802H26.4825V34.2802ZM26.4825 41.5389H23.4825V44.5389H26.4825V41.5389ZM31.3216 41.5389V44.5389H34.3217V41.5389H31.3216ZM31.3216 34.2802V31.2802H28.3216V34.2802H31.3216ZM38.5804 34.2802V37.2802H41.5804V34.2802H38.5804ZM38.5804 29.441H41.5804V26.441H38.5804V29.441ZM31.3216 29.441H28.3216V32.441H31.3216V29.441ZM31.3216 22.1822H34.3217V19.1822H31.3216V22.1822ZM38.0224 -2.04443C14.9816 -7.63007 -6.31643 12.045 -2.57077 35.4554L3.35387 34.5075C0.285334 15.3291 17.7332 -0.789219 36.6088 3.78667L38.0224 -2.04443ZM63.3513 28.5459C62.6135 13.8654 52.3076 1.41866 38.0224 -2.04443L36.6088 3.78667C48.3116 6.62372 56.7545 16.8204 57.3588 28.847L63.3513 28.5459ZM65.1345 64.0316L63.3513 28.5459L57.3588 28.847L59.142 64.3327L65.1345 64.0316ZM44.1055 67.1822H62.1382V61.1822H44.1055V67.1822ZM41.1055 58.9822V64.1822H47.1055V58.9822H41.1055ZM42.5855 61.9822H44.1055V55.9822H42.5855V61.9822ZM45.5855 64.1822V58.9822H39.5855V64.1822H45.5855ZM40.34 67.1822H42.5855V61.1822H40.34V67.1822ZM37.1535 63.3269C37.2563 63.6174 37.3243 63.9485 37.3439 64.3341L43.3362 64.0303C43.2892 63.1036 43.1184 62.1973 42.8098 61.3254L37.1535 63.3269ZM36.6671 62.4423C36.8645 62.6718 37.0237 62.9443 37.14 63.288L42.8233 61.3644C42.4703 60.3213 41.9362 59.3672 41.2162 58.53L36.6671 62.4423ZM36.0269 61.9723C36.302 62.0965 36.5032 62.2517 36.6671 62.4423L41.2162 58.53C40.4628 57.654 39.544 56.9772 38.4964 56.5041L36.0269 61.9723ZM35.0537 61.7902C35.5065 61.7902 35.8059 61.8709 36.0102 61.9647L38.5132 56.5117C37.4161 56.0081 36.2436 55.7902 35.0537 55.7902V61.7902ZM33.8542 62.0751C34.0804 61.9283 34.4352 61.7902 35.0537 61.7902V55.7902C33.4748 55.7902 31.9416 56.164 30.5891 57.0413L33.8542 62.0751ZM33.094 62.9374C33.2879 62.5399 33.5285 62.2821 33.8301 62.0906L30.6133 57.0258C29.3361 57.8369 28.3608 58.9551 27.7014 60.3069L33.094 62.9374ZM32.7792 64.3195C32.8062 63.7311 32.9287 63.2807 33.1007 62.9236L27.6947 60.3207C27.1328 61.4877 26.8451 62.744 26.7855 64.0448L32.7792 64.3195ZM27.4832 67.1822H29.7824V61.1822H27.4832V67.1822ZM26.4986 58.3183L24.6782 63.1183L30.2883 65.246L32.1087 60.446L26.4986 58.3183ZM26.8529 61.655L28.2289 62.183L30.3784 56.5813L29.0024 56.0533L26.8529 61.655ZM28.7955 65.213L30.745 59.885L25.1103 57.8233L23.1609 63.1513L28.7955 65.213ZM22.8201 67.1822H25.9782V61.1822H22.8201V67.1822ZM18.0512 59.8284L19.9997 65.2044L25.6406 63.1599L23.6921 57.7839L18.0512 59.8284ZM20.4667 62.1799L21.9546 61.6039L19.7887 56.0085L18.3007 56.5845L20.4667 62.1799ZM24.0149 63.1147L22.1873 58.3147L16.58 60.4496L18.4076 65.2496L24.0149 63.1147ZM5.06367 67.1822H21.2112V61.1822H5.06367V67.1822ZM-2.57077 35.4554L2.10135 64.6561L8.02599 63.7082L3.35387 34.5075L-2.57077 35.4554ZM31.336 67.1822H38.7848V61.1822H31.336V67.1822ZM29.0002 61.1124C28.6029 62.0396 28.3948 63.019 28.3404 64.0191L34.3315 64.3453C34.3522 63.9646 34.4253 63.6854 34.5151 63.4759L29.0002 61.1124ZM31.2984 58.2498C30.2709 58.9809 29.515 59.9535 29.0162 61.0758L34.4991 63.5126C34.5977 63.2908 34.6951 63.1968 34.7769 63.1385L31.2984 58.2498ZM35.0537 57.1022C33.7433 57.1022 32.4531 57.4436 31.3204 58.2343L34.7549 63.154C34.7672 63.1455 34.7813 63.1373 34.8109 63.1286C34.8437 63.119 34.9189 63.1022 35.0537 63.1022V57.1022ZM38.0366 57.8248C37.0896 57.3182 36.07 57.1022 35.0537 57.1022V63.1022C35.1373 63.1022 35.1832 63.1108 35.2002 63.1148C35.2156 63.1184 35.2148 63.1199 35.2067 63.1155L38.0366 57.8248ZM40.2057 59.6782C39.6192 58.8962 38.8802 58.2656 38.0114 57.8115L35.2319 63.1289C35.3018 63.1654 35.3522 63.2069 35.4057 63.2782L40.2057 59.6782ZM41.3989 61.9878C41.1297 61.1464 40.7288 60.3579 40.1835 59.649L35.4278 63.3073C35.5225 63.4305 35.6123 63.5913 35.6844 63.8165L41.3989 61.9878ZM41.778 63.9801C41.7322 63.3019 41.6063 62.6359 41.3989 61.9878L35.6844 63.8165C35.7419 63.9961 35.7781 64.1834 35.7916 64.3843L41.778 63.9801ZM29.4825 29.441V22.1822H23.4825V29.441H29.4825ZM19.2237 32.441H26.4825V26.441H19.2237V32.441ZM22.2237 34.2802V29.441H16.2237V34.2802H22.2237ZM26.4825 31.2802H19.2237V37.2802H26.4825V31.2802ZM29.4825 41.5389V34.2802H23.4825V41.5389H29.4825ZM31.3216 38.5389H26.4825V44.5389H31.3216V38.5389ZM28.3216 34.2802V41.5389H34.3217V34.2802H28.3216ZM38.5804 31.2802H31.3216V37.2802H38.5804V31.2802ZM35.5804 29.441V34.2802H41.5804V29.441H35.5804ZM31.3216 32.441H38.5804V26.441H31.3216V32.441ZM28.3216 22.1822V29.441H34.3217V22.1822H28.3216ZM26.4825 25.1822H31.3216V19.1822H26.4825V25.1822Z" fill="black" mask="url(#path-1-inside-1_27_36)"/>
</svg>
