<svg width="104" height="48" viewBox="0 0 104 48" fill="none" xmlns="http://www.w3.org/2000/svg">
<mask id="path-1-inside-1_67_305" fill="white">
<path fill-rule="evenodd" clip-rule="evenodd" d="M103.219 26.8513C74.2244 54.3469 28.4259 53.8817 0 25.4558L25.4558 0C39.8214 14.3656 62.8272 14.8248 77.7452 1.37764L103.219 26.8513Z"/>
</mask>
<path fill-rule="evenodd" clip-rule="evenodd" d="M103.219 26.8513C74.2244 54.3469 28.4259 53.8817 0 25.4558L25.4558 0C39.8214 14.3656 62.8272 14.8248 77.7452 1.37764L103.219 26.8513Z" fill="black"/>
<path d="M0 25.4558L-0.707107 24.7487L-1.41421 25.4558L-0.707107 26.163L0 25.4558ZM103.219 26.8513L103.907 27.5769L104.652 26.8703L103.926 26.1442L103.219 26.8513ZM25.4558 0L26.163 -0.707107L25.4558 -1.41421L24.7487 -0.707107L25.4558 0ZM77.7452 1.37764L78.4523 0.67053L77.7809 -0.000860985L77.0756 0.634862L77.7452 1.37764ZM-0.707107 26.163C28.103 54.9731 74.5203 55.4444 103.907 27.5769L102.531 26.1257C73.9285 53.2494 28.7488 52.7904 0.707107 24.7487L-0.707107 26.163ZM24.7487 -0.707107L-0.707107 24.7487L0.707107 26.163L26.163 0.707107L24.7487 -0.707107ZM77.0756 0.634862C62.5509 13.7275 40.1502 13.2802 26.163 -0.707107L24.7487 0.707107C39.4925 15.4509 63.1036 15.922 78.4147 2.12041L77.0756 0.634862ZM103.926 26.1442L78.4523 0.67053L77.0381 2.08474L102.512 27.5584L103.926 26.1442Z" fill="white" mask="url(#path-1-inside-1_67_305)"/>
<path d="M52 35L44.2058 24.5H59.7942L52 35Z" fill="#D9D9D9"/>
</svg>
