<svg width="46" height="102" viewBox="0 0 46 102" fill="none" xmlns="http://www.w3.org/2000/svg">
<mask id="path-1-inside-1_67_266" fill="white">
<path fill-rule="evenodd" clip-rule="evenodd" d="M20.2786 0C-6.52971 28.2698 -6.75759 72.514 19.595 101.055L45.0911 75.5592C32.7531 61.1307 32.9735 39.6502 45.7523 25.4737L20.2786 0Z"/>
</mask>
<path fill-rule="evenodd" clip-rule="evenodd" d="M20.2786 0C-6.52971 28.2698 -6.75759 72.514 19.595 101.055L45.0911 75.5592C32.7531 61.1307 32.9735 39.6502 45.7523 25.4737L20.2786 0Z" fill="black"/>
<path d="M19.595 101.055L18.8603 101.734L19.5662 102.498L20.3021 101.762L19.595 101.055ZM20.2786 0L20.9857 -0.707107L20.2596 -1.43322L19.553 -0.688103L20.2786 0ZM45.0911 75.5592L45.7982 76.2663L46.4523 75.6122L45.8511 74.9093L45.0911 75.5592ZM45.7523 25.4737L46.4951 26.1432L47.1308 25.438L46.4594 24.7666L45.7523 25.4737ZM20.3297 100.377C-5.66616 72.2219 -5.4413 28.5753 21.0042 0.688103L19.553 -0.688103C-7.61812 27.9642 -7.84901 72.806 18.8603 101.734L20.3297 100.377ZM44.384 74.8521L18.8879 100.348L20.3021 101.762L45.7982 76.2663L44.384 74.8521ZM45.0095 24.8041C31.8935 39.3547 31.6675 61.3999 44.3311 76.2091L45.8511 74.9093C33.8387 60.8615 34.0534 39.9457 46.4951 26.1432L45.0095 24.8041ZM19.5715 0.707107L45.0452 26.1808L46.4594 24.7666L20.9857 -0.707107L19.5715 0.707107Z" fill="white" mask="url(#path-1-inside-1_67_266)"/>
<path d="M12 51L22.5 43.2058V58.7942L12 51Z" fill="#D9D9D9"/>
</svg>
