<svg width="67" height="62" viewBox="0 0 67 62" fill="none" xmlns="http://www.w3.org/2000/svg">
<path d="M17.9069 56.2487C19.5209 58.5537 22.8408 58.8281 24.8694 56.8512C36.257 45.7535 45.3723 39.3955 60.3984 32.0424C62.9246 30.8062 63.7793 27.6151 62.1749 25.3238L49.1352 6.70115C47.9259 4.97407 45.6795 4.31737 43.7497 5.14525C26.2394 12.6572 16.7855 19.1465 5.13876 32.0928C3.76763 33.6169 3.65329 35.8924 4.83645 37.5821L17.9069 56.2487Z" fill="#D9D9D9" fill-opacity="0.55" stroke="white"/>
<path d="M28.9429 40.0762L24.8877 34.2848L24.8304 34.3249L26.8442 41.5457L24.9864 42.8466L18.8899 38.4845L18.8326 38.5247L22.8877 44.3161L21.2822 45.4403L15.7736 37.5732L18.6291 35.5737L24.1017 39.4839L24.1475 39.4518L22.3448 32.9719L25.2004 30.9724L30.709 38.8396L28.9429 40.0762ZM31.5668 38.2389L26.0582 30.3718L31.5973 26.4933L32.39 28.0404L28.789 30.5618L29.9935 32.282L33.3537 29.9292L34.3414 31.3398L30.9812 33.6926L32.3222 35.6078L35.9576 33.0623L37.1403 34.3363L31.5668 38.2389ZM37.3741 28.7719C37.2044 28.7084 36.9639 28.6091 36.6527 28.4738C36.3361 28.3308 36.1281 28.2372 36.0287 28.1929L36.0069 28.2594L39.235 32.8696L37.618 34.0018L32.1094 26.1347L33.6117 25.0828L38.6424 26.9951L39.3638 27.2932C39.6361 27.4216 39.8414 27.5115 39.9798 27.5627L39.9901 27.5042L36.754 22.8825L38.371 21.7503L43.8796 29.6174L42.3773 30.6693L37.3741 28.7719ZM49.1522 22.1997C49.5162 22.7196 49.7151 23.264 49.7488 23.8328C49.7826 24.4017 49.6488 24.9511 49.3476 25.481C49.0465 26.0109 48.6015 26.482 48.0128 26.8942L47.6917 27.1191C47.103 27.5313 46.5082 27.7883 45.9072 27.89C45.3139 27.9865 44.7557 27.9215 44.2327 27.6953C43.7096 27.469 43.2661 27.096 42.9021 26.5761L39.144 21.209L40.9101 19.9724L44.6441 25.305C44.8957 25.6644 45.2306 25.8742 45.6489 25.9346C46.0748 25.9896 46.4865 25.8779 46.8841 25.5995C47.2893 25.3158 47.5339 24.9736 47.618 24.5729C47.7043 24.1592 47.619 23.7689 47.362 23.4019L43.628 18.0692L45.3941 16.8326L49.1522 22.1997Z" fill="white"/>
</svg>
