<svg width="37" height="37" viewBox="0 0 37 37" fill="none" xmlns="http://www.w3.org/2000/svg">
<rect x="0.5" y="0.5" width="36" height="36" fill="black" fill-opacity="0.62"/>
<path d="M11.76 12.8C13.0187 12.8 14.0533 13.28 14.864 14.24C15.6853 15.2 16.096 16.4213 16.096 17.904C16.096 19.7813 15.6107 21.296 14.64 22.448C13.6693 23.6 12.3947 24.176 10.816 24.176C9.58933 24.176 8.56 23.6853 7.728 22.704C6.896 21.712 6.48 20.4907 6.48 19.04C6.48 17.2267 6.976 15.7333 7.968 14.56C8.96 13.3867 10.224 12.8 11.76 12.8ZM13.92 18.8C13.92 16.1013 13.0347 14.752 11.264 14.752C10.4533 14.752 9.81333 15.056 9.344 15.664C8.88533 16.2613 8.656 17.1627 8.656 18.368C8.656 19.5627 8.90133 20.5493 9.392 21.328C9.89333 22.096 10.5493 22.48 11.36 22.48C12.1813 22.48 12.8107 22.1547 13.248 21.504C13.696 20.8427 13.92 19.9413 13.92 18.8ZM23.4741 14.672H20.0661L19.9701 17.616H23.0261L22.8501 19.312H19.9221L19.9061 19.84L20.0981 24H17.8581L18.0501 20.112L17.8581 12.96H23.6501L23.4741 14.672ZM30.5523 14.672H27.1443L27.0483 17.616H30.1043L29.9283 19.312H27.0003L26.9843 19.84L27.1763 24H24.9363L25.1283 20.112L24.9363 12.96H30.7283L30.5523 14.672Z" fill="white"/>
<circle cx="18.5" cy="18.5" r="17" fill="white" fill-opacity="0.6" stroke="black" stroke-width="3"/>
<rect x="0.5" y="0.5" width="36" height="36" stroke="black"/>
</svg>
