<svg width="42" height="52" viewBox="0 0 42 52" fill="none" xmlns="http://www.w3.org/2000/svg">
<mask id="path-1-inside-1_67_329" fill="white">
<path fill-rule="evenodd" clip-rule="evenodd" d="M0 0V31C0 42.598 9.40202 52 21 52C32.598 52 42 42.598 42 31V0H0Z"/>
</mask>
<path fill-rule="evenodd" clip-rule="evenodd" d="M0 0V31C0 42.598 9.40202 52 21 52C32.598 52 42 42.598 42 31V0H0Z" fill="black"/>
<path d="M0 0V-1H-1V0H0ZM42 0H43V-1H42V0ZM1 31V0H-1V31H1ZM21 51C9.95431 51 1 42.0457 1 31H-1C-1 43.1503 8.84974 53 21 53V51ZM41 31C41 42.0457 32.0457 51 21 51V53C33.1503 53 43 43.1503 43 31H41ZM41 0V31H43V0H41ZM42 -1H0V1H42V-1Z" fill="white" mask="url(#path-1-inside-1_67_329)"/>
<path d="M16.52 35H13.44V21.28H20.06C20.8067 21.28 21.4933 21.46 22.12 21.82C22.76 22.1667 23.2667 22.6533 23.64 23.28C24.0133 23.9067 24.2 24.6067 24.2 25.38V25.5C24.2 26.26 24.0133 26.9667 23.64 27.62C23.28 28.26 22.78 28.7667 22.14 29.14C21.5133 29.5133 20.82 29.7 20.06 29.7H16.52V35ZM16.52 27.28H19.34C19.8467 27.28 20.2667 27.1133 20.6 26.78C20.9333 26.4333 21.1 26.0333 21.1 25.58V25.46C21.1 24.9933 20.9333 24.5933 20.6 24.26C20.28 23.9133 19.86 23.74 19.34 23.74H16.52V27.28ZM24.5781 28.28H29.6381V30.84H24.5781V28.28Z" fill="white"/>
</svg>
