<svg width="42" height="54" viewBox="0 0 42 54" fill="none" xmlns="http://www.w3.org/2000/svg">
<mask id="path-1-inside-1_67_339" fill="white">
<path fill-rule="evenodd" clip-rule="evenodd" d="M42 54H0V21C0 9.40202 9.40202 0 21 0C32.598 0 42 9.40202 42 21V54Z"/>
</mask>
<path fill-rule="evenodd" clip-rule="evenodd" d="M42 54H0V21C0 9.40202 9.40202 0 21 0C32.598 0 42 9.40202 42 21V54Z" fill="black"/>
<path d="M42 54V55H43V54H42ZM0 54H-1V55H0V54ZM42 53H0V55H42V53ZM1 54V21H-1V54H1ZM1 21C1 9.95431 9.95431 1 21 1V-1C8.84974 -1 -1 8.84974 -1 21H1ZM21 1C32.0457 1 41 9.95431 41 21H43C43 8.84974 33.1503 -1 21 -1V1ZM41 21V54H43V21H41Z" fill="white" mask="url(#path-1-inside-1_67_339)"/>
<path d="M13.52 34H10.44V20.28H17.06C17.8067 20.28 18.4933 20.46 19.12 20.82C19.76 21.1667 20.2667 21.6533 20.64 22.28C21.0133 22.9067 21.2 23.6067 21.2 24.38V24.5C21.2 25.26 21.0133 25.9667 20.64 26.62C20.28 27.26 19.78 27.7667 19.14 28.14C18.5133 28.5133 17.82 28.7 17.06 28.7H13.52V34ZM13.52 26.28H16.34C16.8467 26.28 17.2667 26.1133 17.6 25.78C17.9333 25.4333 18.1 25.0333 18.1 24.58V24.46C18.1 23.9933 17.9333 23.5933 17.6 23.26C17.28 22.9133 16.86 22.74 16.34 22.74H13.52V26.28ZM28.6181 27.84H32.6981V29.96H28.6181V34H26.5181V29.96H22.4581V27.84H26.5181V23.78H28.6181V27.84Z" fill="white"/>
</svg>
