<svg width="48" height="104" viewBox="0 0 48 104" fill="none" xmlns="http://www.w3.org/2000/svg">
<mask id="path-1-inside-1_67_290" fill="white">
<path fill-rule="evenodd" clip-rule="evenodd" d="M1.37764 77.7452C14.8248 62.8272 14.3656 39.8214 0 25.4558L25.4558 0C53.8817 28.4259 54.3469 74.2244 26.8513 103.219L1.37764 77.7452Z"/>
</mask>
<path fill-rule="evenodd" clip-rule="evenodd" d="M1.37764 77.7452C14.8248 62.8272 14.3656 39.8214 0 25.4558L25.4558 0C53.8817 28.4259 54.3469 74.2244 26.8513 103.219L1.37764 77.7452Z" fill="black"/>
<path d="M0 25.4558L-0.707107 24.7487L-1.41421 25.4558L-0.707107 26.1629L0 25.4558ZM1.37764 77.7452L0.634862 77.0756L-0.000860994 77.7809L0.67053 78.4523L1.37764 77.7452ZM25.4558 0L26.163 -0.707107L25.4558 -1.41421L24.7487 -0.707107L25.4558 0ZM26.8513 103.219L26.1442 103.926L26.8703 104.652L27.5769 103.907L26.8513 103.219ZM-0.707107 26.1629C13.2802 40.1502 13.7275 62.5509 0.634862 77.0756L2.12041 78.4147C15.922 63.1036 15.4509 39.4925 0.707107 24.7487L-0.707107 26.1629ZM24.7487 -0.707107L-0.707107 24.7487L0.707107 26.163L26.163 0.707107L24.7487 -0.707107ZM27.5769 103.907C55.4444 74.5203 54.9731 28.103 26.163 -0.707107L24.7487 0.707107C52.7904 28.7488 53.2494 73.9285 26.1257 102.531L27.5769 103.907ZM0.67053 78.4523L26.1442 103.926L27.5584 102.512L2.08474 77.0381L0.67053 78.4523Z" fill="white" mask="url(#path-1-inside-1_67_290)"/>
<path d="M35 52L24.5 59.7942V44.2058L35 52Z" fill="#D9D9D9"/>
</svg>
