<svg width="42" height="52" viewBox="0 0 42 52" fill="none" xmlns="http://www.w3.org/2000/svg">
<mask id="path-1-inside-1_67_334" fill="white">
<path fill-rule="evenodd" clip-rule="evenodd" d="M0 0V31C0 42.598 9.40202 52 21 52C32.598 52 42 42.598 42 31V0H0Z"/>
</mask>
<path fill-rule="evenodd" clip-rule="evenodd" d="M0 0V31C0 42.598 9.40202 52 21 52C32.598 52 42 42.598 42 31V0H0Z" fill="black"/>
<path d="M0 0V-1H-1V0H0ZM42 0H43V-1H42V0ZM1 31V0H-1V31H1ZM21 51C9.95431 51 1 42.0457 1 31H-1C-1 43.1503 8.84974 53 21 53V51ZM41 31C41 42.0457 32.0457 51 21 51V53C33.1503 53 43 43.1503 43 31H41ZM41 0V31H43V0H41ZM42 -1H0V1H42V-1Z" fill="white" mask="url(#path-1-inside-1_67_334)"/>
<path d="M14.62 28.256L16.818 21.396H18.89L15.726 31H13.248L10.098 21.396H12.366L14.55 28.256H14.62ZM25.4522 27.626C25.4522 28.3447 25.2982 28.97 24.9902 29.502C24.6915 30.034 24.2762 30.44 23.7442 30.72C23.2122 31 22.6148 31.14 21.9522 31.14H21.7282C21.0655 31.14 20.4682 31 19.9362 30.72C19.4042 30.44 18.9842 30.034 18.6762 29.502C18.3775 28.97 18.2282 28.3447 18.2282 27.626V27.22C18.2282 26.5013 18.3775 25.876 18.6762 25.344C18.9842 24.812 19.4042 24.406 19.9362 24.126C20.4682 23.846 21.0655 23.706 21.7282 23.706H21.9522C22.6148 23.706 23.2122 23.846 23.7442 24.126C24.2762 24.406 24.6915 24.812 24.9902 25.344C25.2982 25.876 25.4522 26.5013 25.4522 27.22V27.626ZM23.3802 26.856C23.3802 26.2867 23.2355 25.8527 22.9462 25.554C22.6662 25.2553 22.2975 25.106 21.8402 25.106C21.3828 25.106 21.0095 25.2553 20.7202 25.554C20.4402 25.8527 20.3002 26.2867 20.3002 26.856V27.99C20.3002 28.5593 20.4402 28.9933 20.7202 29.292C21.0095 29.5907 21.3828 29.74 21.8402 29.74C22.2975 29.74 22.6662 29.5907 22.9462 29.292C23.2355 28.9933 23.3802 28.5593 23.3802 27.99V26.856ZM26.272 31V20.92H28.316V31H26.272ZM28.5582 26.296H32.1002V28.088H28.5582V26.296Z" fill="white"/>
</svg>
