<svg xmlns="http://www.w3.org/2000/svg" width="42" height="42" viewBox="0 0 42 42">
    <g fill="#FFF" fill-rule="nonzero">
        <path d="M19.09 16.227v1.91h-1.908V21h1.909v8.59h3.818V21h2.54l.324-2.864h-2.864v-1.67c0-.773.076-1.184 1.27-1.184h1.594V12.41h-2.558c-3.055 0-4.124 1.432-4.124 3.818z"/>
        <path d="M21 0C9.402 0 0 9.402 0 21s9.402 21 21 21 21-9.402 21-21S32.598 0 21 0zm0 40.09C10.456 40.09 1.91 31.545 1.91 21S10.455 1.91 21 1.91 40.09 10.455 40.09 21 31.545 40.09 21 40.09z"/>
    </g>
</svg>
