<svg xmlns="http://www.w3.org/2000/svg" width="41" height="42" viewBox="0 0 41 42">
    <g fill="#FFF" fill-rule="nonzero">
        <path d="M20.5 0C9.178 0 0 9.402 0 21s9.178 21 20.5 21S41 32.598 41 21 31.822 0 20.5 0zm0 40.09C10.207 40.09 1.864 31.545 1.864 21S10.207 1.91 20.5 1.91 39.136 10.455 39.136 21 30.793 40.09 20.5 40.09z"/>
        <path d="M21.527 29c-2.502 0-5.225-.08-8.095-.238-1.695-.094-3.01-1.422-3.197-3.23a43.852 43.852 0 0 1 0-9.065c.187-1.793 1.5-3.121 3.193-3.23a120.82 120.82 0 0 1 15.142 0c1.714.106 2.997 1.403 3.196 3.229.312 2.89.312 5.939 0 9.064-.18 1.807-1.463 3.106-3.191 3.232a98.034 98.034 0 0 1-7.048.238zm-.585-15.142c-2.494 0-5.004.08-7.461.237-1.294.083-2.261 1.073-2.406 2.463a42.99 42.99 0 0 0 0 8.883c.145 1.402 1.11 2.392 2.402 2.464 2.855.156 5.563.236 8.05.236 2.481 0 4.832-.08 6.987-.236 1.304-.095 2.273-1.084 2.41-2.462.307-3.065.307-6.053 0-8.883-.15-1.395-1.117-2.385-2.405-2.465a122.904 122.904 0 0 0-7.577-.237zm-2.094 4.1v5.894l5.569-2.927-5.57-2.968z"/>
    </g>
</svg>
