<svg xmlns="http://www.w3.org/2000/svg" viewBox="0 0 208 66"><defs><style>.cls-1{fill:none;stroke:#fff;stroke-width:0.92px;}.cls-2{fill:#fff;}</style></defs><title>Recurso 1</title><g id="Capa_2" data-name="Capa 2"><g id="Capa_1-2" data-name="Capa 1"><rect class="cls-1" x="0.46" y="0.46" width="207.08" height="65.08" rx="9.17"/><path class="cls-2" d="M70.79,14.66a9.33,9.33,0,0,0-.94-.31,4.75,4.75,0,0,0-1.19-.11,2.75,2.75,0,0,0-2.32,1.18,5.07,5.07,0,0,0-.86,3,5.59,5.59,0,0,0,.73,2.93,2.48,2.48,0,0,0,2.32,1.23,5.12,5.12,0,0,0,1.27-.14,4.4,4.4,0,0,0,.93-.32l.44.88a4.88,4.88,0,0,1-1.21.4,5.88,5.88,0,0,1-1.37.17,3.69,3.69,0,0,1-3.32-1.53,6.41,6.41,0,0,1-1-3.6,6.14,6.14,0,0,1,1.12-3.73,3.82,3.82,0,0,1,3.28-1.52,7.54,7.54,0,0,1,1.24.13,3.5,3.5,0,0,1,1.26.44Zm5.1,9a2.82,2.82,0,0,1-2.36-1.07,4.41,4.41,0,0,1-.79-2.72,4.1,4.1,0,0,1,.87-2.65A3,3,0,0,1,76,16.11a2.81,2.81,0,0,1,2.41,1.07,4.42,4.42,0,0,1,.8,2.73,4,4,0,0,1-.89,2.66A3.07,3.07,0,0,1,75.89,23.61Zm2.2-3.7a3.93,3.93,0,0,0-.46-2,1.66,1.66,0,0,0-1.56-.79,1.82,1.82,0,0,0-1.61.76,3.47,3.47,0,0,0-.53,1.94,4,4,0,0,0,.44,2,1.61,1.61,0,0,0,1.54.78,1.87,1.87,0,0,0,1.63-.73A3.33,3.33,0,0,0,78.09,19.91Zm4.11-2.58a3.8,3.8,0,0,1,1.17-.87,3,3,0,0,1,1.35-.36,2.23,2.23,0,0,1,1.81.71,2.7,2.7,0,0,1,.58,1.78V23.4H86V18.75a1.86,1.86,0,0,0-.35-1.18,1.27,1.27,0,0,0-1.08-.49,2.6,2.6,0,0,0-1.11.31,3.24,3.24,0,0,0-1.12.85v5.18H81.13V16.3h.7Zm11.18.26a8,8,0,0,0-.81-.33,3.21,3.21,0,0,0-1.09-.16,1.77,1.77,0,0,0-1,.26.81.81,0,0,0,.06,1.42,5.43,5.43,0,0,0,1.15.52,6.53,6.53,0,0,1,1.62.83A1.65,1.65,0,0,1,94,21.54a1.81,1.81,0,0,1-.73,1.52,3.51,3.51,0,0,1-2.12.55,5,5,0,0,1-1.14-.16A3.37,3.37,0,0,1,88.92,23l.35-.88a6.1,6.1,0,0,0,.92.35,3.5,3.5,0,0,0,1,.15,2.62,2.62,0,0,0,1.23-.25.83.83,0,0,0,.44-.77,1,1,0,0,0-.49-.8,4.47,4.47,0,0,0-1.2-.58,6.42,6.42,0,0,1-1.58-.77,1.51,1.51,0,0,1-.74-1.32,1.77,1.77,0,0,1,.71-1.49,3.14,3.14,0,0,1,1.93-.54,4.91,4.91,0,0,1,1.13.17,3.34,3.34,0,0,1,1.09.46Zm3.4-5.08h1.27l-1.29,2.27h-.88Zm-.9,10.91V16.3h1.18v7.12ZM104,17.86a3,3,0,0,0-.88-.57,2.25,2.25,0,0,0-.89-.21,1.72,1.72,0,0,0-1.62.82,3.76,3.76,0,0,0-.48,2,3.92,3.92,0,0,0,.46,2,1.75,1.75,0,0,0,1.64.8,2.25,2.25,0,0,0,.89-.21,3.49,3.49,0,0,0,.88-.57ZM105.17,24a2.5,2.5,0,0,1-.77,1.86,3.18,3.18,0,0,1-2.3.75,6,6,0,0,1-1.19-.17,3.42,3.42,0,0,1-1.2-.49l.35-.84.88.37a2.93,2.93,0,0,0,1.13.18,2.14,2.14,0,0,0,1.4-.42A1.51,1.51,0,0,0,104,24V22.89a3.39,3.39,0,0,1-1,.51,2.89,2.89,0,0,1-1,.19,2.71,2.71,0,0,1-2.33-1.05,4.4,4.4,0,0,1-.77-2.67,4.45,4.45,0,0,1,.79-2.7,2.72,2.72,0,0,1,2.34-1.07,2.79,2.79,0,0,1,1.08.24,3.9,3.9,0,0,1,1,.61c0-.1.1-.2.15-.32l.14-.33h.71Zm6.92-1.35a4,4,0,0,1-1.08.7,2.86,2.86,0,0,1-1.19.28,2.22,2.22,0,0,1-1.83-.71,2.72,2.72,0,0,1-.58-1.8V16.3h1.16V21a2,2,0,0,0,.35,1.19,1.26,1.26,0,0,0,1.07.47,2.65,2.65,0,0,0,1-.23,3.92,3.92,0,0,0,1-.66V16.3h1.16v7.12h-.72Zm9.28-2.6h-5.16a3.23,3.23,0,0,0,.6,1.87,2,2,0,0,0,1.76.74,3.78,3.78,0,0,0,1.17-.15c.3-.1.58-.22.86-.34L121,23a3.2,3.2,0,0,1-1.18.44,6,6,0,0,1-1.18.14,3.34,3.34,0,0,1-2.68-1.05,3.94,3.94,0,0,1-.91-2.7,4.16,4.16,0,0,1,.87-2.67,3,3,0,0,1,2.44-1.06,2.53,2.53,0,0,1,2.36,1.17A5.33,5.33,0,0,1,121.37,20Zm-1.14-.79a3.22,3.22,0,0,0-.57-1.55,1.61,1.61,0,0,0-1.38-.6,1.77,1.77,0,0,0-1.43.6,2.81,2.81,0,0,0-.61,1.55Zm3,4.17V13.22l1.16-.16V23.42Zm6.2.19a2.82,2.82,0,0,1-2.36-1.07,4.41,4.41,0,0,1-.79-2.72,4.15,4.15,0,0,1,.86-2.65,3,3,0,0,1,2.44-1.06A2.82,2.82,0,0,1,132,17.18a4.48,4.48,0,0,1,.8,2.73,4,4,0,0,1-.89,2.66A3.07,3.07,0,0,1,129.41,23.61Zm2.2-3.7a3.93,3.93,0,0,0-.46-2,1.66,1.66,0,0,0-1.56-.79,1.81,1.81,0,0,0-1.61.76,3.39,3.39,0,0,0-.53,1.94,4,4,0,0,0,.44,2,1.61,1.61,0,0,0,1.54.78,1.88,1.88,0,0,0,1.63-.73A3.33,3.33,0,0,0,131.61,19.91Zm12.44.13h-5.16a3.23,3.23,0,0,0,.6,1.87,2,2,0,0,0,1.76.74,3.67,3.67,0,0,0,1.16-.15c.3-.1.59-.22.86-.34l.37.85a3.18,3.18,0,0,1-1.19.44,6,6,0,0,1-1.17.14,3.37,3.37,0,0,1-2.69-1.05,4,4,0,0,1-.91-2.7,4.1,4.1,0,0,1,.88-2.67A3,3,0,0,1,141,16.11a2.51,2.51,0,0,1,2.35,1.17A5.24,5.24,0,0,1,144.05,20Zm-1.14-.79a3.13,3.13,0,0,0-.58-1.55,1.61,1.61,0,0,0-1.38-.6,1.78,1.78,0,0,0-1.43.6,2.81,2.81,0,0,0-.6,1.55Zm4-1.92a4,4,0,0,1,1.18-.87,3,3,0,0,1,1.35-.36,2.21,2.21,0,0,1,1.8.71,2.71,2.71,0,0,1,.59,1.78V23.4h-1.16V18.75a1.92,1.92,0,0,0-.35-1.18,1.3,1.3,0,0,0-1.09-.49,2.68,2.68,0,0,0-1.11.31,3.33,3.33,0,0,0-1.12.85v5.18h-1.16V16.3h.71ZM97.25,38.93a5.3,5.3,0,1,0,5.32,5.3,5.23,5.23,0,0,0-5.32-5.3Zm0,8.52a3.22,3.22,0,1,1,3-3.22,3.06,3.06,0,0,1-.82,2.24,3.09,3.09,0,0,1-2.17,1ZM85.64,38.93A5.3,5.3,0,1,0,91,44.23a5.23,5.23,0,0,0-5.32-5.3Zm0,8.52a3.22,3.22,0,1,1,3-3.22,3.06,3.06,0,0,1-.82,2.24,3.09,3.09,0,0,1-2.17,1ZM71.81,40.56v2.25H77.2A4.72,4.72,0,0,1,76,45.64a5.52,5.52,0,0,1-4.15,1.64,6,6,0,0,1,0-12,5.79,5.79,0,0,1,4.08,1.61l1.58-1.58A7.83,7.83,0,0,0,71.81,33a8.24,8.24,0,1,0,0,16.47,7.29,7.29,0,0,0,7.7-7.57,7.4,7.4,0,0,0-.13-1.41Zm56.5,1.75a4.84,4.84,0,0,0-8.18-1.81,4.94,4.94,0,0,0-1.35,3.73,5.19,5.19,0,0,0,5.26,5.3,5.28,5.28,0,0,0,4.42-2.35l-1.81-1.24A3.05,3.05,0,0,1,124,47.41a2.71,2.71,0,0,1-2.57-1.61l7.1-2.93Zm-7.24,1.77a2.92,2.92,0,0,1,.74-2.13,2.88,2.88,0,0,1,2-1,2,2,0,0,1,2,1.12Zm-5.76,5.14h2.34V33.63h-2.34Zm-3.81-9.11h-.09a3.74,3.74,0,0,0-2.79-1.24,5.31,5.31,0,0,0,0,10.61,3.6,3.6,0,0,0,2.79-1.25h.08V49c0,2-1.09,3.12-2.83,3.12A2.93,2.93,0,0,1,106,50.23l-2,.84a5,5,0,0,0,4.7,3.13c2.73,0,5-1.61,5-5.52V39.24H111.5Zm-2.67,7.34a3.23,3.23,0,0,1,0-6.44,3,3,0,0,1,2.83,3.22,2.92,2.92,0,0,1-.73,2.21,3,3,0,0,1-2.11,1Zm30.4-13.82h-5.57V49.22H136V43.31h3.25a4.85,4.85,0,1,0,0-9.68Zm0,7.48H136V35.8h3.31a2.68,2.68,0,0,1,0,5.35Zm14.37-2.24a4.36,4.36,0,0,0-4.15,2.38l2.07.86A2.21,2.21,0,0,1,153.64,41a2.25,2.25,0,0,1,2.5,2v.16a5.18,5.18,0,0,0-2.44-.6c-2.23,0-4.48,1.25-4.48,3.51a3.58,3.58,0,0,0,3.86,3.42,3.26,3.26,0,0,0,3-1.49h.08v1.25h2.24v-6c0-2.73-2.07-4.32-4.72-4.32Zm-.28,8.54c-.76,0-1.82-.39-1.82-1.32,0-1.25,1.32-1.66,2.49-1.66a4.14,4.14,0,0,1,2.12.52,2.83,2.83,0,0,1-2.73,2.5Zm13.25-8.17L163.9,46h-.07l-2.77-6.76h-2.49l4.15,9.45-2.37,5.25h2.43l6.39-14.7Zm-21,10h2.33V33.63h-2.33Z"/><path class="cls-2" d="M16,14.16,34.33,34,16,54a2.73,2.73,0,0,1-.79-2.26c0-1.93-.16-33.06-.16-35.32A2.55,2.55,0,0,1,16,14.16Zm24.4,13.23L18,14.32c-.32-.16-.47-.32-.79-.32L35,33.19ZM41.3,40l-5.55-6,5.55-6,7.6,4.52c1.9,1.13,1,2.42,0,3.06ZM17.54,54c.15,0,.31-.16.47-.32L40.35,40.61,35.12,35Z"/></g></g></svg>