<svg xmlns="http://www.w3.org/2000/svg" width="154" height="29" viewBox="0 0 154 29">
    <defs>
        <linearGradient id="a" x1="9.188%" x2="133.085%" y1="50%" y2="50%">
            <stop offset="0%" stop-color="#FFF"/>
            <stop offset="99%" stop-color="#03A9F4"/>
        </linearGradient>
    </defs>
    <g fill="none" fill-rule="nonzero">
        <path fill="#FFF" d="M5.472 14.53a4.723 4.723 0 1 0 9.446 0 4.723 4.723 0 0 0-9.446 0z"/>
        <path fill="#FFF" d="M24.325 14.423A14.476 14.476 0 0 1 9.863 28.929H.849a.626.626 0 0 1-.486-.223.649.649 0 0 1-.154-.52 7.172 7.172 0 0 1 7.067-6.025h2.587a7.733 7.733 0 0 0 7.687-7.776c0-.162 0-.31-.021-.452-.271-4.017-3.682-7.16-7.76-7.16H7.284a7.123 7.123 0 0 1-5.06-2.087A7.23 7.23 0 0 1 .219.749.657.657 0 0 1 .361.225.653.653 0 0 1 .853 0h8.864c8.033 0 14.585 6.468 14.608 14.423z"/>
        <path fill="url(#a)" d="M17.642 14.423a14.397 14.397 0 0 1-4.225 10.252 14.363 14.363 0 0 1-10.24 4.254H.849a.626.626 0 0 1-.486-.223.649.649 0 0 1-.154-.52 7.172 7.172 0 0 1 7.067-6.025h2.587a7.733 7.733 0 0 0 7.687-7.776c0-.162 0-.31-.021-.452-.271-4.017-3.682-7.16-7.76-7.16H7.284a7.123 7.123 0 0 1-5.06-2.087A7.23 7.23 0 0 1 .219.749.657.657 0 0 1 .361.225.653.653 0 0 1 .853 0h2.18c8.035 0 14.59 6.468 14.609 14.423z"/>
        <path fill="#FFF" d="M101.656 22.9a6.366 6.366 0 0 0-4.13-1.528h-2.295a6.884 6.884 0 0 1-6.825-6.296 6.051 6.051 0 0 1-.02-.626c0-.146 0-.282.016-.417a6.911 6.911 0 0 1 6.915-6.374h2.211a6.337 6.337 0 0 0 4.506-1.865 6.428 6.428 0 0 0 1.781-3.499.568.568 0 0 0-.557-.655h-7.9c-7.15 0-12.985 5.762-13.004 12.843A12.897 12.897 0 0 0 95.23 27.4h8.03a.574.574 0 0 0 .431-.209.568.568 0 0 0 .13-.463 6.336 6.336 0 0 0-2.164-3.828zm51.346-21.312h-5.578a.563.563 0 0 0-.61.417c-.481 1.34-5.773 17.15-5.773 17.15l-5.75-17.16a.53.53 0 0 0-.554-.407h-5.701a.225.225 0 0 0-.22.327l9.425 24.673a.799.799 0 0 0 .745.513h4.134c.33 0 .626-.203.745-.51l9.477-24.665s.14-.338-.34-.338zm-124.86.398v24.719c0 .22.179.399.4.399h5.279a.4.4 0 0 0 .39-.399V1.986a.4.4 0 0 0-.399-.398h-5.27a.398.398 0 0 0-.4.398zm97.963-.417h-19.158a.4.4 0 0 0-.399.398v4.5a.4.4 0 0 0 .399.4h6.533v19.82c0 .22.178.398.398.398h5.28a.396.396 0 0 0 .399-.399V6.866h6.558a.4.4 0 0 0 .388-.398V1.959a.4.4 0 0 0-.398-.398v.008zM79.478 6.885a.4.4 0 0 0 .398-.399v-4.5a.4.4 0 0 0-.398-.398h-14.89c-.199 0-.263.066-.282.096a.417.417 0 0 0-.104.33v24.66c0 .22.178.398.398.398h14.84a.442.442 0 0 0 .442-.442v-4.41a.444.444 0 0 0-.442-.443h-9.178v-5.295h6.55a.4.4 0 0 0 .398-.398v-3.65a.4.4 0 0 0-.398-.398h-6.55V6.885h9.216zM60.245 26.52l-5.026-9.505.326-.183a8.928 8.928 0 0 0 1.683-1.265 8.166 8.166 0 0 0 2.2-3.584c.21-.707.314-1.441.312-2.178a7.929 7.929 0 0 0-.649-3.182 8.429 8.429 0 0 0-1.784-2.616 8.62 8.62 0 0 0-2.653-1.77 8.174 8.174 0 0 0-3.265-.65H39.956a.4.4 0 0 0-.399.398v24.719a.4.4 0 0 0 .399.399h5.28a.4.4 0 0 0 .398-.399V6.297l4.764.025c.44.062.86.212 1.24.442.363.22.684.502.949.834.259.325.464.69.607 1.08.14.383.21.788.208 1.197 0 .416-.065.83-.196 1.226a3.61 3.61 0 0 1-.573 1.09 3.31 3.31 0 0 1-.941.821c-.39.225-.822.367-1.268.418-.21.023-.39.04-.562.052a8.053 8.053 0 0 1-.594.019H47.77a.678.678 0 0 0-.6.993L53.61 26.78c.104.197.307.32.53.321h5.764a.398.398 0 0 0 .346-.586l-.006.006z"/>
    </g>
</svg>
