<svg width="59" height="37" viewBox="0 0 59 37" fill="none" xmlns="http://www.w3.org/2000/svg">
<rect x="1.5" y="1.5" width="56" height="34" rx="17" fill="white" fill-opacity="0.6" stroke="black" stroke-width="3"/>
<path d="M29.176 27.288C27.304 27.288 25.88 26.528 24.904 25.008C23.928 23.472 23.44 21.328 23.44 18.576C23.44 15.808 23.936 13.672 24.928 12.168C25.936 10.664 27.368 9.912 29.224 9.912C31.096 9.912 32.52 10.672 33.496 12.192C34.472 13.712 34.96 15.856 34.96 18.624C34.96 21.392 34.456 23.528 33.448 25.032C32.456 26.536 31.032 27.288 29.176 27.288ZM29.2 25.32C29.92 25.32 30.536 25.112 31.048 24.696C31.576 24.264 31.976 23.56 32.248 22.584C32.536 21.608 32.68 20.296 32.68 18.648C32.68 16.44 32.368 14.76 31.744 13.608C31.136 12.456 30.288 11.88 29.2 11.88C28.48 11.88 27.856 12.096 27.328 12.528C26.816 12.944 26.416 13.64 26.128 14.616C25.856 15.576 25.72 16.888 25.72 18.552C25.72 20.76 26.024 22.44 26.632 23.592C27.256 24.744 28.112 25.32 29.2 25.32Z" fill="black"/>
</svg>
