<svg width="59" height="37" viewBox="0 0 59 37" fill="none" xmlns="http://www.w3.org/2000/svg">
<rect x="1.5" y="1.5" width="56" height="34" rx="17" fill="white" fill-opacity="0.6" stroke="black" stroke-width="3"/>
<path d="M29.296 27.288C28.288 27.288 27.352 27.04 26.488 26.544C25.64 26.032 24.96 25.248 24.448 24.192C23.936 23.136 23.68 21.8 23.68 20.184C23.68 18.824 23.856 17.544 24.208 16.344C24.576 15.128 25.12 14.056 25.84 13.128C26.576 12.2 27.48 11.472 28.552 10.944C29.624 10.416 30.872 10.152 32.296 10.152C32.44 10.152 32.592 10.16 32.752 10.176C32.928 10.176 33.08 10.184 33.208 10.2V12.168C33.08 12.152 32.936 12.144 32.776 12.144C32.616 12.128 32.464 12.12 32.32 12.12C30.576 12.12 29.136 12.656 28 13.728C26.88 14.784 26.192 16.24 25.936 18.096C26.384 17.664 26.96 17.272 27.664 16.92C28.368 16.552 29.168 16.368 30.064 16.368C30.96 16.368 31.76 16.576 32.464 16.992C33.168 17.408 33.72 17.992 34.12 18.744C34.536 19.48 34.744 20.36 34.744 21.384C34.744 22.552 34.504 23.584 34.024 24.48C33.56 25.36 32.92 26.048 32.104 26.544C31.288 27.04 30.352 27.288 29.296 27.288ZM29.392 25.32C30.352 25.32 31.12 24.968 31.696 24.264C32.288 23.56 32.584 22.688 32.584 21.648C32.584 20.608 32.304 19.768 31.744 19.128C31.184 18.488 30.44 18.168 29.512 18.168C28.824 18.168 28.168 18.336 27.544 18.672C26.92 19.008 26.368 19.456 25.888 20.016V20.544C25.92 22.048 26.264 23.224 26.92 24.072C27.592 24.904 28.416 25.32 29.392 25.32Z" fill="black"/>
</svg>
