<svg width="59" height="37" viewBox="0 0 59 37" fill="none" xmlns="http://www.w3.org/2000/svg">
<rect x="1.5" y="1.5" width="56" height="34" rx="17" fill="white" fill-opacity="0.6" stroke="black" stroke-width="3"/>
<path d="M26.68 27C26.68 25.16 26.8 23.528 27.04 22.104C27.296 20.664 27.656 19.368 28.12 18.216C28.6 17.064 29.192 16 29.896 15.024C30.6 14.048 31.408 13.096 32.32 12.168H24.232V10.2H34.888V11.928C33.784 13 32.864 14.048 32.128 15.072C31.392 16.08 30.8 17.152 30.352 18.288C29.904 19.408 29.584 20.68 29.392 22.104C29.2 23.512 29.104 25.144 29.104 27H26.68Z" fill="black"/>
</svg>
