<svg width="67" height="55" viewBox="0 0 67 55" fill="none" xmlns="http://www.w3.org/2000/svg">
<path d="M19.6361 36.8441L17.945 34.3469L14.5762 35.573L14.8039 38.5231L12.9484 39.0388L12.9421 35.1622L12.6249 28.4137L15.0813 27.3121L19.0953 32.6831L21.553 35.7953L19.6361 36.8441ZM14.4796 29.6062L14.2964 29.6729L14.4694 33.9199L16.9783 33.0067L14.4796 29.6062ZM26.0321 34.612C24.989 34.9916 23.9513 34.8744 22.9191 34.2605C21.8869 33.6465 21.1399 32.7052 20.6781 31.4366C20.1138 29.8861 20.066 28.4243 20.5346 27.0512C21.0126 25.6747 21.8765 24.759 23.1263 24.3041C23.615 24.1263 24.0848 24.0138 24.5359 23.9667C24.993 23.9067 25.3296 23.896 25.5458 23.9343L25.8559 23.997L25.6105 26.3052C25.326 26.1959 24.9573 26.1332 24.5045 26.1171C24.0483 26.0916 23.6604 26.137 23.3409 26.2533C22.6925 26.4893 22.2685 26.9469 22.0688 27.6262C21.8784 28.302 21.9646 29.138 22.3271 30.1341C22.6862 31.1208 23.1841 31.8601 23.8207 32.352C24.454 32.8345 25.1183 32.9492 25.8136 32.6961C26.2647 32.532 26.6221 32.2422 26.886 31.8269C27.1499 31.4116 27.2715 30.9417 27.2508 30.4171L28.667 30.6679C28.6579 31.6077 28.4193 32.4288 27.9514 33.1312C27.48 33.8242 26.8402 34.3178 26.0321 34.612ZM26.6592 25.0296L26.2243 23.3522L32.9196 20.9153L33.3545 22.5927L30.825 23.2739L32.4616 27.9459L33.9646 31.5492L31.9913 32.2674L30.9137 28.7807L29.0823 23.9242L26.6592 25.0296ZM36.0277 19.7042L38.0621 25.9075L39.5651 29.5107L37.5918 30.229L36.5142 26.7422L34.1545 20.7851L36.0277 19.7042ZM44.2485 25.8108L44.4176 25.7492L44.24 23.0683L43.673 16.9056L45.4709 16.5385L45.8303 22.7449L46.1314 26.9931L43.5904 28.1255L41.2199 24.7262L37.4865 19.5563L39.3598 18.4754L42.6228 23.4494L44.2485 25.8108ZM50.2831 25.6097L49.2056 22.123L46.7432 15.8839L52.029 13.96L52.4229 15.5247L49.2514 16.679L50.0749 19.2046L52.894 18.1786L53.2827 19.7291L50.5623 20.7193L50.7534 21.2882L51.6422 23.423L55.0533 22.1815L55.442 23.732L50.2831 25.6097Z" fill="black"/>
<rect x="1.92257" y="20.6223" width="54.6743" height="34" rx="17" transform="rotate(-20 1.92257 20.6223)" fill="white" fill-opacity="0.6" stroke="black" stroke-width="3"/>
</svg>
