<svg width="59" height="37" viewBox="0 0 59 37" fill="none" xmlns="http://www.w3.org/2000/svg">
<rect x="1.5" y="1.5" width="56" height="34" rx="17" fill="white" fill-opacity="0.6" stroke="black" stroke-width="3"/>
<path d="M9.26 23V13.2H15.14V14.348H10.59V17.33H14.51V18.45H10.59V21.852H15.14V23H9.26ZM17.0256 23V13.2H18.7896L23.1156 21.348V13.2H24.3756V23H22.6396L18.2856 14.908V23H17.0256ZM28.7867 23V14.376H25.7767V13.2H33.1267V14.376H30.1167V23H28.7867ZM34.5256 23V13.2H40.4056V14.348H35.8556V17.33H39.7756V18.45H35.8556V21.852H40.4056V23H34.5256ZM48.0033 23.168L46.7853 20.508C46.4773 19.8453 46.0899 19.374 45.6233 19.094C45.1566 18.814 44.5593 18.674 43.8313 18.674H43.6213V23H42.2913V13.228C42.7859 13.1813 43.2573 13.1487 43.7053 13.13C44.1626 13.102 44.6479 13.088 45.1613 13.088C46.3559 13.088 47.2519 13.3307 47.8493 13.816C48.4559 14.3013 48.7593 14.9267 48.7593 15.692C48.7593 16.3733 48.5539 16.924 48.1433 17.344C47.7419 17.7547 47.1586 18.0627 46.3933 18.268C46.6453 18.38 46.8693 18.5153 47.0653 18.674C47.2613 18.8233 47.4479 19.0287 47.6253 19.29C47.8119 19.542 47.9986 19.8733 48.1853 20.284L49.2493 22.58L48.0033 23.168ZM43.6213 17.554H45.1613C45.8333 17.554 46.3793 17.4047 46.7993 17.106C47.2193 16.8073 47.4293 16.378 47.4293 15.818C47.4293 15.3513 47.2333 14.9687 46.8413 14.67C46.4493 14.362 45.8893 14.208 45.1613 14.208C44.8439 14.208 44.5593 14.2127 44.3073 14.222C44.0553 14.2313 43.8266 14.2453 43.6213 14.264V17.554Z" fill="black"/>
</svg>
