<svg width="73" height="37" viewBox="0 0 73 37" fill="none" xmlns="http://www.w3.org/2000/svg">
<path d="M24.55 18.32H24.7L26.89 12.62L28.96 12.68L29.02 19.13L29.305 23H27.28L27.355 19.1L27.19 15.155L25.39 20.12L23.545 20.21L21.865 15.155L21.73 19.1L21.835 23H19.975L20.185 19.355L20.275 12.92L22.66 12.545L24.55 18.32ZM31.4061 23L31.5861 19.355L31.4061 12.65H37.0311L36.8661 14.255H33.4911L33.4011 16.91H36.4011L36.2361 18.5H33.3411L33.3261 19.1L33.4311 21.41H37.0611L36.8961 23H31.4061ZM46.7239 12.62L46.5289 19.1L46.6939 22.67L44.9239 23.045L40.4539 15.815V19.1L40.6639 23H38.7889L38.9689 19.355L38.7889 12.695L40.5889 12.605L45.0439 19.94L44.8939 12.845L46.7239 12.62ZM52.2957 23.165C51.3957 23.165 50.6357 22.89 50.0157 22.34C49.4057 21.79 49.1007 21.11 49.1007 20.3L48.9507 12.95L51.1107 12.575L50.8707 19.145C50.8707 19.845 51.0307 20.39 51.3507 20.78C51.6807 21.17 52.1857 21.365 52.8657 21.365C53.5457 21.365 54.0357 21.175 54.3357 20.795C54.6357 20.415 54.7857 19.76 54.7857 18.83L54.6057 12.95L56.7057 12.575L56.5407 19.175C56.5407 20.355 56.1457 21.315 55.3557 22.055C54.5657 22.795 53.5457 23.165 52.2957 23.165Z" fill="black"/>
<rect x="1.5" y="1.5" width="70" height="34" rx="17" fill="white" fill-opacity="0.6" stroke="black" stroke-width="3"/>
</svg>
