<svg width="44" height="44" viewBox="0 0 44 44" fill="none" xmlns="http://www.w3.org/2000/svg">
<path d="M15.2 15C16.7733 15 18.0667 15.6 19.08 16.8C20.1067 18 20.62 19.5267 20.62 21.38C20.62 23.7267 20.0133 25.62 18.8 27.06C17.5867 28.5 15.9933 29.22 14.02 29.22C12.4867 29.22 11.2 28.6067 10.16 27.38C9.12 26.14 8.6 24.6133 8.6 22.8C8.6 20.5333 9.22 18.6667 10.46 17.2C11.7 15.7333 13.28 15 15.2 15ZM17.9 22.5C17.9 19.1267 16.7933 17.44 14.58 17.44C13.5667 17.44 12.7667 17.82 12.18 18.58C11.6067 19.3267 11.32 20.4533 11.32 21.96C11.32 23.4533 11.6267 24.6867 12.24 25.66C12.8667 26.62 13.6867 27.1 14.7 27.1C15.7267 27.1 16.5133 26.6933 17.06 25.88C17.62 25.0533 17.9 23.9267 17.9 22.5ZM33.4027 15.16L33.1427 23.8L33.3627 28.56L31.0027 29.06L25.0427 19.42V23.8L25.3227 29H22.8227L23.0627 24.14L22.8227 15.26L25.2227 15.14L31.1627 24.92L30.9627 15.46L33.4027 15.16Z" fill="black"/>
<circle cx="22" cy="22" r="20.5" fill="white" fill-opacity="0.6" stroke="black" stroke-width="3"/>
</svg>
