<svg width="62" height="62" viewBox="0 0 62 62" fill="none" xmlns="http://www.w3.org/2000/svg">
<circle cx="31" cy="31" r="29.5" fill="#FF902B" stroke="black" stroke-width="3"/>
<path d="M10.365 33.015C11.215 33.865 12.065 34.29 12.915 34.29C13.355 34.29 13.705 34.19 13.965 33.99C14.235 33.78 14.37 33.515 14.37 33.195C14.37 32.865 14.21 32.59 13.89 32.37C13.57 32.14 13.18 31.94 12.72 31.77C12.27 31.6 11.82 31.41 11.37 31.2C10.92 30.98 10.535 30.67 10.215 30.27C9.895 29.87 9.735 29.385 9.735 28.815C9.735 27.915 10.11 27.14 10.86 26.49C11.61 25.83 12.5 25.5 13.53 25.5C14 25.5 14.455 25.55 14.895 25.65C15.335 25.75 15.76 25.895 16.17 26.085L15.15 28.275C14.87 28.055 14.485 27.855 13.995 27.675C13.515 27.485 13.09 27.39 12.72 27.39C12.36 27.39 12.065 27.48 11.835 27.66C11.615 27.83 11.505 28.06 11.505 28.35C11.505 28.64 11.665 28.9 11.985 29.13C12.305 29.35 12.69 29.545 13.14 29.715C13.6 29.885 14.055 30.075 14.505 30.285C14.965 30.485 15.355 30.785 15.675 31.185C15.995 31.585 16.155 32.07 16.155 32.64C16.155 33.58 15.78 34.405 15.03 35.115C14.28 35.815 13.405 36.165 12.405 36.165C11.655 36.165 10.99 35.985 10.41 35.625C9.9 35.315 9.54 35.04 9.33 34.8L9.195 34.635L10.365 33.015ZM17.7439 36L17.9239 32.355L17.7439 25.65H23.3689L23.2039 27.255H19.8289L19.7389 29.91H22.7389L22.5739 31.5H19.6789L19.6639 32.1L19.7689 34.41H23.3989L23.2339 36H17.7439ZM25.1268 36L25.3068 32.355L25.1268 25.95L27.2568 25.575L27.0468 32.1L27.1518 34.53L30.2268 34.29L30.0618 36H25.1268ZM31.5135 36L31.6935 32.355L31.5135 25.65H37.1385L36.9735 27.255H33.5985L33.5085 29.91H36.5085L36.3435 31.5H33.4485L33.4335 32.1L33.5385 34.41H37.1685L37.0035 36H31.5135ZM42.0913 36.165C40.9813 36.165 40.0463 35.7 39.2863 34.77C38.5263 33.84 38.1463 32.7 38.1463 31.35C38.1463 29.7 38.6013 28.31 39.5113 27.18C40.4313 26.05 41.5563 25.485 42.8863 25.485C43.4063 25.485 43.8863 25.54 44.3263 25.65C44.7763 25.75 45.0963 25.855 45.2863 25.965L45.5563 26.13L44.5363 28.215C44.3063 28.015 43.9813 27.83 43.5613 27.66C43.1413 27.48 42.7613 27.39 42.4213 27.39C41.7313 27.39 41.1763 27.675 40.7563 28.245C40.3463 28.815 40.1413 29.63 40.1413 30.69C40.1413 31.74 40.3563 32.605 40.7863 33.285C41.2163 33.955 41.8013 34.29 42.5413 34.29C43.0213 34.29 43.4563 34.14 43.8463 33.84C44.2363 33.54 44.5113 33.14 44.6713 32.64L45.9163 33.36C45.5863 34.24 45.0813 34.93 44.4013 35.43C43.7213 35.92 42.9513 36.165 42.0913 36.165ZM45.958 27.375L46.123 25.65H53.248L53.083 27.375L50.473 27.15L50.413 32.1L50.593 36H48.493L48.673 32.355L48.613 27.165L45.958 27.375Z" fill="black"/>
</svg>
