<svg xmlns="http://www.w3.org/2000/svg" viewBox="0 0 208 66"><defs><style>.cls-1{fill:none;stroke:#fff;stroke-width:0.91px;}.cls-2{fill:#fff;}</style></defs><title>Recurso 1</title><g id="Capa_2" data-name="Capa 2"><g id="Capa_1-2" data-name="Capa 1"><rect class="cls-1" x="0.45" y="0.45" width="207.09" height="65.09" rx="9.08"/><path class="cls-2" d="M63.17,23.14V13.26h3.32a3.78,3.78,0,0,1,3.3,1.43,5.77,5.77,0,0,1,1,3.45,5.59,5.59,0,0,1-1.12,3.56,3.93,3.93,0,0,1-3.29,1.44Zm3.36-8.89H64.31v7.93H66.4a3,3,0,0,0,2.37-1.06,4.44,4.44,0,0,0,.9-3,4.72,4.72,0,0,0-.77-2.8A2.68,2.68,0,0,0,66.53,14.25Zm7,.45a.72.72,0,0,1-.55-.22.76.76,0,0,1-.22-.56.69.69,0,0,1,.21-.55.76.76,0,0,1,.56-.22.79.79,0,0,1,.56.22.72.72,0,0,1,.24.55.74.74,0,0,1-.24.56A.79.79,0,0,1,73.55,14.7ZM73,23.14v-7h1.17v7Zm7.44-5.77c-.23-.11-.5-.22-.8-.33a3.13,3.13,0,0,0-1.07-.16,1.85,1.85,0,0,0-1,.26.8.8,0,0,0,.06,1.4,5.57,5.57,0,0,0,1.14.52,6.64,6.64,0,0,1,1.61.83,1.63,1.63,0,0,1,.74,1.39,1.77,1.77,0,0,1-.72,1.5,3.34,3.34,0,0,1-2.09.55,5.57,5.57,0,0,1-1.14-.15A3.49,3.49,0,0,1,76,22.73l.35-.87a5.39,5.39,0,0,0,.91.35,3.48,3.48,0,0,0,1,.15,2.55,2.55,0,0,0,1.22-.25.83.83,0,0,0,.44-.76,1,1,0,0,0-.48-.79A4.25,4.25,0,0,0,78.26,20a6.9,6.9,0,0,1-1.57-.76A1.54,1.54,0,0,1,76,17.91a1.73,1.73,0,0,1,.71-1.47,3,3,0,0,1,1.91-.53,4.68,4.68,0,0,1,1.11.16,3.4,3.4,0,0,1,1.08.46Zm3.65,4.25a3.06,3.06,0,0,0,.86.55,2.35,2.35,0,0,0,.86.19,1.74,1.74,0,0,0,1.62-.8,3.71,3.71,0,0,0,.48-1.93,3.83,3.83,0,0,0-.47-2,1.72,1.72,0,0,0-1.63-.79,2.16,2.16,0,0,0-.86.19,3.1,3.1,0,0,0-.86.56Zm-1.15,4.7V16.1h.68l.26.62a4.47,4.47,0,0,1,1-.59A2.79,2.79,0,0,1,86,15.89,2.68,2.68,0,0,1,88.28,17,4.51,4.51,0,0,1,89,19.61a4.39,4.39,0,0,1-.76,2.66,2.66,2.66,0,0,1-2.3,1,3,3,0,0,1-1-.18,3.57,3.57,0,0,1-.92-.5v3.53Zm10.69-3a2.76,2.76,0,0,1-2.34-1.06,4.38,4.38,0,0,1-.78-2.69A4.05,4.05,0,0,1,91.34,17a3,3,0,0,1,2.41-1A2.78,2.78,0,0,1,96.14,17a4.35,4.35,0,0,1,.79,2.7,4,4,0,0,1-.88,2.64A3,3,0,0,1,93.61,23.33Zm2.18-3.66a4,4,0,0,0-.46-2,1.66,1.66,0,0,0-1.55-.79,1.81,1.81,0,0,0-1.59.75,3.44,3.44,0,0,0-.53,1.93,4,4,0,0,0,.44,2,1.61,1.61,0,0,0,1.52.77,1.87,1.87,0,0,0,1.62-.72A3.29,3.29,0,0,0,95.79,19.67Zm4.06-2.56a3.78,3.78,0,0,1,1.17-.86,2.93,2.93,0,0,1,1.33-.36,2.2,2.2,0,0,1,1.79.71,2.65,2.65,0,0,1,.58,1.76v4.77h-1.15V18.52a1.83,1.83,0,0,0-.35-1.17,1.28,1.28,0,0,0-1.07-.48,2.72,2.72,0,0,0-1.1.3,3.27,3.27,0,0,0-1.11.84v5.13H98.79v-7h.7Zm7.66-2.41a.71.71,0,0,1-.55-.22.76.76,0,0,1-.22-.56.69.69,0,0,1,.21-.55.75.75,0,0,1,.56-.22.79.79,0,0,1,.56.22.72.72,0,0,1,.24.55.74.74,0,0,1-.24.56A.79.79,0,0,1,107.51,14.7Zm-.57,8.44v-7h1.16v7Zm3.46,0V13.05l1.15-.16V16.6a3.93,3.93,0,0,1,.92-.51,2.77,2.77,0,0,1,1-.2A2.68,2.68,0,0,1,115.76,17a4.51,4.51,0,0,1,.75,2.66,4.39,4.39,0,0,1-.76,2.66,2.66,2.66,0,0,1-2.3,1,3,3,0,0,1-1.08-.21,3.87,3.87,0,0,1-1-.57c0,.1-.09.2-.13.31l-.15.3Zm1.15-1.52a3.06,3.06,0,0,0,.86.55,2.35,2.35,0,0,0,.86.19,1.74,1.74,0,0,0,1.62-.8,3.71,3.71,0,0,0,.47-1.93,3.83,3.83,0,0,0-.46-2,1.72,1.72,0,0,0-1.63-.79,2.16,2.16,0,0,0-.86.19,3.1,3.1,0,0,0-.86.56Zm6.86,1.52V13.05l1.15-.16V23.14Zm9.33-3.34h-5.11a3.19,3.19,0,0,0,.59,1.85,2,2,0,0,0,1.75.73,3.69,3.69,0,0,0,1.15-.15,7.17,7.17,0,0,0,.85-.34l.36.84a3.14,3.14,0,0,1-1.17.45,6.75,6.75,0,0,1-1.17.13,3.31,3.31,0,0,1-2.65-1,4,4,0,0,1-.9-2.68A4.11,4.11,0,0,1,122.3,17a3,3,0,0,1,2.42-1,2.5,2.5,0,0,1,2.33,1.15A5.24,5.24,0,0,1,127.74,19.8ZM126.61,19a3.14,3.14,0,0,0-.57-1.54,1.61,1.61,0,0,0-1.37-.6,1.72,1.72,0,0,0-1.41.6,2.67,2.67,0,0,0-.6,1.54Zm12.23.78h-5.12a3.19,3.19,0,0,0,.6,1.85,2,2,0,0,0,1.74.73,3.71,3.71,0,0,0,1.16-.15,8.86,8.86,0,0,0,.85-.34l.36.84a3.13,3.13,0,0,1-1.18.45,6.56,6.56,0,0,1-1.16.13,3.34,3.34,0,0,1-2.66-1,4,4,0,0,1-.9-2.68A4.12,4.12,0,0,1,133.4,17a2.94,2.94,0,0,1,2.41-1,2.5,2.5,0,0,1,2.34,1.15A5.24,5.24,0,0,1,138.84,19.8ZM137.7,19a3,3,0,0,0-.56-1.54,1.61,1.61,0,0,0-1.37-.6,1.72,1.72,0,0,0-1.41.6,2.75,2.75,0,0,0-.61,1.54Zm4-1.91a3.86,3.86,0,0,1,1.16-.86,3,3,0,0,1,1.34-.36,2.2,2.2,0,0,1,1.79.71,2.7,2.7,0,0,1,.58,1.76v4.77H145.4V18.52a1.89,1.89,0,0,0-.35-1.17,1.28,1.28,0,0,0-1.07-.48,2.72,2.72,0,0,0-1.1.3,3.27,3.27,0,0,0-1.11.84v5.13h-1.15v-7h.7ZM75.52,50.87l-1.7-5H66.75l-1.69,5h-3l6.7-18.55h3.11l6.7,18.55ZM70.25,35.41l-2.76,8.13h5.6l-2.76-8.13Zm17.07,1.72c3.43,0,5.69,2.7,5.69,7s-2.25,7-5.64,7a4.61,4.61,0,0,1-4.25-2.45h-.07v6.69H80.28v-18H83v2.32H83A4.7,4.7,0,0,1,87.32,37.13Zm-.73,11.62c2.19,0,3.57-1.8,3.57-4.64s-1.38-4.64-3.57-4.64S83,41.32,83,44.11,84.45,48.75,86.59,48.75Zm15.6-11.62c3.43,0,5.7,2.7,5.7,7s-2.25,7-5.65,7A4.61,4.61,0,0,1,98,48.65h-.07v6.69H95.15v-18h2.68v2.32h.06A4.68,4.68,0,0,1,102.19,37.13Zm-.73,11.62c2.2,0,3.57-1.8,3.57-4.64s-1.37-4.64-3.57-4.64-3.55,1.85-3.55,4.64S99.33,48.75,101.46,48.75Zm13.41-3h2.84c.2,1.84,2,3,4.43,3s4-1.21,4-2.87c0-1.44-1-2.3-3.41-2.89l-2.41-.58c-3.4-.82-5-2.41-5-5,0-3.2,2.79-5.4,6.75-5.4s6.61,2.2,6.7,5.4H126c-.17-1.85-1.7-3-3.94-3s-3.76,1.13-3.76,2.78c0,1.31,1,2.08,3.37,2.67l2,.5c3.8.9,5.38,2.43,5.38,5.15,0,3.47-2.76,5.64-7.15,5.64C117.82,51.18,115.05,49.06,114.87,45.7Zm17.28-11.55h2.79v3.2h2.57v2.2h-2.57V47c0,1.17.52,1.7,1.65,1.7a5.81,5.81,0,0,0,.91-.07v2.2A7.38,7.38,0,0,1,136,51c-2.74,0-3.81-1-3.81-3.65V39.55h-2v-2.2h2Zm13.45,17c-3.87,0-6.41-2.66-6.41-7s2.55-7,6.41-7,6.41,2.66,6.41,7S149.47,51.13,145.6,51.13Zm0-2.29c2.18,0,3.59-1.72,3.59-4.73s-1.42-4.72-3.59-4.72S142,41.11,142,44.11,143.43,48.84,145.6,48.84Zm8.56,2V37.35h2.65v2.3h.06a3.26,3.26,0,0,1,3.25-2.52,5.13,5.13,0,0,1,1,.1v2.59a4,4,0,0,0-1.25-.16,2.79,2.79,0,0,0-2.89,3.11v8.1Zm14.29-11.53A3.48,3.48,0,0,0,165,42.86h6.76A3.32,3.32,0,0,0,168.45,39.34Zm3.31,7.56h2.63c-.38,2.47-2.72,4.23-5.82,4.23-4,0-6.38-2.69-6.38-7s2.45-7.07,6.26-7.07,6.1,2.65,6.1,6.75v.95H165V45c0,2.35,1.41,3.91,3.63,3.91A3.08,3.08,0,0,0,171.76,46.9Zm-128,0c-1.6,2.32-3.24,4.63-5.85,4.68s-3.38-1.51-6.3-1.51-3.84,1.46-6.25,1.56-4.43-2.51-6-4.82C16,42.12,13.5,33.5,16.87,27.67a9.33,9.33,0,0,1,7.9-4.76c2.46-.05,4.79,1.65,6.3,1.65s4.34-2,7.31-1.74a8.92,8.92,0,0,1,7,3.77,8.58,8.58,0,0,0-4.12,7.24,8.39,8.39,0,0,0,5.12,7.69A20.59,20.59,0,0,1,43.72,46.93ZM32.79,16.5a8.59,8.59,0,0,1,5.63-2.88,8.39,8.39,0,0,1-2,6.07,7.08,7.08,0,0,1-5.66,2.69A8,8,0,0,1,32.79,16.5Z"/></g></g></svg>