<svg xmlns="http://www.w3.org/2000/svg" width="41" height="42" viewBox="0 0 41 42">
  <path fill="#FFF" d="M20.5,0 C31.8218457,0 41,9.40201172 41,21 C41,32.5979883 31.8218457,42 20.5,42 C9.1781543,42 -1.42108547e-14,32.5979883 -1.42108547e-14,21 C-1.42108547e-14,9.40201172 9.1781543,0 20.5,0 Z M20.5,40.0908867 C30.7926016,40.0908867 39.1363418,31.5436406 39.1363418,21 C39.1363418,10.4563594 30.7926016,1.90911328 20.5,1.90911328 C10.2073984,1.90911328 1.8636582,10.4563594 1.8636582,21 C1.8636582,31.5436406 10.2073984,40.0908867 20.5,40.0908867 Z M20.9633333,15.8522222 C23.79,15.8522222 26.07,18.1322222 26.07,20.9588889 C26.07,23.7855556 23.79,26.0655556 20.9633333,26.0655556 C18.1366667,26.0655556 15.8566667,23.7855556 15.8566667,20.9588889 C15.8566667,18.1322222 18.1366667,15.8522222 20.9633333,15.8522222 Z M20.9633333,24.2788889 C22.79,24.2788889 24.2833333,22.79 24.2833333,20.9588889 C24.2833333,19.1277778 22.7944444,17.6388889 20.9633333,17.6388889 C19.1322222,17.6388889 17.6433333,19.1277778 17.6433333,20.9588889 C17.6433333,22.79 19.1366667,24.2788889 20.9633333,24.2788889 Z M27.47,15.6433333 C27.47,16.3055556 26.9366667,16.8344444 26.2788889,16.8344444 C25.6166667,16.8344444 25.0877778,16.3011111 25.0877778,15.6433333 C25.0877778,14.9855556 25.6211111,14.4522222 26.2788889,14.4522222 C26.9366667,14.4522222 27.47,14.9855556 27.47,15.6433333 Z M30.8522222,16.8522222 C30.9455556,18.4966667 30.9455556,23.4211111 30.8522222,25.0655556 C30.7722222,26.6611111 30.4077778,28.0744444 29.2433333,29.2388889 C28.0788889,30.4077778 26.6655556,30.7722222 25.07,30.8477778 C23.4255556,30.9411111 18.4966667,30.9411111 16.8522222,30.8477778 C15.2566667,30.7677778 13.8477778,30.4033333 12.6788889,29.2388889 C11.51,28.0744444 11.1455556,26.6611111 11.07,25.0655556 C10.9766667,23.4211111 10.9766667,18.4922222 11.07,16.8477778 C11.15,15.2522222 11.51,13.8388889 12.6788889,12.6744444 C13.8477778,11.51 15.2611111,11.1455556 16.8522222,11.07 C18.4966667,10.9766667 23.4255556,10.9766667 25.07,11.07 C26.6655556,11.15 28.0788889,11.5144444 29.2433333,12.6788889 C30.4122222,13.8433333 30.7766667,15.2566667 30.8522222,16.8522222 Z M28.7277778,26.83 C29.2477778,25.5233333 29.1277778,22.4077778 29.1277778,20.9588889 C29.1277778,19.51 29.2477778,16.3988889 28.7277778,15.0877778 C28.3766667,14.2122222 27.7055556,13.5411111 26.8344444,13.1944444 C25.5277778,12.6788889 22.4122222,12.7944444 20.9633333,12.7944444 C19.5144444,12.7944444 16.4033333,12.6744444 15.0922222,13.1944444 C14.2166667,13.5455556 13.5455556,14.2166667 13.1988889,15.0877778 C12.6833333,16.3944444 12.7988889,19.51 12.7988889,20.9588889 C12.7988889,22.4077778 12.6788889,25.5188889 13.1988889,26.83 C13.55,27.7055556 14.2211111,28.3766667 15.0922222,28.7233333 C16.3988889,29.2388889 19.5144444,29.1233333 20.9633333,29.1233333 C22.4122222,29.1233333 25.5233333,29.2433333 26.8344444,28.7233333 C27.71,28.3722222 28.3811111,27.7011111 28.7277778,26.83 Z"/>
</svg>
