<?xml version="1.0" encoding="utf-8"?>
<!-- Generator: Adobe Illustrator 24.1.1, SVG Export Plug-In . SVG Version: 6.00 Build 0)  -->
<svg version="1.1" id="Capa_1" xmlns="http://www.w3.org/2000/svg" xmlns:xlink="http://www.w3.org/1999/xlink" x="0px" y="0px"
	 viewBox="0 0 41 42" style="enable-background:new 0 0 41 42;" xml:space="preserve">
<style type="text/css">
	.st0{fill:#FFFFFF;}
</style>
<g>
	<path class="st0" d="M20.5,0C31.8,0,41,9.4,41,21s-9.2,21-20.5,21S0,32.6,0,21S9.2,0,20.5,0z M20.5,40.1c10.3,0,18.6-8.5,18.6-19.1
		S30.8,1.9,20.5,1.9S1.9,10.5,1.9,21S10.2,40.1,20.5,40.1z"/>
	<g>
		<rect x="11" y="18" class="st0" width="4.3" height="13"/>
		<circle class="st0" cx="13.1" cy="13" r="2.6"/>
		<path class="st0" d="M31.1,31h-4.3v-7.6c0-1.2-1-2.2-2.2-2.2s-2.2,1-2.2,2.2V31h-4.3V18h4.3v1.7c0.7-1.2,2.3-2,3.6-2
			c2.7,0,5,2.3,5,5V31z"/>
	</g>
</g>
</svg>
