<svg xmlns="http://www.w3.org/2000/svg" width="41" height="42" viewBox="0 0 41 42">
    <g fill="#FFF" fill-rule="nonzero">
        <path d="M30.238 13.65a7.632 7.632 0 0 1-2.433.955 3.805 3.805 0 0 0-2.795-1.222c-2.08-.016-3.785 1.687-3.82 3.818 0 .296.035.59.102.878-3.064-.148-5.925-1.61-7.883-4.028a3.889 3.889 0 0 0-.522 1.909c0 1.296.642 2.504 1.705 3.207a3.788 3.788 0 0 1-1.733-.487v.048c-.006 1.862 1.281 3.465 3.066 3.818a3.815 3.815 0 0 1-1.724.067c.514 1.577 1.946 2.65 3.569 2.673a7.627 7.627 0 0 1-4.724 1.67c-.312 0-.623-.02-.932-.057a10.758 10.758 0 0 0 5.86 1.737c5.918.111 10.803-4.713 10.91-10.775l.003-.192v-.497a7.853 7.853 0 0 0 1.863-1.995c-.7.314-1.44.52-2.199.611a3.868 3.868 0 0 0 1.687-2.138z"/>
        <path d="M20.5 0C9.178 0 0 9.402 0 21s9.178 21 20.5 21S41 32.598 41 21 31.822 0 20.5 0zm0 40.09C10.207 40.09 1.864 31.545 1.864 21S10.207 1.91 20.5 1.91 39.136 10.455 39.136 21 30.793 40.09 20.5 40.09z"/>
    </g>
</svg>
